<svg xmlns="http://www.w3.org/2000/svg" viewBox="0 0 303.64 660.63"><defs><style>.cls-1{fill:#f4f4ed;}</style></defs><title>flower</title><g id="Layer_2" data-name="Layer 2"><g id="Layer_1-2" data-name="Layer 1"><path class="cls-1" d="M297.62,509.32c3.11-7.13,4-14.82,6-21.75-.82-3.2-2.79-4.89-4.71-6.59-1.2-1.06-2.63-1.87-3.2-3.7a34.39,34.39,0,0,1,.94-9.38,41.84,41.84,0,0,0,1-14.36c-.38-5.44-1.24-10.85-1-16.34.08-2-1.06-3.66-2.51-5s-3.54-1.71-4.32-4.22a20.3,20.3,0,0,1,.13-7.22c.55-2.83.79-5.71,1.15-8.44-1.82-5.08-3.08-10-2.84-15.27.13-2.87-1.16-5.65-2.55-8.22a5.62,5.62,0,0,0-2.82-2.51,14,14,0,0,1-2.36-1.67c-1.25-8.3.2-16.78-1.81-24.28-2-3.19-5.82-2.71-6.82-4.5a11.14,11.14,0,0,1-.89-1.86c-.64-5.43-1.54-10.85-1.78-16.3s-2.53-10.63-3-16.09a22,22,0,0,0-1.8-6.48,59,59,0,0,1-4.14-14.81c-.49-3.77-2-7.42-3.17-11.07a2.1,2.1,0,0,0-2.4-1.21,11.6,11.6,0,0,0-1.88.67c-1.46,2.38-2.87,4.9-4.49,7.27a102.51,102.51,0,0,0-9.91,17.64,36.54,36.54,0,0,1-3,6c-4.2,6.27-6.42,13.32-8.26,20.5a117.62,117.62,0,0,1-6.6,20.14c-.67,1.46-1.15,3-1.73,4.51a29.57,29.57,0,0,0-.55,20.77,25.87,25.87,0,0,1,1.32,9.48c-.19,5.14-.61,10.26.08,15.42a19.76,19.76,0,0,1-.49,5.73c-.8,4.75-1.78,9.47-2.58,14.23a39,39,0,0,0,.62,17.19c1.72,6.19,2.85,12.54,4.3,18.81a15.67,15.67,0,0,1,.27,7.56c-1.4,2.22-4.42,2.86-5.3,6,.55,6.35,1.55,12.94,4.26,19.27,1.38,3.22,2,6.78,2.87,10.2a7,7,0,0,1-2,7.06,8.36,8.36,0,0,0-1,2.14c.4,3.74.8,7.9,1.32,12a17.94,17.94,0,0,0,1,3.72c2.8,7.88,5.65,15.74,8.44,23.62q1.29,3.64,2.36,7.35a4.08,4.08,0,0,1-.13,1.65,3.92,3.92,0,0,1-1.46-.8,49.75,49.75,0,0,1-3.48-4.61c-2.28-3.49-5.35-6.5-6.89-10.42-1.67-4.25-4.4-7.83-6.66-11.71a33.25,33.25,0,0,1-1.77-4.48c-.36-.89-.78-1.76-1.22-2.73l-5-5.62c-1.16-2.78-2.32-5.43-3.37-8.13a13.91,13.91,0,0,0-3.91-5.42c-1.2-1.06-2.46-2-3.45-2.87-2.09-4-3.78-7.84-6.51-11.1a19.92,19.92,0,0,1-2.86-5,56.9,56.9,0,0,0-7.49-12.34,23.59,23.59,0,0,1-3.12-4.82c-1.16-2.67-2.73-5.09-4.07-7.64-3.73-7.1-8.18-13.86-10.54-21.63a17,17,0,0,0-1.71-3.45,46,46,0,0,1-6.67-20.88c-.1-2-5.4-30.26-6-32.2-1.55-5-1.6-10.12-1.72-15.26-.07-2.88,0-5.77,0-9.4l1.87-6.82-.3-8.49c.72-2.26,1.55-4.37,2-6.56s.61-4.36.87-6.31c.81-.56,1.3-1.14,1.86-1.23,1.9-.3,3.82-.39,5.73-.61a5.08,5.08,0,0,0,3.78-1.93c.16-.4.52-1.28.83-2.17s.58-1.77.84-2.6c2.14-.5,3.89.57,5.76.91a6.41,6.41,0,0,0,4.8-.64c2.1-2.19,4.79-4.21,6.4-6.88s4-5,6-7.49a3.76,3.76,0,0,0,.5-3.67c-.56-1.47-1.24-2.9-1.71-4a7.07,7.07,0,0,1,.15-1.41c.23-.6.57-1.15.82-1.74,2-4.78,2-4.92-2.39-8.85a6.73,6.73,0,0,1-1-1.52c-.26-1.65-.39-3.25-.79-4.79a3.27,3.27,0,0,0-2.71-2.44,12.89,12.89,0,0,0-3.83,0c-2.18.32-4.52-.2-6.49,1.21.05.64-.12,1.44.2,1.85,2.16,2.79,4.44,5.48,6.65,8.23.58.73,1,1.55,1.49,2.21-.41,2.41-.76,4.62-1.17,6.82s-.9,4.4-1.32,6.61.64,4.53-.81,6.58c-2.45,2.07-5.58,1-8.33,1.74l-4.71,3.05-3.92-.65c-2.89-2.81-1.76-6.74-3-9.94a3,3,0,0,0-4.32-.32c-2.3,1.75-4.42,3.74-6.61,5.63-.61.52-1.13.58-1.85-.12l-.51-3.34a30.38,30.38,0,0,0,4.17-2.76c1.74-1.61,2.76-3.58,1.26-6.13l-2.38-1.32-5.56,1.21c-1.84-2.74-5.16-2.77-7.49-4.67L130,300.7c.73-2,2.8-3,2.85-4.89,0-2.13-1.62-3.82-.6-5.94a51.72,51.72,0,0,0,4.82-2.81c1.29-.93,2.21-2.38,3.52-3.28a42.21,42.21,0,0,1,4.71-2.54,5.24,5.24,0,0,0,1.17-4.87c-.51-1.86-1.15-3.71-3.32-4.36-2.79-.19-5,1.18-6.83,3s-3.46,3.77-4.66,5.09c-3.44,2.07-7,2-9.5,4.48a17.12,17.12,0,0,0,0,2.74c.23,1.59.7,3.14.94,4.72a3.52,3.52,0,0,1-1.36,3.42c-1.78,1.33-3.7,2.49-5.34,3.57-.74,1.51-.86,2.8,0,3.88a5,5,0,0,0,2.27,1.67c1.84.51,3.8.61,5.66,1.05a27.36,27.36,0,0,1,3.54,1.36,11.05,11.05,0,0,1,.12,3c-.57,2.17-1.42,4.25-2,6.41-.39,1.32.71,3.17,2.14,3.95,1.1.6,2.58.41,3.66,2l1.68,4.47c2,1.64,3.72,2.34,6,1.48.52-.58,1.12-1.32,1.79-2a1.81,1.81,0,0,1,3.08.36,11.83,11.83,0,0,1,.55,2.58L142,333.61l1.76,4.71a51.41,51.41,0,0,0-1.46,5.29c-.39,2.21-.27,4.51-.72,6.7-1.31,6.31-.58,12.87-2.46,19.09-.23,8-1,16.08,2.31,23.77a8,8,0,0,1,.64,2.8c.12,3.55,1,7,1.4,10.5s.53,7,1.09,10.48a1.84,1.84,0,0,1-1.58,2c-.24-.2-.6-.35-.73-.61-1-2-1.91-4.06-2.88-6.08-.83-1.73-1.43-3.64-3-4.9-3.19-2.57-4-6.53-5.83-9.88s-4.84-6.07-6-9.87c-.09-.31-.19-.62-.3-.92a119.11,119.11,0,0,0-6.34-14.06,43.64,43.64,0,0,1-5.69-21.23c.07-5.8-1.55-11.52-.47-17.32a6.26,6.26,0,0,0-.18-1.91c-.58-4.13-1.08-8.28-1.77-12.39-.81-4.86-.74-9.67,1.18-14.22a29.5,29.5,0,0,0,2.22-11.29,35.83,35.83,0,0,1,1.59-10.45c1.65-5.2,2.81-10.52,4.29-15.76a26.65,26.65,0,0,1,3-7.08c3.82-5.94,7.49-12,12.31-17.25,3-3.31,6.26-6.47,9.68-10,6.57-2.55,12.48-7.25,20-9.44l15.06-.72c4.84.43,6.89,3.18,10.46,3,.77-.3,1.95-.78,3.14-1.22,1.71-.63,3.12-.17,4.53,1.65.42,1.42.92,3.27,1.52,5.09a24,24,0,0,0,1.48,3.55,4.42,4.42,0,0,0,3.89,2.43,4.55,4.55,0,0,0,4.27-3.28A35.85,35.85,0,0,0,209,231l4.87-4.2c.27-2.22.22-4.22.82-6a44.06,44.06,0,0,1,3-5.94,13.05,13.05,0,0,0-.45-2.89c-1-2.54-4.71-3.22-6.36-1.23a14.35,14.35,0,0,0-1.71,2.31c-.9,1.7-1.63,3.5-2.53,5.21a6.63,6.63,0,0,1-1.3,1.35c-1.77-.2-1.77-.2-3.09-1.63l.55-8.28a4.49,4.49,0,0,1,3.2-2.2,18.74,18.74,0,0,1,2.87,0c1.86-.05,2.74-1.08,3.13-2.89.56-2.62-.29-5.12-.29-7.67,0-.56.47-1.12.72-1.68,2.36-1.59,5.07.21,7.5-.76,5.07-4,5.24-4.38,5-12.57l-1.69-1.78c-3.41-.86-4.43,2.52-4.81,2.65L211.08,185,204,191.5l-7.58,2.42a9.58,9.58,0,0,0-1.45,2.66c-.3,1.89-.25,3.84-.42,5.75a10.5,10.5,0,0,1-.53,1.88l-3.36,4.29-.67,4.93a7.67,7.67,0,0,1-6,2.87,116,116,0,0,0-12.51.7c-1.26.14-2.56-.12-3.85-.11-1.92,0-3.83.12-5.66.18l-21.45,10.15c-8.85,9.7-8.85,9.7-13,11.46a9.68,9.68,0,0,1-.18-5.69c1.15-1.9,2.67-3.69,3.41-5.76,3.06-8.47,7.26-16.48,10-25.08a113.72,113.72,0,0,1,5.82-15.33,26.41,26.41,0,0,0,1.4-4.58,3.39,3.39,0,0,0-1.6-3.23c-1.1-.5-2.94-.3-3.59.54a19,19,0,0,0-2.67,3.94,102.55,102.55,0,0,0-4.75,12.62,63.94,63.94,0,0,1-5.15,13.44c-.75,1.41-1.09,3-1.82,4.47-2.77,5.44-4.14,11.53-7.63,16.18l-2,11.81c-2.46,3.89-2.86,8.49-4.32,12.73a57.75,57.75,0,0,0-3.19,16A30.7,30.7,0,0,1,108.44,282c-.53,1.17-.94,2.39-1.51,3.88a58.46,58.46,0,0,1-4.45,23.23c.94,6.07-.14,12.25,1.49,18.23-.11,5,.59,10.12-.94,15.06a5.19,5.19,0,0,1-2.57-3.56c-.71-2.47-.94-5.11-1.92-7.45-2.47-5.94-4.35-12.12-7.5-17.78a22.8,22.8,0,0,1-2.49-6.24c-2-9.75-4.8-19.37-5.78-29.33a15.62,15.62,0,0,0-.67-3.79c-2.23-6.14-2.59-12.58-3.21-19-.34-3.52-.72-7-1.4-10.5a52.56,52.56,0,0,1-.83-17.23,52.7,52.7,0,0,0-.82-20.11c-.06-.23.19-.53.29-.8,7.91,1.24,7.91,1.24,14.94-1.87a35.5,35.5,0,0,1,3-4.63c1.46-1.67,3.7-2.59,4.74-4.72-.49-3.48-.69-3.73-5.83-7.07-2.1.31-3.9,1.75-5.91,2.7s-2.84,3.59-5.36,3.91a8.7,8.7,0,0,0-7.44,0,9.32,9.32,0,0,1-2.59.52l-4.51-1.34c-1,.14-1.62.2-2.24.33-.94.2-1.87.47-2.77.7a24.75,24.75,0,0,0-2.8-.85,4.65,4.65,0,0,0-5.09,1.85c-.55.79-1,1.67-1.55,2.44-.74,1-2.56.71-3.25-.38a5.47,5.47,0,0,1-.47-5.48c.91-2,2.47-3.75,2.69-6.13.15-1.59-1.06-3.33-2.7-3.25a5.48,5.48,0,0,0-2.77.53A81.64,81.64,0,0,1,37,189.21c-.79,1.35-1.65,2.7-2.38,4.12a4.28,4.28,0,0,0-.23,3.82l3.09,3.38c.77,3.19,1.17,6.51,4.62,8.22l4.53.92c5.66,3.76,5.66,3.76,12.53,2.86l4.4,3.12,5.78.82c.41.9.89,1.48.88,2.05,0,2.25-.14,4.49-.31,6.73-.61,8-.57,16,1.47,23.94a13,13,0,0,1,.3,3.83c-.19,3.91,1.19,7.66,1.22,11.47a32.31,32.31,0,0,0,2.49,11.21,7.74,7.74,0,0,1,.56,2.82c-.1,3.6,1.09,7,1.67,10.46s1.26,7,1.62,10.48a59,59,0,0,0,1.72,9.46c1.67,6.19,4,12.2,4.78,18.62a4.2,4.2,0,0,0,.27.92c2.1,5.73,4.22,11.46,6.27,17.21a5.07,5.07,0,0,1-.09,1.86l-1.9.61L83,344.75c-2.52-3.22-4.75-6-6.85-8.79-5-6.71-10.77-12.85-15-20.1-3.43-5.89-7.76-11-12.32-16.4-7-5.23-14.52-10.2-20.84-16.88-2.08-.8-4.2-1.54-6.26-2.45a16.52,16.52,0,0,1-4.18-2.34c-2.73-2.37-6-3.77-9.12-5.38a11.29,11.29,0,0,1-1.54-1.14c-2-1.61-1.82-4.93-4.61-5.92A2.28,2.28,0,0,0,0,267.83a23.8,23.8,0,0,0,1.38,8.26c4.17,6.81,9.75,12.27,13.43,18.26.36,1,.52,1.26.58,1.57,2.39,10.67,3.71,21.58,7.16,32a3.63,3.63,0,0,1,.18.95c.38,7.69,2.41,15.25,1.41,23.06a35.26,35.26,0,0,0,4.58,23.24,1.88,1.88,0,0,1,.32.9c0,.94-.09,1.88-.13,2.73-.8.79-1.54,1.41-2.16,2.14a23.65,23.65,0,0,0-1.44,2,7.48,7.48,0,0,0,.46,5.05c2.39,6.66,5.25,13.14,7,20a32,32,0,0,0,2.28,5.31A115.46,115.46,0,0,0,44.6,429c1.25,1.84,2.3,3.82,3.33,5.56l-.27,6.7c1.19,3.37,2.6,6.32,3.26,9.43,1.36,6.43,5,11.85,7.54,17.72a16,16,0,0,0,3.62,4.45c3.64,3.63,7.4,7.14,11.05,10.75.4.4.44,1.17.65,1.77a3.69,3.69,0,0,1-1.88,2.51c.7,5.6,2.87,8.44,4.6,11.36a47.59,47.59,0,0,1,5.54,4.1,64.27,64.27,0,0,1,9.3,11,1.63,1.63,0,0,1-1.72,2.37c-2.64-1.14-5.22-2.43-7.84-3.69-3.17-.46-6.36-.86-9.53-1.39-4.14-.68-8.25-1.33-12.46-.38a9.89,9.89,0,0,1-3.83,0,16.36,16.36,0,0,0-6.68.36c-2.51.57-5.11.76-7.57,1.45a66.25,66.25,0,0,0-6.42,2.42c-4.29.6-8-.68-11.22,1.37a3.08,3.08,0,0,0,0,4.31,16.18,16.18,0,0,0,5.36,4,51.41,51.41,0,0,1,13,9.85c3.53,3.72,7.48,7,11.34,10.44a48.26,48.26,0,0,0,4.72,3.32c1,.71,2.1,1.4,3.23,2.16l.5,8.37a14.17,14.17,0,0,0,1.29,1.92,5.06,5.06,0,0,0,1.56,1.1,19.4,19.4,0,0,0,7.45,1.85c1.6,0,3.23-.15,5.39,1.35,1.36,1.93,3.15,4.58,5.09,7.13a42.31,42.31,0,0,0,3.3,3.49c2.41,0,4.64.16,6.88.08,1.92-.07,3.84-.47,5.76-.53a7.9,7.9,0,0,1,5.87,2.47c2.64,4.65,5.47,10.13,10.38,13.23,2.38,1.16,4.28.45,6.19.29a8.21,8.21,0,0,1,5.17.78c3.57,2.22,5.34,6.52,7.48,9.73a7.25,7.25,0,0,0,6,1.67c1.9-.28,3.77-.85,5.67-1.13a11.63,11.63,0,0,1,9,2.48,10.7,10.7,0,0,1,1.4,1.33c3,3.32,6.7,3.5,10.66,2.47,1.55-.41,3-1.19,4.53-1.64a32.25,32.25,0,0,1,3.76-.64c2,1.37,3.75,2.71,5.62,3.92a6.38,6.38,0,0,0,5.55.72c1.54-.47,3.08-.93,4.6-1.46,1.79-.63,3.16-2.32,5.61-2.07l7.73,3.72c6.24.27,12.66.5,19.07.84a38.76,38.76,0,0,1,5.72.75c3.78.77,7.52,1.73,11.29,2.52,6.16,1.29,11.71,4,15.91,8.57,5,5.44,10.47,10.51,14.1,17.93.41,1.81,1,4.32,1.52,6.83a27.62,27.62,0,0,0,3.68,8.86,5.18,5.18,0,0,0,7.49,1.88,3.6,3.6,0,0,0,2-3.09,6.67,6.67,0,0,0-.07-1.92c-2-7.45-4.16-14.86-5.63-22.45a24.85,24.85,0,0,0-1.68-4.52,36.32,36.32,0,0,1-2.68-14.14,135,135,0,0,0-1.06-16.36c-.33-2.87-.27-5.78-.35-7.76,1.87-8.42,3.56-16,5.22-23.49.83-3.78,1.64-7.71,3.87-10.84,3-4.21,5.27-8.82,8-13.16s4.57-9.18,6.41-14a24.15,24.15,0,0,0-1-3.76c-1.5-3.48-1.13-6.92,0-10.37A45,45,0,0,1,297.62,509.32ZM250.88,334.92a17.3,17.3,0,0,1,.09-4.78c.62-5.07,1.29-10.14,2.09-15.18.12-.77,1-1.42,1.56-2.09.49.22.95.27,1,.49,2.5,5.5,5.21,10.89,6.27,17A94,94,0,0,1,263.46,353l-4.15,4.79c-.83,2.14-1.67,4.55-2.69,6.88a6.76,6.76,0,0,1-2.9,3.68c-.39.2-1.07-.17-1.62-.28-.88-1.91.26-3.76.13-6.71l-1.78-8.53A52.35,52.35,0,0,0,250.88,334.92ZM231.73,348.1a26.59,26.59,0,0,0,5.47-13,32.81,32.81,0,0,1,4.1-11.68,10,10,0,0,1,1.93-2.06c.15-.14.62,0,.89.09s.56.36.59.58a42.72,42.72,0,0,1,.22,8.54,33,33,0,0,0-.14,5.72c.54,4.46,1,8.88-.28,13.28.28,2.85.46,5.72.86,8.55a19.82,19.82,0,0,1-1.44,11.22,9.44,9.44,0,0,1-1.9,2.08,12.63,12.63,0,0,1-2.62-1.32,6.23,6.23,0,0,1-1.69-2.29,16,16,0,0,0-5.82-7C230.37,356.41,231.37,352.32,231.73,348.1Zm2.1,219.22c2.31.8,3.3,2.62,3.48,4.94.05.68-.55,1-1.21.87C234.64,571.46,233.41,569.7,233.82,567.32Zm-11.66,9.38a2.52,2.52,0,0,1,2.6-.45,6.37,6.37,0,0,1,2.33,1.52c2.11,2.74,4.08,5.58,6.23,8.57-.92,0-1.59.16-2-.08a41,41,0,0,1-8.91-7C221.84,578.68,221.64,577.07,222.16,576.7Zm-7-3.32c-1,0-1.2-.6-1.35-1.28.36.24.72.48,1.07.74C215,573,215,573.2,215.12,573.38Zm-.94-18.9a1.06,1.06,0,0,1-.74-.3,1.13,1.13,0,0,1-.38-.76c.06-.71.19-1.41.3-2.11a22.52,22.52,0,0,1,1.25,1.88C215,553.89,214.8,554.4,214.18,554.47Zm-1,16.89a5.45,5.45,0,0,1-2.51-2.5A5.62,5.62,0,0,1,213.17,571.36Zm-.77-21.87a5.37,5.37,0,0,1,.55,1.08c-.33-.17-.66-.34-1-.52s-.63-.38-.61-.52C211.47,548.87,211.92,548.83,212.4,549.5Zm-7-12.58a13.13,13.13,0,0,1,3.13,6.74c-1.3-.07,0,1.09-1,.24a8.18,8.18,0,0,1-3.06-6.55C204.57,536.06,204.43,537.77,205.42,536.92Zm.86,26.38a7.87,7.87,0,0,1,3.82,5c-1.72-.45-3.44-.94-5.17-1.32-1.16-.25-2.18,1.35-2.06,2.61.26,2.74,2.41,4.47,3.37,6.8a2.58,2.58,0,0,1-3.35,1.09c-2.9-1.35-6-2.6-8.47-4.52-7.9-6-15.73-12.21-21.63-20.4a13.49,13.49,0,0,1-1.28-2.57,3,3,0,0,1,0-1c.48-.14,1.16-.57,1.46-.39,2.75,1.66,5.47,3.38,9.07,4l7.45-.35c1.64.89,3.42,1.67,5,2.74C198.45,557.71,202.14,560.8,206.28,563.3Zm-15.63-46.2a2.33,2.33,0,0,1-.77-1.92A2.17,2.17,0,0,1,190.65,517.09Zm-1-2.48a2,2,0,0,1-.88-1.95A2.42,2.42,0,0,1,189.64,514.61Zm-1.75-3.82a4.26,4.26,0,0,1,.52,1.31,12.4,12.4,0,0,1-1.19-.56c-.25-.14-.61-.48-.57-.64C186.84,510.19,187.39,510.11,187.89,510.79Zm-24.51-21.88c-.13-.1-.34-.18-.38-.31a1,1,0,0,1,0-.19Zm-2.59-3.7c.47-.76,1-.68,1.47.1a2.82,2.82,0,0,1,.53,2.4c-.67-.53-1.35-1-2-1.61A.94.94,0,0,1,160.78,485.22Zm-1.24-21.59a2,2,0,0,1-.83-1.93A2.2,2.2,0,0,1,159.55,463.62Zm-1.12-2.37c-4.16-1.21-6.08-4.19-6.54-8.32C155.32,454.71,157.84,457.22,158.43,461.25Zm-7.11-9.79-.07-.16ZM103.19,342.87c.16.17.3.32.28.36C103.23,343.55,103.12,343.41,103.19,342.87Zm-.54,37.51a47.69,47.69,0,0,0,9,12.44c.65,1.85,1.25,3.68,1.93,5.48.57,1.5.9,3.28,1.92,4.39,4.18,4.52,5.71,10.81,10.33,15a9.28,9.28,0,0,1,1.79,2.25c3.81,6.69,7.84,13.28,10.82,20.4,3.1,7.41,6,14.9,9.14,22.68,1.21,1.44,2.75,3.09,4.08,4.89a4.77,4.77,0,0,1,.83,3.38,36.2,36.2,0,0,1-15.31-13.63c-2-3.27-4-6.59-6.15-9.77s-4.71-6.1-6.75-9.33-3.65-6.77-5.54-10.13c-3-5.31-6.12-10.54-9-15.9a36.09,36.09,0,0,1-2.89-7.13c-2-7.13-5.11-13.85-8-20.63a43.27,43.27,0,0,1-3.11-9.09,12,12,0,0,1,0-2.57C98.93,374.63,101,377.29,102.65,380.38Zm-7.22-7.78a2.26,2.26,0,0,1-.76-1.87A2.52,2.52,0,0,1,95.43,372.6ZM82.49,495.71A4.79,4.79,0,0,1,81,492.19c.47-2.85,4.22-4.05,3.92-7.38,0-.31-.13-.62-.28-1.3-5.53-6.3-13.46-10.35-19.36-16.8a46.35,46.35,0,0,1-2.78-5,78.61,78.61,0,0,0-7-13.7,4.16,4.16,0,0,1,.23-4.58,25.54,25.54,0,0,1,1.78-2.28c1.13-1.4,1-3,.66-4.57a62,62,0,0,0-8.74-12.69,86.56,86.56,0,0,1-8.84-12.6c-2.46-4.09-4.1-8.7-5.84-13.18a82.39,82.39,0,0,1-2.3-8.07c.15-2.12,1.77-2.87,2.8-4a10,10,0,0,0,2.78-5.8c-.08-2.86-1.46-6-3.48-9a17.85,17.85,0,0,1-3-6c-1.15-5.64-2.32-11.35-.8-17.16.32-1.23.47-2.52.69-3.71a98.34,98.34,0,0,1-2.62-18.2,26.21,26.21,0,0,0-.88-5.71c-1.62-6.22-3.25-12.45-5.12-18.6a62.28,62.28,0,0,1-2.14-11.32c0-.27.26-.58.49-1.06a10.25,10.25,0,0,1,2.65.22,8.09,8.09,0,0,1,2.43,1.53,62.63,62.63,0,0,0,10.26,7.17,15.19,15.19,0,0,1,2.33,2c.71,2,1.33,4.11,2.26,6.11a50.14,50.14,0,0,0,3,5A19.47,19.47,0,0,0,49,317.18,20.79,20.79,0,0,1,56.31,326c1,2.42,3.36,3.94,3.88,6.56a.74.74,0,0,1-.32.63c-.25.12-.72.19-.87.05-1.65-1.52-3.24-3.1-4.89-4.62A10.48,10.48,0,0,0,49,326a10.93,10.93,0,0,0-2.68.1,4.12,4.12,0,0,0,0,4.68,11.68,11.68,0,0,0,1.73,2.29,55.31,55.31,0,0,0,4.08,4.1C60,344,65.79,352.51,71.51,361.06c2.85,4.26,5.31,8.77,7.92,13.19.09.15-.13.61-.33.75s-.7.27-.87.15c-3.29-2.57-6.58-5.14-9.8-7.8a13,13,0,0,0-7-3c-1.84.4-2.88,1.32-2.11,3.78,4.05,3.55,9,6.57,13,10.76,3.78,3.93,7.84,7.58,12.1,11.65l4.07.76c.56.55,1.18.91,1.44,1.45,1.65,3.48,3.26,7,4.78,10.52.16.36-.26,1-.54,1.49-.1.16-.63.17-.9.08a6,6,0,0,1-1.73-.81c-5.33-4.18-11.52-5.48-18.11-5.33a2.89,2.89,0,0,0-1.58,1,2.22,2.22,0,0,0,.38,2.6,19.34,19.34,0,0,0,3.21,2.06,66,66,0,0,0,6.35,2.28c6.36,2,11.34,5.93,15.67,10.82,2.13,2.41,4.28,4.81,6.19,7.39,1.54,2.08,3,4.1,5.28,5.5a9.22,9.22,0,0,1,3.07,3.64c1.62,3.12,3,6.37,4.39,9.58.1.22-.13.58-.24,1a13,13,0,0,1-2.81-.25c-2.46-.76-4.9-1.59-7.29-2.54a33.53,33.53,0,0,0-7.41-2c-3.48-.52-6.87-1.6-10.32-2.37a3.06,3.06,0,0,0-2.66.78,1.69,1.69,0,0,0-.27,2.51,10.08,10.08,0,0,0,2.25,1.71,132.24,132.24,0,0,0,12.61,4.81c10.1,2.92,18.65,8.55,26.79,14.89a46,46,0,0,1,6.72,6.89c2.47,3,4.72,6.1,7,9.24a7.8,7.8,0,0,1,.7,2.5,4.69,4.69,0,0,1-3.84-.94c-3.58-2.16-7.14-4.35-10.62-6.65a19.37,19.37,0,0,0-7.12-2.82c-3.46-.68-6.91-1.44-11.2-2.35-2.36.26-5.55.59-8.74,1a1.94,1.94,0,0,0-1.67,2c.18,1,.73,2,1.65,2.15,7,1.12,13.45,4.43,20.15,4.72,7.36,4.39,14.34,8.35,20.66,13.36,1.75,1.39,3.86,2.31,5.68,3.63,1.23.9,2.57,1.86,2.84,3.69A30.29,30.29,0,0,1,137,496.66a21.35,21.35,0,0,0-7.55-1.41c-3.22-.1-6.43-.27-9.64-.41a5.16,5.16,0,0,0-3.53,1.38,9.45,9.45,0,0,0-.65,1.74,2.12,2.12,0,0,0,1.18,2.37,48.24,48.24,0,0,0,7.56,1.33c4.28.12,8.2,1.37,12.17,2.76,2.71,1,5.57,1.48,8.67,2.28,4,2.53,8.33,5.37,12.77,7.94,10.28,5.94,25.31,18.32,33.23,27.63A6.64,6.64,0,0,1,192,544c-1.61,1.75-3.52,1.29-5.17.21-2.42-1.58-4.64-3.44-6.59-4.91-2-.79-3.6-.31-5.19-.23a7.31,7.31,0,0,1-4.63-1.07c-4.55-3.18-9.62-5.07-14.84-6.8-3-1-5.67-2.95-8.79-4.63-7.69,1.16-7.69,1.15-15.46-1.46a45.62,45.62,0,0,0-4.63-1.34,42.41,42.41,0,0,1-9-3.38c-6.54-3.11-6.54-3.11-14.07-4.15a31.2,31.2,0,0,1-4.15-3.5A175.32,175.32,0,0,0,82.49,495.71Zm85,63.47a8.74,8.74,0,0,1-9.15-1.5c-5.39-4.46-11-8.68-15.5-14.14-1.2-1.46-2.65-2.71-3.86-4.17-.29-.35-.05-1.14-.05-1.76,3.32-.25,6.07,1.79,9.66,2.3,2.1,0,4.64-.17,7.18-.14a10.66,10.66,0,0,1,7,2.57,12.82,12.82,0,0,1,1.69,2.33l-1.7,4.4C162.4,553.21,166.83,555.29,167.5,559.18ZM130,539.5c1.61,2.17,3.32,4.45,5,6.76a1.18,1.18,0,0,1,.13.9,1.4,1.4,0,0,1-1.42,1.06,14.5,14.5,0,0,1-9.8-3.19,71.25,71.25,0,0,1-15.46-17,2.14,2.14,0,0,1,.34-2.81c3.83,0,6.88,2.77,10.47,3.94,3.34,1.09,6.57,2.5,9.84,3.76C130.9,534.88,129,537.29,130,539.5Zm-30.41-8.28a7.28,7.28,0,0,1,1.13,2.27c-2.47.57-4.63.09-7.33-.47-2.4-2.18-4.64-4-5.79-6.85C93.62,527.28,96.52,528.45,99.58,531.22ZM52.85,518.85a5.71,5.71,0,0,1,1.83-.49c3.53-.17,7.07-.14,10.59-.46a9.39,9.39,0,0,1,9.64,5c.82,1.38,1.67,2.73,2.47,4.12.14.25.05.62.11,1.47a12.57,12.57,0,0,1-6.21,0c-7.41-4.12-7.42-4.11-17-6.4a5.26,5.26,0,0,1-1.66-.9,1.46,1.46,0,0,1-.5-.81A1.21,1.21,0,0,1,52.85,518.85Zm14.79,25.06c-1.87-.35-3.68-1-5-1.37C57,539,53,534.43,48.9,530.16a1.8,1.8,0,0,1,2-1.63,13.36,13.36,0,0,1,3.74.66c3.32,1.14,6.66,2.26,9.87,3.67a105.11,105.11,0,0,0,11.64,4.35,4.66,4.66,0,0,1,3.06,2.11c-.09.28-.1.66-.3.84C75.76,543.23,72,544.72,67.64,543.91ZM238.1,607.53a23.48,23.48,0,0,1-3.81-.53c-2.84-.57-5.66-1.24-8.5-1.79a11.5,11.5,0,0,0-3.82-.4c-6.19,1-12.1-1.22-18.11-1.18-1.69-1.29-3.17-2.53-4.77-3.59a5.53,5.53,0,0,0-4-1.06c-2.28.5-3.35,1.79-4.65,2.71a10.26,10.26,0,0,1-7.78,1.7c-1-.65-2.28-1.57-3.63-2.41a36.86,36.86,0,0,0-4.18-2.38,6.3,6.3,0,0,0-6.44.41,23.38,23.38,0,0,1-3.22,2.08,9.06,9.06,0,0,1-2.61.4c-4.46-1.7-6.32-6.87-11.67-7.61-3.65.37-7.66,2.2-11.89.88-3.3-1-3-4.69-4.88-6.78a10.54,10.54,0,0,0-1.48-1.23,26.61,26.61,0,0,0-11.87-3.71,19.34,19.34,0,0,1-4.13-1c-3.86-3.85-4.29-9.29-8.58-12.65-5.88-1.66-12.28-1.92-19.42-1.88-1.06-2-1.81-3.45-2.53-4.87a11.31,11.31,0,0,0-7.18-6c-1.85-.54-3.7-1.1-5.49-1.79-.49-.19-.78-.91-1.15-1.39a5.94,5.94,0,0,1,1-1.56,14.28,14.28,0,0,1,3.23-2.06,48.93,48.93,0,0,0,12.23-7c6.74-.09,7.31.07,10.19,2.78-.49.72-.83,1.74-1.54,2.18-1.35.84-2.93,1.31-4.37,2-2.16,1.07-3,3-2.64,5.66.33,2.21,2.38,3.44,4.23,2.5.86-.43,1.7-.91,2.52-1.41a35.22,35.22,0,0,1,9.8-4.24c4.93,1.11,9.92,2.23,14.92,3.37a2.65,2.65,0,0,1,.85.43,2,2,0,0,1,1,2.52c-1,.86-2.24.16-3.43.08a23.16,23.16,0,0,0-3.82,0,3.35,3.35,0,0,0-2.77,2.39c-.75,2.05-.15,3.59,2.18,6,2.4-.12,4.94-.28,7.49-.36,2.24-.07,4.55.28,6.71-.13,2.6-.5,5.26.35,7.66-.27,5.49-1.42,10.87.52,16.29,0,4.32,1.35,8.83,1.54,13.28,2.09a6.52,6.52,0,0,1,1.78.71,4.77,4.77,0,0,1,.81.52c.62.46.86,1,.59,1.51-.13.26-.41.6-.66.64-3.17.44-6.35.84-9.77,1.28l-7.34-1.53a19.09,19.09,0,0,0-6.71-.16c-3.84.57-5.48,3.93-3.32,7.08a43,43,0,0,0,2.81,3.39c2.78.91,3.78-1.24,5.37-2.13a7.87,7.87,0,0,1,1.84-.49c4.82-.08,9.63-.1,16.26-.16,3.56.86,8.88,2.11,14.17,3.47a5.3,5.3,0,0,1,3.74,2.9l-2.27,4c.66,1.94,1.82,3.06,3.12,3,2.24-.18,4.49-.4,6.73-.64,8.08-.84,16.07-.77,23.86,2a29.15,29.15,0,0,0,3.75.9,26.69,26.69,0,0,1,12.11,5.64c2.94,2.47,6.21,4.55,9.86,7.18C241.69,607.46,239.89,607.59,238.1,607.53Zm16.66-20.44a1.25,1.25,0,0,1-.66.6,1,1,0,0,1-.78-.07,1.67,1.67,0,0,1-.66-.68c-4.67-9.89-9.35-19.77-14-29.68a58.46,58.46,0,0,1-2.42-6.31c-2-6.11-4-12.22-5.91-18.37a17.46,17.46,0,0,1-1-8l5.29-5.11c0-1,.32-2.15-.08-2.87a66.36,66.36,0,0,1-6.07-16.21c-.87-3.4-2.56-6.59-3.86-9.88a8.56,8.56,0,0,1-.43-5.14l5.24-4,2.83-7.32a14.51,14.51,0,0,0-2.08-6.9,28.35,28.35,0,0,1-2.62-5.13,166.67,166.67,0,0,1-4.46-17.75,35,35,0,0,1-.44-9.58,90.06,90.06,0,0,0-.11-9.73l5-4.61a7.73,7.73,0,0,0,.45-5.65c-1.55-5.35-1.62-10.77-1.45-16.26a33.6,33.6,0,0,0-1.57-12.37,29.67,29.67,0,0,1-.83-16.15c3.5-2.91,3.5-2.92,8.42-3.84,4.16,5.43,5.35,7.69,6.82,12.43.57,1.83,1.35,3.6,2.07,5.39a32.54,32.54,0,0,1,2.18,11.31,3.85,3.85,0,0,1-2.26,4l-7.29-6c-2.46-.38-3.84.49-4,3.44,1.08,1.52,2.3,3.39,3.67,5.14a41.76,41.76,0,0,1,5.71,10,124.73,124.73,0,0,1,5.93,18.33c1.28,5.3,2.33,10.64.75,16-.68.54-1.29.52-1.78-.09-2.25-2.81-3.13-6.33-4.84-9.41a11.68,11.68,0,0,0-2.64-2.71,2.65,2.65,0,0,0-2.71.09c-.77.61-1.52,1.43-1.3,2.4a28.61,28.61,0,0,0,1.73,5.47,158.23,158.23,0,0,1,9.33,28.56c0,3.7,0,7.56-.19,11.41a8.1,8.1,0,0,1-.9,2.45,4,4,0,0,1-1.17.1c-1.21-.38-2.38-1.07-3.66-.24a3.72,3.72,0,0,0-1.72,4.18,6.61,6.61,0,0,0,.63,1.73A61.21,61.21,0,0,1,247,514.82c.9,4.74,2.3,9.38,2.69,14.21a3.61,3.61,0,0,1-1.19,3.45c-2.37.74-4.22-1.09-6.4-1.44a4.16,4.16,0,0,0-4.95,4.38,21.46,21.46,0,0,0,.42,3,13.88,13.88,0,0,0,2.51,1.08,6,6,0,0,1,3.77,2.78,39.8,39.8,0,0,1,2.25,4.26c1.14,2.3,2.13,4.69,3.39,6.92,2.25,4,3.36,8.35,4.63,12.66a8.65,8.65,0,0,1,.42,3.81c-.93,5.17-.38,10.24.62,15.32A3.78,3.78,0,0,1,254.75,587.09Zm3.12-89c-.62.67-.91.52-.71-.39.05-.22.29-.4.44-.6.15.08.42.16.43.26A1.11,1.11,0,0,1,257.87,498Zm2-8.24c.1-.39.22-.78.33-1.17a7.67,7.67,0,0,1,.52,1.15.87.87,0,0,1-.19.79C259.9,491,259.65,490.67,259.87,489.81Zm33.27,7.74c-.35,2.54-.36,5.13-.52,7.56-1.3,3.06-3.37,5.53-3.53,9-.13,2.79-1.51,5.51-2.41,8.49l1.38,5.7a12.81,12.81,0,0,1-.88,3.46c-2.37,4.24-3.83,8.84-5.6,13.61l-5.56,6.1c-1.61,2.64-1.69,5.75-3.61,8.07a2.94,2.94,0,0,0-.63,1.79c.14,5.94-2.89,11.17-3.76,16.88-.06.36-.88.67-1.39.86-.16.06-.64-.28-.73-.52a32.11,32.11,0,0,1-1.28-17.08c.84-4.42,2-8.8,2.57-13.26A42.85,42.85,0,0,1,273,532c.65-1.1,1.35-2.16,2.06-3.31a19,19,0,0,0-1-2.7,1.93,1.93,0,0,0-2.52-.74,9.85,9.85,0,0,0-3.05,2.21c-1.49,2.08-2.59,4.44-4,6.59A19.67,19.67,0,0,1,262,536.9c-.2.2-.6.21-.9.31-.26-.51-.71-1-.73-1.54a27.3,27.3,0,0,1,.1-4.8,281.23,281.23,0,0,1,7.21-34.92c1.09-4,2.85-7.86,4.3-11.78,1-2.7,2.41-5.28,2.57-8.33l-1.66-2.34-2.71.69c-3.47,4.63-5.61,10.06-10,13.89-.34-.48-.84-1-.87-1.45-.24-3.9.66-7.63,1.56-11.41,2.84-11.94,7.24-23.33,11.62-34.74.69-1.8,1.27-3.64,1.85-5.47a2.64,2.64,0,0,0-.64-2.63A1.17,1.17,0,0,0,273,432a15.63,15.63,0,0,0-2,.51,12.7,12.7,0,0,0-1.68,2.08,95.86,95.86,0,0,0-7,15.88,15.49,15.49,0,0,1-4.5,7.3,10.75,10.75,0,0,1-1.86,1c-.26-1.32-.6-2.55-.74-3.8-.39-3.51-.69-7-1-10.63l3.13-7.05-.72-7.73c1.55-5.9,2.91-11.86,4.71-17.69,1.7-5.52,3.86-10.89,5.68-15.93-.49-2.32-1.58-3.22-3.56-3-2.38,1.17-3.59,3.54-5.12,5.54a47.32,47.32,0,0,0-3.27,5.67c-1.37-.24-2-1.1-1.91-2,.88-7,1.62-14,4.57-20.62,2.37-5.27,4.46-10.68,6.7-16,.11-.27.45-.45.68-.68,1.48-1.11,3-.53,4.78-.15.52.59,1.44,1.19,1.73,2a21.38,21.38,0,0,1,1.3,5.58c.36,6.08.51,12.18.74,18.25.94,2.83,4,3.06,5.83,4.77a6.87,6.87,0,0,1,1.05,1.59c.77,2.45,1.55,4.9,2.13,7.4.72,3.12,1.25,6.28,2,9.9-.75,6.23-1.57,12.92-2.33,19.62a5.06,5.06,0,0,0,1.87,4.56c.61.17,1.54.38,2.43.7a16.58,16.58,0,0,1,1.85.93c3.59,6,2.28,13,3.64,19.56-.77,2.51-1.71,4.93-2.21,7.43a54.79,54.79,0,0,0-.54,6.73,14.39,14.39,0,0,1-.35,3.81c-1.51,4.12-.17,6.84,3.7,8.58a7.92,7.92,0,0,1,1.51,1.18l.71,1.81C294.23,491.89,293.53,494.7,293.14,497.55Z"/><path class="cls-1" d="M43.37,157.61a43,43,0,0,0,15.7-2.4c1.12-1.28,1.9-2.31,2.83-3.18a5.09,5.09,0,0,1,1.72-.67c6.84,2.27,6.84,2.27,13.39,6.91.09,1.28.11,2.58.3,3.84a3.32,3.32,0,0,0,5,2.61c3.75-1.85,7.44-3.79,10.14-6.71.47-1.62.51-3-.49-3.92-2-1.85-2.74-4.28-3.67-6.67-.21-.54-.85-.91-1.29-1.36-3.6-1.31-6.54,3-10.53,1L74.85,142l-4.62-3.16c.06-7.05.54-13.71,3-20.17A46,46,0,0,0,75,110.18c1.36-8,3.23-15.81,6.65-23.13,2.58-5.52,4-11.57,7.63-16.62.53-.74.5-1.84.83-2.75,1.13-3.17,1.37-3.46,4.8-6.31.68,4.2-.57,8.22-1.33,11.81.91,2.61,2.37,3.6,4.61,3.16,1.25-.25,2.45-.7,4.32-1.25,2.87,2.67,6.72,2.23,10.59,1.73,1.59-.21,3.2-.35,5.27-.57A69.2,69.2,0,0,0,126.52,72c2.77-1.89,6.25-1.56,8.78-3.28a6.92,6.92,0,0,0,2.41-4.28,4.58,4.58,0,0,0-2.11-5,4.73,4.73,0,0,0-5.37.64,19.08,19.08,0,0,0-2.38,3,2.48,2.48,0,0,1-2.42,1.28l-7-4.09c-1.23-1.88-.75-4.21-2.78-5.28a10.63,10.63,0,0,0-6.07-.53L107,56.71l.15,2.73c1.29,2,3.33,2.26,5,3.13.87,2.3.87,2.3-1.43,3.53-4.14-1.11-7.49-3.32-9.2-7.4l.32-6.61c4,.79,7.27-.7,10.1-3.05.22-2.2-.55-3.43-2.26-4.11a8.68,8.68,0,0,0-5.63-.65,24.28,24.28,0,0,1-2.8.43,20.15,20.15,0,0,1-4-6.54l1.38-5.39-1.33-4.09c1.17-.91,2.44-1.79,3.6-2.81a3.78,3.78,0,0,0,1.26-3.52L100,18a21,21,0,0,1,1.36-3.4c1-1.73,2.84-2.53,4.7-3.15,6.53,1.84,6.53,1.83,12.79-.75a6,6,0,0,1,1-.22l5.09,2,1.78,5.86a32.2,32.2,0,0,0,4.41,1.81,15.6,15.6,0,0,0,7.65-.12,3.28,3.28,0,0,0,2.54-3c-.65-3.75-4.12-6-6.12-9.13-1.86-.9-3.65-1.65-5.32-2.59s-3.22-2.06-4.75-3.05l-2.74.28c-2.05.78-2.64,3.25-4.9,3.22-3.4-.33-3.62-4.4-6.41-5.44a6.65,6.65,0,0,0-.92-.21c-2.44-.2-4,2-6.3,2.32L98.9,1.81C94.7,3.27,95,7.36,92.42,9.74l-5.22,1a3.51,3.51,0,0,0-1.08,4.43c.64,1.39,1.5,2.68,2.24,4-.64.55-1.06,1.22-1.59,1.33-1.56.29-3.2.2-4.75.56A5.6,5.6,0,0,0,77.58,25c.29,3.33,2.52,7,.41,11.47l-2.85,3.91a4.67,4.67,0,0,0,1.38,5.43,40.82,40.82,0,0,1,3.62,3.15,7.73,7.73,0,0,1,1,2.46l-1.55,5.43c.51,1.59,1.08,2.61,2.54,3A14.37,14.37,0,0,1,84.78,61a9.46,9.46,0,0,1,0,2.91c-1.38,3.94-2.73,7.91-5.19,11.38-.74,1-1.74,2.16-1.86,3.32-.36,3.35-2.23,6-3.65,8.81a35.9,35.9,0,0,0-2.12,6.38c-1.29,4.65-2.49,9.32-3.71,14-.49,1.87-1,3.73-1.39,5.62-1.45,6.92-3.08,13.79-3.53,20.91-.24,3.81-2.89,6.4-6.56,7.58-1.82.58-3.74.69-5.56,1.5a53.74,53.74,0,0,1-6.39,2,28.75,28.75,0,0,0-3.06,10.13C41.59,156.57,42.45,157.19,43.37,157.61ZM99.5,49.35a3.08,3.08,0,0,1,2,2.4c-1.29-.43-2.64-.77-3.47-2C98.51,49.58,99.09,49.21,99.5,49.35Z"/><path class="cls-1" d="M144.67,119c-2.7-.6-4.56.26-5.68,2.31-2.16,4-2.45,8.66-5,12.49-.31.48-.18,1.24-.29,2.15.47,1.57,1,3.38,1.56,5.19.37,1.23.15-.28-.47.85-1.83,1.24-4.52.68-6.28,3.3-.3,1.31-.68,3.18-1.16,5s-1.41,3.61-1.11,6.06c.15.49.37,1.42.72,2.31a8.22,8.22,0,0,0,7.3,5.44c1.89.2,3.8.25,5.68.56.39.06.65,1,1,1.46-1,2-2.59,3.71-2.67,6.42.49.46,1,1.4,1.81,1.61a17,17,0,0,0,3.76.27l3.74,2c2.05.61,3.79-.14,5.14,1.16l2.64,4.46c1.85,1.34,3.35,1.55,5,.78,1.86-1.16,2.92-3.44,5.81-4,3.17-.23,6,2.76,9.65,2.61l2.08-1.05c.47-1.17,1.08-2.63,1.65-4.11,1.2-3.12,3.05-5.63,6.33-6.85a5,5,0,0,0,1.65-1,7.27,7.27,0,0,0,1-1.54l-.58-5.07c.68-2.12,2.26-3.1,2.23-5,.45-3-3.1-4.77-2.71-7.84,1.46-1.89,4.38-1.14,5.66-3.26a6.36,6.36,0,0,0,.39-5.58,51.31,51.31,0,0,0-2.65-6.19,6.58,6.58,0,0,0-1.68-1.67c-2.23-.79-4.06,1.16-5.89-.18-.72-2.42.05-5.16-2.07-8.25-.92-2-3.79-1.46-6.25-1.89l-4.3-3.4c-3.38,0-5.68,2-8.35,3-.48.18-1.14-.09-1.72-.16-1.26-3.08-1.61-3.61-3.6-5.41-3.6-.46-5.24,3.59-9.25,3.77C147.13,119.6,145.91,119.23,144.67,119Zm-4.48,27.53c-1.71.13-2.11-.41-2.4-2.93,2.34-.39,4.67-1,7-.13l-1,2.5C142.59,146.12,141.4,146.39,140.19,146.49Zm12.54-17a13.45,13.45,0,0,0,6.59-1c2.52-1.16,5.09-.69,7.49.3,3,1.22,5.7,2.75,7.58,5.66,1,1.53,2.85,2.5,4.58,3.94a18.83,18.83,0,0,1-.18,3.54c-.42,1.87-1.12,3.68-1.78,5.77,1.5,4.79,1.55,9.91,1.49,15.05a2.14,2.14,0,0,1-1.69,2.05,2.62,2.62,0,0,1-3-1.77c-.22-.93-.31-1.89-.52-2.83a9.35,9.35,0,0,0-.76-2.76,5,5,0,0,0-2-1.88,3.17,3.17,0,0,0-4.25,2.53,10.51,10.51,0,0,0,2,7.23,7.47,7.47,0,0,1,1.27,2.48,1.89,1.89,0,0,1-.79,1.54c-2,1.3-4.19,1.27-6.63.4a11.85,11.85,0,0,1-.69-2.54c-.09-1.58.1-3.18.06-4.77a2.64,2.64,0,0,0-2.86-2c-.9.31-1.77.71-2.65,1.08s-1.73.81-2.61,1.15a3.16,3.16,0,0,1-1,0l-2.89-4.91-5.9,1-2.54-2.95c3.68-3.29,9.1-3.82,11.47-8.35.42-2.14-.34-3.79-2.25-5.23l-5.18,1c.78-2.76-.7-5.48-.33-8.37l3.8-4.86C150.18,129,151.46,129.38,152.73,129.46Z"/><path class="cls-1" d="M240.86,208.09l2.62,5.11a62.27,62.27,0,0,0-1.29,6.52A21.06,21.06,0,0,1,236.57,232c-2.18.69-4.61,1.46-7,2.2-.18.05-.44-.15-.58-.21.21-1.9.49-3.8.61-5.7a3.33,3.33,0,0,0-2.18-2.88,2.76,2.76,0,0,0-2.73.38c-1.44,1.23-2.74,2.64-4.08,4a10.47,10.47,0,0,1-1.83.55c-3.38.37-5.09,2.48-5.8,5.56a19.22,19.22,0,0,0-.37,3.8,3.77,3.77,0,0,0,2.31,2.84,5,5,0,0,0,1.86.38c4.27-.86,7.52.73,10.14,4a3.58,3.58,0,0,0,.74.61,4.43,4.43,0,0,0,4.49.83c1.77-1.29,3-3.19,5.39-3.83,3.64-1,5.94-3.67,7.64-6.9,1.35-2.56,2.73-5.17,3-8.08a16.84,16.84,0,0,1,2.92-8c1-1.53,1.29-3.6,1.7-5.47a5.54,5.54,0,0,0-1.31-5.41c-2.14-1.9-2.62-4.3-3.11-6.82-.16-.84-1-1.31-2.29-1.24C243.91,203.91,241.76,205.3,240.86,208.09Z"/><path class="cls-1" d="M135.49,31.13a35.43,35.43,0,0,1-2.12,13.24c-.84,2.34-1.77,4.87-1.23,7.34a4.74,4.74,0,0,0,3.6,3.11c3.29.87,5.77-.15,7.25-3.08a36.24,36.24,0,0,0,1.35-3.44l4.56-3.48c1-3-1.49-5-1.61-7.68l.64-4.8-2-8a4.08,4.08,0,0,0-5.48-.92C137.47,25.12,135.37,27.48,135.49,31.13Z"/><path class="cls-1" d="M31.65,181.94a11.13,11.13,0,0,0,3.29,1.86,3,3,0,0,0,3.49-.88,39.6,39.6,0,0,1,6.7-8,2.69,2.69,0,0,0-.16-3.51c-1.4-1.31-2.92-2.5-4.27-3.86a13.57,13.57,0,0,1-1.56-2.47,32.4,32.4,0,0,0,1.34-3.62c.12-.46-.28-1.1-.58-1.58-.11-.18-.61-.23-.9-.18a14.23,14.23,0,0,0-6,3,6.13,6.13,0,0,0-2.42,5.14l1.65,4.83c-.78,2-1.47,3.46-1.89,5A3.89,3.89,0,0,0,31.65,181.94Z"/><path class="cls-1" d="M233.64,199.91a16.2,16.2,0,0,0,2.22.87c.64.23,2.49-.17,4.1-1.41,2.26-1.74,4.43-3.62,6.62-5.42a5.75,5.75,0,0,0-3-5.77c-1.38-.8-2.86-1.43-4.83-2.39l-5.21,1c-1.85.34-3.89-.46-5.79,1-1.77,1.88-2.52,4.13-.75,7C229.08,196.4,231.35,198.17,233.64,199.91Z"/><path class="cls-1" d="M87,178.06a5,5,0,0,0,4.16,4.56c2.82.36,5.66.58,8.49.84.29,0,.6-.18.9-.23,1.45-.24,2.47-2.72,1.5-3.82-1.65-1.89-3.36-3.72-5-5.53l1.41-3.64c-.38-3.19-2.67-4.19-5.23-4.84a6,6,0,0,0-6.7,2.33c-.67,1.67.41,3.11.49,4.65C87.15,174.27,87,176.17,87,178.06Z"/><path class="cls-1" d="M160.08,274.71c-1.89-.31-3.77-.65-5.63-1a7.5,7.5,0,0,0-1.79.7,14,14,0,0,0-2.11,1.94c-1.58,1.74-1.52,2.66.4,5,3.08.27,6.21.77,9,2.67a6,6,0,0,0,2.73.82,3.58,3.58,0,0,0,4.11-3.11c.22-2.31.14-4.51-2.5-6.38C163.21,275.18,161.64,275,160.08,274.71Z"/><path class="cls-1" d="M139.52,293.64a4.54,4.54,0,0,0-1.83,4.12,3,3,0,0,0,2.9,2,6.19,6.19,0,0,0,2.64-.83,4.08,4.08,0,0,0,1.87-3.14,3.4,3.4,0,0,0-1.33-3.34C142.1,291.85,140.76,292.56,139.52,293.64Z"/><path class="cls-1" d="M48.62,173a3.56,3.56,0,0,0,3.73,2.42c2,0,3.76-.6,4.52-2.74a4.36,4.36,0,0,0-3.25-4.23C50.64,168.57,49,170.13,48.62,173Z"/></g></g></svg>