<svg xmlns="http://www.w3.org/2000/svg" viewBox="0 0 22.17 22.17">
	<defs>
		<style>.insta-cls-1{fill:#fff;}</style>
	</defs>
	<title>insta</title>
	<path class="insta-cls-1" d="M11.08,2c3,0,3.31,0,4.48.06a6.13,6.13,0,0,1,2.06.38,3.43,3.43,0,0,1,1.27.83,3.43,3.43,0,0,1,.83,1.27,6.13,6.13,0,0,1,.38,2.06c.05,1.17.06,1.52.06,4.48s0,3.31-.06,4.48a6.13,6.13,0,0,1-.38,2.06,3.67,3.67,0,0,1-2.1,2.1,6.13,6.13,0,0,1-2.06.38c-1.17.05-1.52.06-4.48.06s-3.31,0-4.48-.06a6.13,6.13,0,0,1-2.06-.38,3.43,3.43,0,0,1-1.27-.83,3.43,3.43,0,0,1-.83-1.27,6.13,6.13,0,0,1-.38-2.06C2,14.4,2,14,2,11.08s0-3.31.06-4.48a6.13,6.13,0,0,1,.38-2.06,3.43,3.43,0,0,1,.83-1.27,3.43,3.43,0,0,1,1.27-.83,6.13,6.13,0,0,1,2.06-.38C7.77,2,8.12,2,11.08,2m0-2c-3,0-3.39,0-4.57.07A8.14,8.14,0,0,0,3.82.58a5.43,5.43,0,0,0-2,1.28,5.43,5.43,0,0,0-1.28,2A8.14,8.14,0,0,0,.07,6.51C0,7.7,0,8.07,0,11.08s0,3.39.07,4.57a8.14,8.14,0,0,0,.52,2.69,5.43,5.43,0,0,0,1.28,2,5.43,5.43,0,0,0,2,1.28,8.14,8.14,0,0,0,2.69.52c1.18.05,1.56.07,4.57.07s3.39,0,4.57-.07a8.14,8.14,0,0,0,2.69-.52,5.67,5.67,0,0,0,3.24-3.24,8.14,8.14,0,0,0,.52-2.69c.05-1.18.07-1.56.07-4.57s0-3.39-.07-4.57a8.14,8.14,0,0,0-.52-2.69,5.43,5.43,0,0,0-1.28-2,5.43,5.43,0,0,0-2-1.28A8.14,8.14,0,0,0,15.65.07C14.47,0,14.1,0,11.08,0Z"/>
	<path class="insta-cls-1" d="M11.08,5.39a5.69,5.69,0,1,0,5.69,5.69A5.69,5.69,0,0,0,11.08,5.39Zm0,9.39a3.69,3.69,0,1,1,3.69-3.69A3.69,3.69,0,0,1,11.08,14.78Z"/>
	<circle class="insta-cls-1" cx="17" cy="5.17" r="1.33"/>
</svg>