<svg xmlns="http://www.w3.org/2000/svg" viewBox="0 0 368.31 198.61">
	<defs>
		<style>.nch-logo-cls-1{fill:#5f362e;}</style>
	</defs>
	<title>nch-logo</title>
		<path class="nch-logo-cls-1" d="M172.94,198.14c1.34-2.1,6.58-10.76,7.25-12.64l-.11-.13c-2.42,0-4.8.09-7.16.24l-.13-.17a3.32,3.32,0,0,0,.09-.86,3.19,3.19,0,0,0-.09-.82l.22-.13a28.69,28.69,0,0,0,4.65.26,23.74,23.74,0,0,0,4.33-.26l.13.35a145.77,145.77,0,0,0-7.31,14.32l-.15.09a2.82,2.82,0,0,0-.74-.09,3.38,3.38,0,0,0-.89.09Z"/>
		<path class="nch-logo-cls-1" d="M172.9,198.61l-.18-.5.05-.08c1.46-2.29,6.35-10.39,7.18-12.46-2.3,0-4.6.08-7,.24h-.11l-.25-.34,0-.09a3.05,3.05,0,0,0,.08-.81,2.87,2.87,0,0,0-.08-.77l0-.15.41-.25.08,0a27.71,27.71,0,0,0,4.45.25h.17a23.87,23.87,0,0,0,4.29-.26l.16,0,.22.59,0,.08a145.29,145.29,0,0,0-7.3,14.3l0,.06-.28.16-.08,0a2.64,2.64,0,0,0-.69-.08,3.21,3.21,0,0,0-.84.08Zm1-.52a3,3,0,0,1,.7.07l0,0a145.71,145.71,0,0,1,7.25-14.2l0-.11a25.5,25.5,0,0,1-4.2.23h-.17a29.45,29.45,0,0,1-4.45-.24l0,0a4,4,0,0,1,.06.73,4,4,0,0,1-.07.82h0c2.43-.16,4.75-.23,7.07-.23h.09l.24.29,0,.11c-.68,1.92-5.9,10.52-7.2,12.58A4.13,4.13,0,0,1,173.92,198.09Z"/>
		<path class="nch-logo-cls-1" d="M188.67,196.67v.09c.6,0,1.36.06,2.1.06a26.59,26.59,0,0,0,4.59-.32l.13.13a2.51,2.51,0,0,0-.13.76,2.1,2.1,0,0,0,.13.91l-.19.09c-1.43,0-2.88-.09-4.31-.09s-3,0-4.48.09v-.48l1.08-1.13c3.29-3.42,5.3-5.82,5.3-8.55,0-2.21-1.28-3.05-2.92-3.05-2.1,0-2.42,1.17-2.84,2.58l-.48-.26.43-1.8c.24-1,.3-1.25,1.69-1.77a5.21,5.21,0,0,1,1.67-.3c1.86,0,4.13,1.06,4.13,3.74a8.74,8.74,0,0,1-2.49,5.41Z"/>
		<path class="nch-logo-cls-1" d="M186.3,198.58v-.76l1.14-1.18c3.07-3.19,5.25-5.66,5.25-8.41,0-2.36-1.48-2.85-2.72-2.85-1.93,0-2.23,1-2.64,2.4l-.07.23-.23-.08-.61-.33.47-1.94c.26-1.07.38-1.38,1.81-1.91a5.37,5.37,0,0,1,1.74-.32c2.09,0,4.33,1.23,4.33,3.94a8.75,8.75,0,0,1-2.54,5.54L189,196.58c.52,0,1.13,0,1.76,0a26.85,26.85,0,0,0,4.55-.32l.1,0,.29.29,0,.11a2.31,2.31,0,0,0-.12.7,2,2,0,0,0,.11.82l.09.18-.42.19h0l-1.73,0c-.85,0-1.72,0-2.58,0-1.7,0-3.12,0-4.47.09Zm4.68-.49c.86,0,1.74,0,2.59,0l1.66,0a2.9,2.9,0,0,1-.07-.8,2.55,2.55,0,0,1,.1-.67,27.71,27.71,0,0,1-4.49.3c-.77,0-1.52,0-2.11-.06h-.18v-.35l0-.06,3.42-3.89a8.37,8.37,0,0,0,2.44-5.28c0-2.44-2-3.55-3.94-3.55a5.06,5.06,0,0,0-1.6.29c-1.29.48-1.33.66-1.57,1.64l-.4,1.65.13.07c.39-1.32.85-2.48,3-2.48a2.9,2.9,0,0,1,3.12,3.25c0,2.9-2.22,5.43-5.36,8.68l-1,1.07v.19C188,198.12,189.36,198.09,191,198.09Z"/>
		<path class="nch-logo-cls-1" d="M128.36.58V22.86h-2.7L111.51,5.77h0V22.86h-3V.58h2.7l14.16,17.09h0V.58Z"/>
		<path class="nch-logo-cls-1" d="M153.8,0c6.89,0,12.42,5.22,12.42,11.67s-5.53,11.77-12.42,11.77-12.35-5.22-12.35-11.77S146.87,0,153.8,0Zm0,20.81a9.18,9.18,0,0,0,9.31-9.14,9.28,9.28,0,1,0-9.31,9.14Z"/>
		<path class="nch-logo-cls-1" d="M179.27,22.86V.58h12.28c2.87,0,4.84.78,6.24,2.25A6.25,6.25,0,0,1,199.5,7.2c0,3-2,5.36-5.18,6.21l5.49,9.45h-3.38l-5.12-9.07h-9.08v9.07Zm3-19.65v7.95H192.3a4.08,4.08,0,0,0,4.26-4,3.78,3.78,0,0,0-1.06-2.59,5.19,5.19,0,0,0-4-1.37Z"/>
		<path class="nch-logo-cls-1" d="M209.93.58H230.2V3.21h-8.63V22.86h-3V3.21h-8.66Z"/>
		<path class="nch-logo-cls-1" d="M242.19,22.86V.58h3V9.45h13.68V.58h2.93V22.86h-2.93V12.08H245.16V22.86Z"/>
		<path class="nch-logo-cls-1" d="M22.92,70.16A15.21,15.21,0,0,1,12.25,74.6C5,74.6,0,69.34,0,62.86a11.71,11.71,0,0,1,12.11-11.7A15.24,15.24,0,0,1,22.31,55l-2,2a12.27,12.27,0,0,0-8.12-3.17A9.09,9.09,0,1,0,12.28,72a12.17,12.17,0,0,0,8.67-3.75Z"/>
		<path class="nch-logo-cls-1" d="M45.77,51.16c6.89,0,12.42,5.22,12.42,11.67S52.66,74.6,45.77,74.6,33.42,69.37,33.42,62.82,38.85,51.16,45.77,51.16Zm0,20.81a9.09,9.09,0,1,0,0-18.18,9.09,9.09,0,1,0,0,18.18Z"/>
		<path class="nch-logo-cls-1" d="M71.25,74V51.74H83.53c2.87,0,4.84.78,6.24,2.25a6.25,6.25,0,0,1,1.71,4.37c0,3-2,5.36-5.18,6.21L91.78,74H88.4l-5.12-9.07H74.22V74Zm3-19.65v7.95H84.28a4.08,4.08,0,0,0,4.26-4,3.78,3.78,0,0,0-1.06-2.59,5.19,5.19,0,0,0-4-1.37Z"/>
		<path class="nch-logo-cls-1" d="M124.83,51.74V74h-2.69L108,56.92h0V74h-3V51.74h2.7l14.16,17.09h0V51.74Z"/>
		<path class="nch-logo-cls-1" d="M151.87,63.61h-9v7.78h15.73V74H139.9V51.74h17.91v2.63H142.86V61h9Z"/>
		<path class="nch-logo-cls-1" d="M171.17,74V51.74h12.28c2.87,0,4.84.78,6.24,2.25a6.25,6.25,0,0,1,1.71,4.37c0,3-2,5.36-5.18,6.21L191.71,74h-3.38l-5.12-9.07h-9.08V74Zm3-19.65v7.95h10.06a4.08,4.08,0,0,0,4.26-4,3.78,3.78,0,0,0-1.06-2.59,5.19,5.19,0,0,0-4-1.37Z"/>
		<path class="nch-logo-cls-1" d="M219.4,74V51.74h3v8.87H236V51.74H239V74H236V63.24H222.37V74Z"/>
		<path class="nch-logo-cls-1" d="M251.08,74l10.34-22.28h2.8L274.55,74h-3.24l-3-6.69H257.15l-3,6.69Zm7.13-9.07h9l-4.4-9.72h-.2Z"/>
		<path class="nch-logo-cls-1" d="M305.18,51.74,294.81,74H292L281.68,51.74H285l8.39,18.56h.2L302,51.74Z"/>
		<path class="nch-logo-cls-1" d="M329.15,63.61h-9v7.78h15.73V74H317.18V51.74h17.91v2.63H320.15V61h9Z"/>
		<path class="nch-logo-cls-1" d="M368.31,51.74V74h-2.69L351.46,56.92h0V74h-3V51.74h2.7l14.16,17.09h0V51.74Z"/>
		<path class="nch-logo-cls-1" d="M102,108.34c1,2.76,2.06,5.46,3.16,8.14a45.55,45.55,0,0,0,1.73-7.18c0-.52-.15-.56-1.12-.62l-.06-.06v-.29l.06-.06c1,.06,1.14.06,1.45.06s.54,0,1.33-.06l.06.06v.29l-.06.06c-.49,0-.62.18-.8.85-1.06,3.85-2,7-2.48,9.07h-.68c-.92-2.71-2.1-5.47-3.26-8.19-1.09,2.74-2.21,5.48-3.24,8.19H97.4c-.56-2.51-1.18-5.09-1.77-7.66-.52-2.22-.59-2.25-1.51-2.25l-.06-.06v-.29l.06-.06c.56,0,1.14.06,1.89.06s1.38,0,1.73-.06l.06.06v.29l-.06.06c-.68,0-1.09,0-1.09.45,0,.62,1.2,5.62,1.54,7.39h0c1-2.76,2.28-5.4,3.25-8.19Z"/>
		<path class="nch-logo-cls-1" d="M105.46,118.81h-1l0-.13c-.86-2.54-2-5.15-3-7.68l0-.06-.75,1.88c-.77,1.93-1.57,3.92-2.31,5.86l0,.13h-1l0-.15c-.34-1.53-.7-3.07-1.07-4.63q-.35-1.51-.7-3c-.49-2.1-.5-2.1-1.32-2.1H94l-.17-.18v-.45l.18-.18h.09c.6,0,1.15.06,1.88.06s1.38,0,1.71-.06h.09l.19.18v.45l-.18.18h-.08c-.78,0-.89.05-.89.26,0,.37.5,2.62.91,4.43.19.86.37,1.68.51,2.31.38-1,.78-1.95,1.18-2.89.64-1.53,1.3-3.12,1.85-4.72l0-.13h.84l0,.13c.92,2.62,2,5.21,3,7.63a43,43,0,0,0,1.55-6.6c0-.34,0-.36-.93-.42h-.07l-.17-.17v-.45l.18-.18h.09c1,.06,1.13.06,1.44.06s.53,0,1.3-.06h.09l.2.18v.45l-.17.18h-.08c-.35,0-.44.06-.61.7-.35,1.27-.68,2.46-1,3.56-.62,2.2-1.15,4.11-1.49,5.51Zm-.7-.39h.39c.34-1.39.86-3.24,1.46-5.37.31-1.1.64-2.29,1-3.55.18-.65.34-.94.85-1h0c-.68,0-.91.05-1.2.05s-.43,0-1.32-.05h0c.81.05,1.18.11,1.18.81a46,46,0,0,1-1.74,7.24l-.17.51-.2-.49c-1-2.53-2.15-5.26-3.12-8h-.28c-.55,1.57-1.19,3.11-1.82,4.61-.47,1.13-1,2.29-1.39,3.45l0,.13h-.3l-.06-.16c-.13-.65-.37-1.75-.63-2.91-.55-2.48-.91-4.13-.91-4.51s.3-.58.68-.63l-1.12,0c-.68,0-1.2,0-1.75-.05h0c1,0,1.09.33,1.57,2.41q.35,1.52.7,3c.35,1.51.7,3,1,4.48H98c.72-1.9,1.51-3.85,2.26-5.74l.93-2.32.18-.45.4.94C102.81,113.33,103.9,115.9,104.76,118.41Zm-7.17-9.92h0Z"/>
		<path class="nch-logo-cls-1" d="M116.15,112.66c.82,0,1.65.06,2.47.06,1,0,2.14,0,3.16-.06v-2.41a8.63,8.63,0,0,0,0-1.14.59.59,0,0,0-.3-.33,4.68,4.68,0,0,0-.89-.09l-.06-.06v-.29l.06-.06c.62,0,1.23.06,1.85.06s1.24,0,1.86-.06l.06.06v.29l-.06.06a4.67,4.67,0,0,0-.89.09.6.6,0,0,0-.3.33,9,9,0,0,0,0,1.14v6.39a9,9,0,0,0,0,1.14.6.6,0,0,0,.3.33,4.37,4.37,0,0,0,.89.09l.06.06v.29l-.06.06c-.62,0-1.24-.06-1.86-.06s-1.23,0-1.85.06l-.06-.06v-.29l.06-.06a4.39,4.39,0,0,0,.89-.09.59.59,0,0,0,.3-.33,8.61,8.61,0,0,0,0-1.14v-3.34q-1.32,0-2.63,0-1.5,0-3,0v3.34a9,9,0,0,0,0,1.14.6.6,0,0,0,.3.33,4.37,4.37,0,0,0,.89.09l.06.06v.29l-.06.06c-.62,0-1.23-.06-1.85-.06s-1.24,0-1.86.06l-.06-.06v-.29l.06-.06a4.37,4.37,0,0,0,.89-.09.6.6,0,0,0,.3-.33,8.61,8.61,0,0,0,0-1.14v-6.39a8.63,8.63,0,0,0,0-1.14.6.6,0,0,0-.3-.33,4.66,4.66,0,0,0-.89-.09l-.06-.06v-.29l.06-.06c.62,0,1.24.06,1.86.06s1.23,0,1.85-.06l.06.06v.29l-.06.06a4.67,4.67,0,0,0-.89.09.6.6,0,0,0-.3.33,9,9,0,0,0,0,1.14Z"/>
		<path class="nch-logo-cls-1" d="M117.48,118.81h-.09l-.75,0c-.72,0-1.46,0-2.19,0l-.75,0h-.08l-.18-.18v-.45l.17-.17h.24a3.07,3.07,0,0,0,.67-.07s.17-.13.18-.18a8.56,8.56,0,0,0,0-1.1v-6.39a8.47,8.47,0,0,0,0-1.1c0-.05-.13-.16-.18-.18a3.14,3.14,0,0,0-.64-.07h-.27l-.17-.17v-.45l.18-.17h.08l.76,0c.73,0,1.45,0,2.17,0l.76,0h.08l.18.18v.45l-.17.17h-.27a3.07,3.07,0,0,0-.64.07s-.17.13-.18.18a8.07,8.07,0,0,0,0,1.1v2.22c.72,0,1.51.05,2.27.05,1,0,2,0,3-.05v-2.21a8.47,8.47,0,0,0,0-1.1c0-.05-.13-.16-.18-.18a3.14,3.14,0,0,0-.64-.07h-.27l-.17-.17v-.45l.18-.17h.08l.76,0q1.08,0,2.17,0l.76,0h.08l.18.18v.45l-.17.17h-.27a3,3,0,0,0-.64.07s-.17.12-.18.18a8.18,8.18,0,0,0,0,1.1v6.39a8.24,8.24,0,0,0,0,1.1c0,.05.13.16.18.18a3.14,3.14,0,0,0,.67.07h.24l.17.18v.44l-.18.18h-.09l-.75,0c-.74,0-1.47,0-2.19,0l-.75,0h-.08l-.18-.18v-.45l.17-.17h.24a3.07,3.07,0,0,0,.67-.07s.16-.13.18-.18a8.56,8.56,0,0,0,0-1.1v-3.15c-.77,0-1.57,0-2.44,0s-1.92,0-2.8,0v3.15a8.13,8.13,0,0,0,0,1.1c0,.05.13.16.18.18a3.15,3.15,0,0,0,.67.07h.24l.17.18v.44Zm-3.66-.42v0l.61,0c.75,0,1.49,0,2.23,0l.6,0v0h0a3.14,3.14,0,0,1-.79-.09.78.78,0,0,1-.43-.48,9.6,9.6,0,0,1,0-1.17V113.1h.19c.94,0,1.93,0,3,0s1.81,0,2.64,0H122v3.53a8.53,8.53,0,0,1,0,1.17.78.78,0,0,1-.44.49,3.16,3.16,0,0,1-.78.09l0,0,.6,0c.74,0,1.48,0,2.23,0l.6,0v0h0a3.15,3.15,0,0,1-.79-.09.78.78,0,0,1-.43-.48,8.92,8.92,0,0,1,0-1.17v-6.39a9,9,0,0,1,0-1.17.76.76,0,0,1,.44-.49,3.11,3.11,0,0,1,.75-.09h.06v0l-.61,0c-.74,0-1.48,0-2.21,0l-.61,0v0h.07a3.16,3.16,0,0,1,.76.09.77.77,0,0,1,.43.48,8.55,8.55,0,0,1,0,1.17v2.6h-.19c-1.09,0-2.15.06-3.17.06-.83,0-1.7,0-2.47-.06H116v-2.6a9.67,9.67,0,0,1,0-1.17.76.76,0,0,1,.44-.49,3.08,3.08,0,0,1,.75-.09h.06v0l-.61,0c-.73,0-1.47,0-2.21,0l-.62,0v0h.07a3.15,3.15,0,0,1,.76.09.77.77,0,0,1,.43.48,8.55,8.55,0,0,1,0,1.17v6.39a8.53,8.53,0,0,1,0,1.17.78.78,0,0,1-.44.49,3.16,3.16,0,0,1-.78.09Z"/>
		<path class="nch-logo-cls-1" d="M130.86,110.25a8.63,8.63,0,0,0,0-1.14.6.6,0,0,0-.3-.33,3.85,3.85,0,0,0-.83-.09l-.06-.06v-.29l.06-.06c.94,0,1.92.06,2.92.06,1.18,0,2.36,0,3.54-.06l.26.18-.12,1.74H136l-.06-.06a2.25,2.25,0,0,0-.35-1,8.7,8.7,0,0,0-1.94-.2,9,9,0,0,0-1.51.09c0,.44-.09,1.51-.09,2s0,1.19,0,1.79a12.25,12.25,0,0,0,1.39.06,11.05,11.05,0,0,0,2.32-.21l.06.06v.82l-.06.06a6.27,6.27,0,0,0-2-.14c-.71,0-1.33,0-1.56.06l-.17.17c0,.36,0,.74,0,1.11,0,.71,0,2.29.09,3.09A17.86,17.86,0,0,0,134,118a7,7,0,0,0,2-.23,4.67,4.67,0,0,0,.44-1.15h.36c0,.36-.12,1.12-.12,1.83l-.18.18c-1.17,0-2.35-.06-3.51-.06s-2.07,0-2.79.06l-.06-.06v-.29l.06-.06c.64-.11.64-.18.64-1.56Z"/>
		<path class="nch-logo-cls-1" d="M130.15,118.81l-.18-.18v-.44l.16-.17h.07c.47-.08.47-.08.47-1.36v-6.39a8.57,8.57,0,0,0,0-1.1c0-.05-.13-.16-.18-.18a2.7,2.7,0,0,0-.6-.07l-.25,0-.17-.17v-.45l.18-.18h.08l1.14,0c1.26,0,2.57,0,3.87,0l1.45,0h.06l.4.28-.14,2H136l-.17-.18v-.08a2.27,2.27,0,0,0-.27-.85,8.88,8.88,0,0,0-1.82-.17,10.33,10.33,0,0,0-1.33.06c0,.5-.08,1.41-.08,1.85s0,.81,0,1.21v.39c.24,0,.7,0,1.2,0a10.87,10.87,0,0,0,2.26-.2l.11,0,.2.2v1l-.21.22-.13-.06a7.13,7.13,0,0,0-1.9-.12c-.65,0-1.21,0-1.47.05l-.06.06V114c0,.25,0,.5,0,.75,0,.67,0,2.09.08,2.91.39,0,1.06.07,1.66.07a7.06,7.06,0,0,0,1.86-.19,4.32,4.32,0,0,0,.39-1l0-.15H137l0,.47c0,.4-.1,1-.1,1.56v.08l-.3.3h-.09c-1.06,0-2.21-.06-3.5-.06s-2.12,0-2.77.06Zm2.86-.46c1.27,0,2.39,0,3.43.06l.06-.06c0-.56.06-1.13.1-1.52v0a4.63,4.63,0,0,1-.41,1l0,.07-.08,0a7.29,7.29,0,0,1-2.06.24,18.41,18.41,0,0,1-1.87-.09l-.16,0v-.16c0-.78-.09-2.37-.09-3.1,0-.25,0-.51,0-.77l0-.42.27-.27h.07a15.57,15.57,0,0,1,1.58-.06,10.89,10.89,0,0,1,1.85.09v-.45a13.2,13.2,0,0,1-2.18.17,12.19,12.19,0,0,1-1.43-.06l-.15,0,0-.72c0-.41,0-.81,0-1.23s0-1.58.09-2v-.14l.14,0a8.56,8.56,0,0,1,1.55-.09,8.85,8.85,0,0,1,2,.2l.06,0,0,0a2.11,2.11,0,0,1,.33.77l.08-1.19-.11-.08-1.38,0c-1.3,0-2.62,0-3.89,0l-1,0v0h0a2.82,2.82,0,0,1,.72.09.77.77,0,0,1,.43.48,8.48,8.48,0,0,1,0,1.17v6.39c0,1.31,0,1.6-.7,1.73v0C131,118.37,131.86,118.35,133,118.35Z"/>
		<path class="nch-logo-cls-1" d="M143.67,110.25a9,9,0,0,0,0-1.14.6.6,0,0,0-.3-.33,4.67,4.67,0,0,0-.89-.09l-.06-.06v-.29l.06-.06c.2,0,.94.06,2.47.06.8,0,1.77-.06,2.36-.06a2.28,2.28,0,0,1,2.54,2.25,2.59,2.59,0,0,1-1.92,2.53l-.74.23-.06.09c.48.7,3.18,4.22,3.62,4.69l.59.12.06.06v.29l-.06.06c-.12,0-.56-.06-1-.06a9.29,9.29,0,0,0-1.1.06,32.78,32.78,0,0,0-3.85-5.31l.11-.24c1.53,0,3-.35,3-2.19,0-1.47-.86-2-2.22-2A4,4,0,0,0,145,109a11.48,11.48,0,0,0-.11,1.42v6.25a8.61,8.61,0,0,0,0,1.14.59.59,0,0,0,.3.33,4.39,4.39,0,0,0,.89.09l.06.06v.29l-.06.06c-.2,0-.94-.06-1.85-.06s-1.66.06-1.86.06l-.06-.06v-.29l.06-.06a4.37,4.37,0,0,0,.89-.09.6.6,0,0,0,.3-.33,9,9,0,0,0,0-1.14Z"/>
		<path class="nch-logo-cls-1" d="M149.09,118.82l-.06-.12a32.78,32.78,0,0,0-3.81-5.26l-.1-.09.21-.49h.13c2,0,2.83-.62,2.83-2s-.64-1.85-2-1.85a4.47,4.47,0,0,0-1.08.1,11.22,11.22,0,0,0-.09,1.27v6.25a8.51,8.51,0,0,0,0,1.1c0,.05.13.16.18.18a3.13,3.13,0,0,0,.67.07h.24l.17.17v.45l-.18.18h-.08l-.35,0c-.35,0-.88,0-1.5,0s-1.16,0-1.51,0l-.35,0h-.08l-.17-.18v-.44l.17-.18h.24a3.07,3.07,0,0,0,.67-.07s.17-.13.18-.18a8.34,8.34,0,0,0,0-1.1v-6.39a8.3,8.3,0,0,0,0-1.1c0-.05-.13-.16-.18-.18a3.16,3.16,0,0,0-.64-.07h-.27l-.17-.17v-.45l.18-.17h.37c.37,0,1.06,0,2.18,0,.43,0,.91,0,1.35,0l1,0a2.48,2.48,0,0,1,2.74,2.45,2.81,2.81,0,0,1-2.06,2.72l-.58.18c.67.93,2.94,3.89,3.44,4.46l.59.12.16.16v.45l-.18.18h-.08l-.25,0c-.2,0-.47,0-.74,0a9.07,9.07,0,0,0-1.08.06Zm-4.8-.47c.62,0,1.16,0,1.52,0H146v0h0a3.14,3.14,0,0,1-.79-.09.78.78,0,0,1-.43-.48,8.33,8.33,0,0,1,0-1.17v-6.25a11.71,11.71,0,0,1,.11-1.45l0-.11.11,0a4.12,4.12,0,0,1,1.33-.16c1.58,0,2.42.78,2.42,2.24,0,2.27-2.19,2.39-3.09,2.39h0a34,34,0,0,1,3.72,5.15c.34,0,.77,0,1,0s.58,0,.77,0h.07v0l-.56-.11,0,0c-.44-.47-3.15-4-3.64-4.71l-.08-.11.17-.26.81-.25a2.38,2.38,0,0,0,1.78-2.34,2.09,2.09,0,0,0-2.34-2.06l-1,0c-.45,0-.93,0-1.36,0-1.13,0-1.83,0-2.2,0h-.13v0h.06a3.11,3.11,0,0,1,.76.09.77.77,0,0,1,.43.48,9.09,9.09,0,0,1,0,1.17v6.39a9,9,0,0,1,0,1.17.78.78,0,0,1-.44.49,3.17,3.17,0,0,1-.78.09l0,0h.19C143.12,118.38,143.65,118.35,144.29,118.35Z"/>
		<path class="nch-logo-cls-1" d="M157.7,110.25a8.63,8.63,0,0,0,0-1.14.6.6,0,0,0-.3-.33,3.85,3.85,0,0,0-.83-.09l-.06-.06v-.29l.06-.06c.94,0,1.92.06,2.92.06,1.18,0,2.36,0,3.54-.06l.26.18-.12,1.74h-.24l-.06-.06a2.25,2.25,0,0,0-.35-1,8.7,8.7,0,0,0-1.94-.2A9,9,0,0,0,159,109c0,.44-.09,1.51-.09,2s0,1.19,0,1.79a12.25,12.25,0,0,0,1.39.06,11.05,11.05,0,0,0,2.32-.21l.06.06v.82l-.06.06a6.27,6.27,0,0,0-2-.14c-.71,0-1.33,0-1.56.06l-.17.17c0,.36,0,.74,0,1.11,0,.71,0,2.29.09,3.09a17.86,17.86,0,0,0,1.85.09,7,7,0,0,0,2-.23,4.67,4.67,0,0,0,.44-1.15h.36c0,.36-.12,1.12-.12,1.83l-.18.18c-1.17,0-2.35-.06-3.51-.06s-2.07,0-2.79.06l-.06-.06v-.29l.06-.06c.64-.11.64-.18.64-1.56Z"/>
		<path class="nch-logo-cls-1" d="M157,118.81l-.18-.18v-.44L157,118H157c.47-.08.47-.08.47-1.36v-6.39a8.47,8.47,0,0,0,0-1.1c0-.05-.13-.16-.18-.18a2.63,2.63,0,0,0-.6-.07l-.25,0-.17-.17v-.45l.18-.18h.08l1.14,0c1.26,0,2.57,0,3.87,0l1.45,0H163l.4.28-.14,2h-.51l-.17-.18v-.08a2.26,2.26,0,0,0-.27-.85,8.88,8.88,0,0,0-1.82-.17,10.34,10.34,0,0,0-1.33.06c0,.5-.08,1.42-.08,1.85s0,.82,0,1.23v.38c.24,0,.7,0,1.2,0a10.86,10.86,0,0,0,2.26-.2l.11,0,.2.2v1l-.21.22-.13-.06a7.13,7.13,0,0,0-1.9-.12c-.65,0-1.21,0-1.47.05l-.06.06V114c0,.25,0,.51,0,.76,0,.67,0,2.09.08,2.91.39,0,1.06.07,1.66.07a7.36,7.36,0,0,0,1.86-.19,4.33,4.33,0,0,0,.39-1l0-.15h.73l0,.47c0,.4-.1,1-.1,1.56v.08l-.3.3h-.09c-1.06,0-2.21-.06-3.51-.06s-2.12,0-2.77.06Zm2.86-.46c1.27,0,2.39,0,3.43.06l.06-.06c0-.56.06-1.13.1-1.52v0a4.67,4.67,0,0,1-.41,1l0,.07-.08,0a7.3,7.3,0,0,1-2.06.24,18.43,18.43,0,0,1-1.87-.09l-.16,0v-.16c0-.79-.09-2.38-.09-3.1,0-.26,0-.52,0-.78l0-.41.27-.27h.07a15.57,15.57,0,0,1,1.58-.06,10.89,10.89,0,0,1,1.85.09v-.45a13.2,13.2,0,0,1-2.18.17,11.86,11.86,0,0,1-1.43-.07l-.15,0,0-.7c0-.41,0-.82,0-1.24s0-1.57.09-2v-.14l.14,0a8.56,8.56,0,0,1,1.55-.09,8.85,8.85,0,0,1,2,.2l.06,0,0,0a2.12,2.12,0,0,1,.33.77l.08-1.19-.11-.08-1.38,0c-1.3,0-2.62,0-3.89,0l-1,0v0h0a2.77,2.77,0,0,1,.72.09.76.76,0,0,1,.43.48,8.55,8.55,0,0,1,0,1.17v6.39c0,1.31,0,1.6-.7,1.73v0C157.85,118.37,158.7,118.35,159.85,118.35Z"/>
		<path class="nch-logo-cls-1" d="M181.69,110.25a9,9,0,0,0,0-1.14.6.6,0,0,0-.3-.33,3.8,3.8,0,0,0-.8-.09l-.06-.06v-.29l.06-.06c.38,0,1.21.06,3,.06,1.18,0,2.36,0,3.18-.06l.26.18-.12,1.89h-.24l-.06-.06a2.56,2.56,0,0,0-.35-1.18,6.33,6.33,0,0,0-1.71-.2,6,6,0,0,0-1.45.13c0,.59-.09,1.82-.09,2.53s0,1.65,0,1.91a3.64,3.64,0,0,0,1.33.14,10.53,10.53,0,0,0,2.15-.21l.06.06v.82l-.06.06a5.6,5.6,0,0,0-1.82-.14c-.88,0-1.36,0-1.66,0,0,.8,0,1.6,0,2.38a8.61,8.61,0,0,0,0,1.14.59.59,0,0,0,.3.33,7.36,7.36,0,0,0,1.17.09l.06.06v.29l-.06.06c-.2,0-1.21-.06-2.12-.06s-1.58.06-1.77.06l-.06-.06v-.29l.06-.06a3.56,3.56,0,0,0,.8-.09.6.6,0,0,0,.3-.33,9,9,0,0,0,0-1.14Z"/>
		<path class="nch-logo-cls-1" d="M184.52,118.81h-.08l-.42,0c-.43,0-1.09,0-1.7,0s-1.12,0-1.44,0l-.33,0h-.08l-.18-.18v-.45l.17-.17h.22a2.56,2.56,0,0,0,.6-.07s.17-.13.18-.18a8.15,8.15,0,0,0,0-1.1v-6.39a8.07,8.07,0,0,0,0-1.1c0-.05-.13-.16-.18-.18a2.57,2.57,0,0,0-.57-.07h-.25l-.17-.17v-.45l.18-.18h.26c.44,0,1.26.05,2.79.05.79,0,1.59,0,2.27,0l.9,0h.06l.4.28-.14,2.19h-.51l-.18-.17v-.08a2.62,2.62,0,0,0-.27-1,6.44,6.44,0,0,0-1.59-.17,6.55,6.55,0,0,0-1.27.09c0,.6-.08,1.69-.08,2.37s0,1.42,0,1.76a4.28,4.28,0,0,0,1.15.08,10.36,10.36,0,0,0,2.09-.2l.11,0,.2.2v1l-.21.22-.13-.06a6.09,6.09,0,0,0-1.73-.12c-.71,0-1.17,0-1.47,0,0,.71,0,1.45,0,2.19a8.42,8.42,0,0,0,0,1.1c0,.05.13.16.18.18a5.25,5.25,0,0,0,.88.07h.31l.17.17v.45Zm-2.2-.46c.62,0,1.28,0,1.72,0h.26v0h-.09a4.3,4.3,0,0,1-1-.09.78.78,0,0,1-.43-.48,8.41,8.41,0,0,1,0-1.17c0-.81,0-1.61,0-2.38v-.17l.17,0c.31,0,.82,0,1.68,0a9.45,9.45,0,0,1,1.68.08v-.45a12.27,12.27,0,0,1-2,.17,3.78,3.78,0,0,1-1.4-.15l-.11,0v-.12c0-.28,0-1.33,0-1.93s0-2,.09-2.54v-.14l.13,0a6.12,6.12,0,0,1,1.51-.14,6.69,6.69,0,0,1,1.77.21l.05,0,0,0a2.17,2.17,0,0,1,.34.85l.08-1.28-.11-.08-.83,0c-.69,0-1.48,0-2.28,0-1.53,0-2.36,0-2.8-.05h0v0h0a2.7,2.7,0,0,1,.69.09.76.76,0,0,1,.43.48,8.92,8.92,0,0,1,0,1.17v6.39a8.83,8.83,0,0,1,0,1.17.78.78,0,0,1-.44.49,2.73,2.73,0,0,1-.71.09v0h.17C181.16,118.38,181.68,118.35,182.31,118.35Z"/>
		<path class="nch-logo-cls-1" d="M200.63,117.12c.39,1,.47,1,1.27,1.07l.06.06v.29l-.06.06c-.39,0-1.21-.06-1.76-.06s-1.23,0-1.82.06l-.06-.06v-.29l.06-.06c.54,0,1.06-.06,1.06-.39a1.66,1.66,0,0,0-.17-.52l-1-2.59c-.63,0-1.26,0-1.89,0s-1.27,0-1.91,0l-.36.88a15.26,15.26,0,0,0-.8,2.24c.15.29.32.32,1.11.38l.06.06v.29l-.06.06c-.8,0-1.12-.06-1.45-.06-.54,0-1.09,0-1.62.06l-.06-.06v-.29l.06-.06c.79-.06.88-.2,1-.44a13.84,13.84,0,0,0,1-1.82l2.74-6.4c.3-.7.26-.68.5-1.29H197a5.4,5.4,0,0,0,.27.79Zm-5.95-3c.57,0,1.14,0,1.71,0s1.11,0,1.65,0l-1.63-4Z"/>
		<path class="nch-logo-cls-1" d="M194.46,118.81h-.09c-.8,0-1.11-.06-1.44-.06s-.65,0-1,0l-.64,0h-.09l-.18-.18v-.45l.17-.17h.07c.7-.05.75-.15.86-.34a13.85,13.85,0,0,0,.94-1.8l2.74-6.4c.18-.4.23-.56.3-.75s.1-.28.2-.53l0-.12h.81l0,.14a5.33,5.33,0,0,0,.26.77l3.32,8.08c.36.9.38.9,1.1.95H202l.17.17v.45l-.18.18-.46,0c-.42,0-1,0-1.37,0-.58,0-1.27,0-1.81.06h-.09l-.18-.18v-.44l.16-.17.2,0c.32,0,.76-.06.76-.19a1.22,1.22,0,0,0-.11-.35l0-.09-.94-2.47c-1.18-.05-2.35-.05-3.53,0l-.32.76a16.38,16.38,0,0,0-.78,2.13c.08.13.2.16.91.22h.07l.17.17v.45Zm-3-.43v0l.49,0c.33,0,.66,0,1,0s.61,0,1.32.05v0c-.66-.05-.94-.09-1.14-.47l0-.06v-.06a16.52,16.52,0,0,1,.82-2.29l.41-1h.12c1.28-.06,2.53-.06,3.82,0h.13l1.07,2.79a1.4,1.4,0,0,1,.15.51c0,.49-.57.54-1.12.58v0c.52,0,1.14-.05,1.68-.05s1,0,1.39,0h.23v0c-.78-.07-.92-.22-1.32-1.19l-3.32-8.08a5.4,5.4,0,0,1-.24-.67h-.25c-.07.17-.11.29-.15.39s-.13.36-.31.78l-2.74,6.4a13.9,13.9,0,0,1-1,1.84C192.32,118.17,192.16,118.32,191.44,118.38Zm5-4.06-1.18,0-.82,0,2-4.66,1.92,4.66-.78,0Zm-1.41-.43h.24c.76,0,1.54,0,2.32,0h.21l-1.35-3.27Z"/>
		<path class="nch-logo-cls-1" d="M208.31,110.25a9,9,0,0,0,0-1.14.6.6,0,0,0-.3-.33,4.67,4.67,0,0,0-.89-.09l-.06-.06v-.29l.06-.06c.2,0,.94.06,2.47.06.8,0,1.77-.06,2.36-.06a2.28,2.28,0,0,1,2.54,2.25,2.59,2.59,0,0,1-1.92,2.53l-.74.23-.06.09c.48.7,3.18,4.22,3.62,4.69l.59.12.06.06v.29l-.06.06c-.12,0-.56-.06-1-.06a9.29,9.29,0,0,0-1.1.06,32.78,32.78,0,0,0-3.85-5.31l.11-.24c1.53,0,3-.35,3-2.19,0-1.47-.86-2-2.22-2a4,4,0,0,0-1.26.15,11.48,11.48,0,0,0-.11,1.42v6.25a8.61,8.61,0,0,0,0,1.14.59.59,0,0,0,.3.33,4.39,4.39,0,0,0,.89.09l.06.06v.29l-.06.06c-.2,0-.94-.06-1.85-.06s-1.66.06-1.86.06l-.06-.06v-.29l.06-.06a4.37,4.37,0,0,0,.89-.09.6.6,0,0,0,.3-.33,9,9,0,0,0,0-1.14Z"/>
		<path class="nch-logo-cls-1" d="M213.72,118.82l-.06-.12a32.7,32.7,0,0,0-3.81-5.26l-.1-.09.21-.49h.13c2,0,2.83-.62,2.83-2s-.64-1.85-2-1.85a4.47,4.47,0,0,0-1.08.1,11.07,11.07,0,0,0-.09,1.27v6.25a8.07,8.07,0,0,0,0,1.1c0,.05.13.16.18.18a3.13,3.13,0,0,0,.67.07h.24l.17.17v.45l-.18.18h-.08l-.35,0c-.35,0-.88,0-1.5,0s-1.16,0-1.51,0l-.35,0H207l-.17-.18v-.44L207,118h.24a3.08,3.08,0,0,0,.67-.07.44.44,0,0,0,.18-.18,8,8,0,0,0,0-1.1v-6.39a7.81,7.81,0,0,0,0-1.1c0-.05-.13-.16-.18-.18a3.16,3.16,0,0,0-.64-.07H207l-.17-.17v-.45l.17-.17h.37c.37,0,1.06,0,2.18,0,.43,0,.91,0,1.35,0l1,0a2.48,2.48,0,0,1,2.74,2.45,2.81,2.81,0,0,1-2.06,2.72l-.58.18c.66.92,2.94,3.89,3.44,4.46l.59.12.16.16v.45l-.18.18h-.08l-.25,0c-.2,0-.47,0-.74,0a9.06,9.06,0,0,0-1.07.06Zm-4.8-.47c.62,0,1.16,0,1.52,0h.19v0h0a3.15,3.15,0,0,1-.79-.09.78.78,0,0,1-.43-.48,8.68,8.68,0,0,1,0-1.17v-6.25a11.45,11.45,0,0,1,.11-1.45l0-.11.11,0a4.11,4.11,0,0,1,1.33-.16c1.58,0,2.42.78,2.42,2.24,0,2.27-2.19,2.39-3.1,2.39h0a33.86,33.86,0,0,1,3.72,5.15c.34,0,.77,0,1,0s.58,0,.78,0h.07v0l-.56-.11,0,0c-.45-.48-3.15-4-3.63-4.71l-.08-.11.17-.26.81-.25a2.38,2.38,0,0,0,1.78-2.34,2.09,2.09,0,0,0-2.34-2.06l-1,0c-.45,0-.93,0-1.36,0-1.13,0-1.83,0-2.2,0h-.13v0h.06a3.1,3.1,0,0,1,.76.09.76.76,0,0,1,.43.49,8.68,8.68,0,0,1,0,1.17v6.39a9.74,9.74,0,0,1,0,1.17.78.78,0,0,1-.44.49,3.17,3.17,0,0,1-.78.09l0,0h.19C207.75,118.38,208.29,118.35,208.92,118.35Z"/>
		<path class="nch-logo-cls-1" d="M222.46,109.75c0-.65-.13-1.06-.86-1.06h-.45l-.06-.06v-.29l.06-.06c.26,0,.77.06,1.32.06s.89,0,1.35-.06c.35,1.06,2.6,5.39,3.91,8.08,1-2.15,3.31-6.21,3.91-8.08.47,0,.94.06,1.41.06s.74,0,1.11-.06l.06.06v.29l-.06.06c-1.32,0-1.32.15-1.32,2.69v5.33c0,1.26,0,1.41,1.32,1.48l.06.06v.29l-.06.06c-.59,0-1.19-.06-1.8-.06s-1.27,0-1.86.06l-.06-.06v-.29l.06-.06c1.17-.14,1.17-.35,1.17-3.09V110h0l-3.36,6.81a15,15,0,0,0-.77,1.83h-.23a13.75,13.75,0,0,0-.76-1.83L223.12,110h0v6.19c0,1.91.35,2,1.23,2l.06.06v.29l-.06.06c-.52,0-1-.06-1.56-.06s-1.07,0-1.62.06l-.06-.06v-.29l.06-.06c1.32,0,1.32-.3,1.32-3.75Z"/>
		<path class="nch-logo-cls-1" d="M227.61,118.84h-.51l-.12-.32a12.44,12.44,0,0,0-.68-1.62l-3-6.12v5.41c0,1.81.28,1.81,1,1.81h.08l.18.18v.45l-.18.18h-.09l-.63,0a18.15,18.15,0,0,0-1.88,0l-.66,0h-.09l-.18-.18v-.45l.18-.18h.08c1.08,0,1.12,0,1.12-3.56v-4.69c0-.67-.15-.86-.67-.86h-.54l-.18-.18v-.45l.18-.18.3,0c.27,0,.68,0,1.09,0s.88,0,1.33-.06h.15l0,.15c.23.7,1.33,2.9,2.4,5,.46.93.93,1.85,1.32,2.66.29-.58.65-1.27,1-2a48,48,0,0,0,2.69-5.7l0-.15h.16a16.33,16.33,0,0,0,2.48,0h.09l.19.18v.45l-.18.18h-.08c-1.12,0-1.12,0-1.12,2.5v5.33c0,1.22,0,1.22,1.13,1.29h.08l.17.17v.45l-.18.18h-.09l-.72,0c-.74,0-1.5,0-2.23,0l-.71,0h-.09l-.17-.18v-.44l.16-.17h.07c1-.11,1-.12,1-2.89v-4.34l-3,6.12a15.45,15.45,0,0,0-.76,1.8Zm4.71-.49c.37,0,.73,0,1.1,0l.57,0v0c-1.33-.09-1.38-.4-1.38-1.67v-5.33c0-2.17,0-2.74.92-2.86a14.46,14.46,0,0,1-1.78,0,52,52,0,0,1-2.67,5.61c-.45.88-.88,1.71-1.2,2.35l-.18.37-.18-.37c-.43-.89-1-2-1.49-3-1.06-2.11-2.06-4.11-2.37-4.95a17.13,17.13,0,0,1-1.74,0c.63.14.72.69.72,1.22v4.69c0,3.39,0,3.92-1.38,3.95h0l.51,0a17.79,17.79,0,0,1,1.92,0l.48,0h0c-1,0-1.29-.38-1.29-2.21V109.8h.32l.08.11,3.36,6.81a12.82,12.82,0,0,1,.69,1.64c.19-.54.52-1.24.71-1.64l3.41-6.92h.32l0,.2v5.12c0,2.69,0,3.1-1.23,3.27v0l.56,0C231.54,118.37,231.93,118.35,232.33,118.35Zm1.67-9.86h0Zm-12.72,0h0Z"/>
		<path class="nch-logo-cls-1" d="M242.08,116.64a8.61,8.61,0,0,0,0,1.14.59.59,0,0,0,.3.33,4.39,4.39,0,0,0,.89.09l.06.06v.29l-.06.06c-.62,0-1.23-.06-1.85-.06s-1.24,0-1.86.06l-.06-.06v-.29l.06-.06a4.37,4.37,0,0,0,.89-.09.6.6,0,0,0,.3-.33,9,9,0,0,0,0-1.14v-6.39a9,9,0,0,0,0-1.14.6.6,0,0,0-.3-.33,4.67,4.67,0,0,0-.89-.09l-.06-.06v-.29l.06-.06c.62,0,1.24.06,1.86.06s1.23,0,1.85-.06l.06.06v.29l-.06.06a4.68,4.68,0,0,0-.89.09.59.59,0,0,0-.3.33,8.63,8.63,0,0,0,0,1.14Z"/>
		<path class="nch-logo-cls-1" d="M239.53,118.81l-.18-.18v-.45l.17-.17h.24a3.08,3.08,0,0,0,.67-.07s.17-.13.18-.18a8.37,8.37,0,0,0,0-1.1v-6.39a8.21,8.21,0,0,0,0-1.1c0-.05-.13-.16-.18-.18a3.15,3.15,0,0,0-.64-.07h-.27l-.17-.17v-.45l.18-.18h.08l.76,0c.73,0,1.45,0,2.17,0l.76,0h.08l.18.17v.45l-.17.17h-.27a3,3,0,0,0-.65.07s-.16.12-.17.18a8.55,8.55,0,0,0,0,1.1v6.39a8.5,8.5,0,0,0,0,1.1c0,.06.13.16.18.18a3.13,3.13,0,0,0,.67.07h.24l.17.17v.45l-.18.18h-.08l-.75,0c-.73,0-1.46,0-2.19,0l-.75,0Zm1.94-.46c.37,0,.74,0,1.11,0l.6,0v0h0a3.15,3.15,0,0,1-.79-.09.78.78,0,0,1-.43-.48,8.36,8.36,0,0,1,0-1.17v-6.39a8.38,8.38,0,0,1,0-1.17.76.76,0,0,1,.44-.49,3.15,3.15,0,0,1,.75-.09h.07v0l-.61,0c-.73,0-1.47,0-2.21,0l-.61,0v0h.06a3.15,3.15,0,0,1,.76.09.77.77,0,0,1,.43.48,9.91,9.91,0,0,1,0,1.17v6.39a10,10,0,0,1,0,1.17.79.79,0,0,1-.44.49,3.17,3.17,0,0,1-.78.09l0,0,.6,0C240.72,118.37,241.1,118.35,241.47,118.35Z"/>
		<path class="nch-logo-cls-1" d="M250,110.09a1.29,1.29,0,0,0-1.24-1.39l-.06-.06v-.29l.06-.06c.33,0,.77.06,1.21.06s.65,0,1-.06a85.5,85.5,0,0,0,6.4,8.1v-5.54c0-1.89-.21-2.15-1.26-2.15l-.06-.06v-.29l.06-.06c.52,0,1,.06,1.55.06s1,0,1.59-.06l.06.06v.29l-.06.06c-.92,0-1.24,0-1.24,2.18v6.27a14.41,14.41,0,0,0,.09,1.47h-.64c-.44-.67-4.45-5.57-6.81-8.34v5.92c0,1.91.35,2,1.23,2l.06.06v.29l-.06.06c-.52,0-1-.06-1.56-.06s-1.08,0-1.54.06l-.06-.06v-.29l.06-.06c1.24,0,1.24-.3,1.24-3.75Z"/>
		<path class="nch-logo-cls-1" d="M248.72,118.81l-.18-.18v-.45l.18-.18h.08c1,0,1,0,1-3.56v-4.36a1.1,1.1,0,0,0-1-1.2h-.08l-.18-.18v-.45l.19-.18h.09c.29,0,.74.06,1.19.06s.63,0,1-.06h.12l.08.11a81.11,81.11,0,0,0,6,7.67v-5c0-1.88-.2-2-1.06-2h-.08l-.17-.18v-.45l.18-.18h.09c.57,0,1,.06,1.53.06s1.05,0,1.58-.06h.09l.18.18v.45l-.17.18h-.08c-.82,0-1,0-1,2v6.27a14.23,14.23,0,0,0,.09,1.45l0,.22h-1l-.06-.09c-.4-.6-4-5-6.45-7.91v5.38c0,1.81.28,1.81,1,1.81H252l.17.18v.44l-.17.18h-.09l-.63,0a17.41,17.41,0,0,0-1.91,0l-.55,0Zm8.87-.4h.31c0-.39-.07-.88-.07-1.27v-6.27c0-2.1.32-2.36,1.3-2.37h0c-.48,0-1,.05-1.45.05s-.9,0-1.41-.05h0c1.15,0,1.32.57,1.32,2.34v6.07l-.35-.4a88.91,88.91,0,0,1-6.36-8c-.3,0-.58,0-.88,0s-.78,0-1.07,0h0a1.49,1.49,0,0,1,1.3,1.58v4.36c0,3.39,0,3.92-1.3,3.95h0l.4,0a18.76,18.76,0,0,1,2,0l.48,0h0c-1,0-1.28-.39-1.28-2.21v-6.45l.35.41C253,112.74,256.9,117.45,257.59,118.41Z"/>
		<path class="nch-logo-cls-1" d="M273.18,110.61l-.06-.08c0-.52,0-.68-.15-.91a3.88,3.88,0,0,0-2.66-.94c-3.27,0-4.19,2.33-4.19,4.5,0,2,1,5,4.4,5a4.06,4.06,0,0,0,1.94-.45c0-.48.09-1,.09-1.47a4.43,4.43,0,0,0-.14-1.21,9.67,9.67,0,0,0-1.42-.18l-.06-.06v-.29l.06-.06c.57,0,1.14.08,1.71.08a12.19,12.19,0,0,0,1.5-.08l.06.06v.35c-.58.14-.58.27-.58,1.51a11.43,11.43,0,0,0,.08,1.48l-.09.24c-1.44.14-2,.61-3.59.61-2.86,0-5.39-1.62-5.39-5.36s2.45-5.21,5.84-5.21a14.57,14.57,0,0,1,3,.42l.17.17a12.16,12.16,0,0,0-.12,1.33v.47l-.06.06Z"/>
		<path class="nch-logo-cls-1" d="M270.08,118.93c-2.7,0-5.59-1.46-5.59-5.56,0-3.43,2.2-5.4,6-5.4a14.69,14.69,0,0,1,3.05.43h.06l.27.28,0,.19a11.23,11.23,0,0,0-.11,1.21v.55l-.17.17h-.52l-.16-.2v-.07c0-.51,0-.63-.12-.8a3.74,3.74,0,0,0-2.5-.85c-3.48,0-4,2.69-4,4.3,0,2.22,1.1,4.81,4.21,4.81a4.24,4.24,0,0,0,1.75-.37l0-.35c0-.33.06-.68.06-1a4.44,4.44,0,0,0-.1-1,10.13,10.13,0,0,0-1.28-.16h-.07l-.17-.17v-.45l.18-.18H271l.75,0c.32,0,.63,0,1,0a11.78,11.78,0,0,0,1.47-.07h.09l.19.18V115l-.15,0c-.42.1-.42.1-.42,1.32a11,11,0,0,0,.07,1.37c0,.06,0,.09,0,.11v.07l-.13.36h-.12a8.79,8.79,0,0,0-1.5.29A7.43,7.43,0,0,1,270.08,118.93Zm.45-10.57c-2.11,0-5.65.65-5.65,5,0,3.81,2.68,5.16,5.19,5.16a7,7,0,0,0,2-.3,9.31,9.31,0,0,1,1.44-.29l0-.09v0a11.31,11.31,0,0,1-.07-1.42c0-1.14,0-1.48.58-1.66v0a13.13,13.13,0,0,1-1.36.06c-.33,0-.65,0-1,0l-.6,0v0a9.4,9.4,0,0,1,1.32.17l.12,0,0,.12a4.66,4.66,0,0,1,.14,1.26c0,.34,0,.7-.06,1,0,.15,0,.3,0,.44v.09l-.07.05a4.19,4.19,0,0,1-2.06.49c-3.63,0-4.6-3.27-4.6-5.21,0-1.41.43-4.69,4.39-4.69a4.07,4.07,0,0,1,2.83,1,1.41,1.41,0,0,1,.18.9h.08v-.33a11.23,11.23,0,0,1,.11-1.26h0l-.06-.06A14.14,14.14,0,0,0,270.53,108.36Z"/>
		<path class="nch-logo-cls-1" d="M108.26,140c0-.65-.13-1.06-.86-1.06h-.45l-.06-.06v-.29l.06-.06c.26,0,.77.06,1.32.06s.89,0,1.35-.06c.35,1.06,2.6,5.39,3.91,8.08,1-2.15,3.31-6.21,3.91-8.08.47,0,.94.06,1.41.06s.74,0,1.11-.06l.06.06v.29l-.06.06c-1.32,0-1.32.15-1.32,2.69V147c0,1.26,0,1.41,1.32,1.48l.06.06v.29l-.06.06c-.59,0-1.19-.06-1.8-.06s-1.27,0-1.86.06l-.06-.06v-.29l.06-.06c1.16-.14,1.16-.35,1.16-3.09v-5.12h0L114,147.08a15,15,0,0,0-.77,1.83H113a13.75,13.75,0,0,0-.76-1.83l-3.36-6.81h0v6.19c0,1.91.35,2,1.23,2l.06.06v.29l-.06.06c-.52,0-1-.06-1.56-.06s-1.07,0-1.62.06l-.06-.06v-.29l.06-.06c1.32,0,1.32-.3,1.32-3.75Z"/>
		<path class="nch-logo-cls-1" d="M113.41,149.11h-.51l-.11-.32a12.27,12.27,0,0,0-.68-1.62l-3-6.11v5.41c0,1.82.28,1.82,1,1.82h.08l.18.18v.45l-.18.18h-.09l-.61,0a18.29,18.29,0,0,0-1.91,0l-.64,0h-.09l-.18-.18v-.45l.18-.18h.08c1.08,0,1.12,0,1.12-3.56V140c0-.67-.15-.86-.66-.86h-.54l-.18-.18v-.45l.18-.18.31,0c.28,0,.67,0,1.08,0s.85,0,1.29-.06h.15l.09.14c.23.7,1.33,2.9,2.4,5,.46.93.93,1.85,1.32,2.66.29-.58.65-1.27,1-2a48.23,48.23,0,0,0,2.69-5.7l0-.15h.15c.46,0,.93.06,1.39.06s.7,0,1.09-.06H120l.18.18V139l-.18.18h-.08c-1.12,0-1.12,0-1.12,2.5V147c0,1.22,0,1.22,1.13,1.29H120l.17.17v.45l-.18.18h-.08l-.69,0c-.76,0-1.53,0-2.28,0l-.68,0h-.09l-.18-.18v-.45l.16-.17h.07c1-.11,1-.12,1-2.89v-4.33l-3,6.11a14.78,14.78,0,0,0-.76,1.8Zm4.71-.48c.38,0,.75,0,1.12,0l.54,0v0c-1.33-.09-1.38-.4-1.38-1.67v-5.33c0-2.16,0-2.74.91-2.86a14.85,14.85,0,0,1-1.77,0,52.15,52.15,0,0,1-2.67,5.62c-.45.87-.88,1.7-1.2,2.35l-.18.37-.18-.37c-.43-.89-1-2-1.5-3-1.06-2.11-2.05-4.11-2.37-4.94-.43,0-.81.05-1.21.05h-.52c.62.14.72.69.72,1.22v4.69c0,3.32,0,3.92-1.38,4h0l.49,0a19.09,19.09,0,0,1,2,0l.46,0h0c-1,0-1.29-.38-1.29-2.21v-6.39H109l.08.11,3.36,6.81a12.68,12.68,0,0,1,.69,1.64,17.81,17.81,0,0,1,.71-1.64l3.41-6.92h.32l0,.2v5.12c0,2.69,0,3.1-1.22,3.27v0l.53,0C117.33,148.64,117.73,148.62,118.13,148.62Zm1.67-9.86h0Zm-12.72,0h0Z"/>
		<path class="nch-logo-cls-1" d="M126.59,140.52a8.63,8.63,0,0,0,0-1.14.6.6,0,0,0-.3-.33,3.85,3.85,0,0,0-.83-.09l-.06-.06v-.29l.06-.06c.94,0,1.92.06,2.92.06,1.18,0,2.36,0,3.54-.06l.26.18-.12,1.74h-.24l-.06-.06a2.25,2.25,0,0,0-.35-1,8.7,8.7,0,0,0-1.94-.2,9,9,0,0,0-1.51.09c0,.44-.09,1.51-.09,2s0,1.19,0,1.79a12.25,12.25,0,0,0,1.39.06,11.05,11.05,0,0,0,2.32-.21l.06.06v.82l-.06.06a6.27,6.27,0,0,0-2-.14c-.71,0-1.33,0-1.56.06l-.17.17c0,.36,0,.74,0,1.11,0,.71,0,2.29.09,3.09a17.86,17.86,0,0,0,1.85.09,7,7,0,0,0,2-.23,4.67,4.67,0,0,0,.44-1.15h.36c0,.36-.12,1.12-.12,1.83l-.18.18c-1.17,0-2.35-.06-3.51-.06s-2.07,0-2.79.06l-.06-.06v-.29l.06-.06c.64-.11.64-.18.64-1.56Z"/>
		<path class="nch-logo-cls-1" d="M125.87,149.08l-.18-.18v-.45l.16-.17h.06c.47-.08.47-.08.47-1.36v-6.39a8.47,8.47,0,0,0,0-1.1c0-.05-.13-.16-.18-.18a2.67,2.67,0,0,0-.6-.07l-.25,0-.17-.17v-.45l.18-.18h.08l1.15,0c1.26,0,2.56,0,3.85,0l1.46,0h.06l.4.28-.14,2h-.51l-.17-.18v-.08a2.22,2.22,0,0,0-.27-.86,9,9,0,0,0-1.82-.17,10.34,10.34,0,0,0-1.33.06c0,.5-.08,1.41-.08,1.85s0,.82,0,1.23v.38c.24,0,.71,0,1.2,0a10.86,10.86,0,0,0,2.26-.2l.11,0,.2.2v1l-.21.22-.13-.06a7,7,0,0,0-1.9-.12c-.65,0-1.21,0-1.47.05l-.06.06v.26c0,.25,0,.51,0,.76,0,.67,0,2.09.08,2.91.39,0,1.05.07,1.66.07a7.39,7.39,0,0,0,1.86-.19,4.38,4.38,0,0,0,.39-1l0-.15h.73l0,.47c0,.4-.1,1-.1,1.56v.08l-.3.3h-.09c-1,0-2.18-.06-3.5-.06s-2.13,0-2.77.06Zm2.86-.46c1.29,0,2.41,0,3.43.06l.06-.06c0-.56.06-1.13.1-1.52v0a4.64,4.64,0,0,1-.41,1l0,.07-.08,0a7.32,7.32,0,0,1-2.06.24,18.34,18.34,0,0,1-1.87-.09l-.16,0v-.16c0-.79-.09-2.38-.09-3.1,0-.26,0-.52,0-.78l0-.41.27-.27H128a15.53,15.53,0,0,1,1.58-.06,10.88,10.88,0,0,1,1.85.09v-.45a13.2,13.2,0,0,1-2.18.17,12.41,12.41,0,0,1-1.43-.06l-.16,0,0-.71c0-.41,0-.82,0-1.24s0-1.57.09-2v-.14l.14,0a8.56,8.56,0,0,1,1.55-.09,8.94,8.94,0,0,1,2,.2l.06,0,0,0a2.14,2.14,0,0,1,.34.77l.08-1.2-.11-.08-1.39,0c-1.3,0-2.61,0-3.87,0l-1,0v0h0a2.77,2.77,0,0,1,.72.09.76.76,0,0,1,.43.48,8.55,8.55,0,0,1,0,1.17v6.39c0,1.31,0,1.6-.7,1.74v0C126.73,148.64,127.55,148.62,128.74,148.62Z"/>
		<path class="nch-logo-cls-1" d="M139.17,140.52a8.63,8.63,0,0,0,0-1.14.6.6,0,0,0-.3-.33A3.85,3.85,0,0,0,138,139l-.06-.06v-.29l.06-.06c.94,0,1.92.06,2.92.06,1.18,0,2.36,0,3.54-.06l.26.18-.12,1.74h-.24l-.06-.06a2.25,2.25,0,0,0-.35-1,8.7,8.7,0,0,0-1.94-.2,9,9,0,0,0-1.51.09c0,.44-.09,1.51-.09,2s0,1.19,0,1.79a12.25,12.25,0,0,0,1.39.06,11.05,11.05,0,0,0,2.32-.21l.06.06v.82l-.06.06a6.27,6.27,0,0,0-2-.14c-.71,0-1.33,0-1.56.06l-.17.17c0,.36,0,.74,0,1.11,0,.71,0,2.29.09,3.09a17.86,17.86,0,0,0,1.85.09,7,7,0,0,0,2-.23,4.67,4.67,0,0,0,.44-1.15h.36c0,.36-.12,1.12-.12,1.83l-.18.18c-1.17,0-2.35-.06-3.51-.06s-2.07,0-2.79.06l-.06-.06v-.29l.06-.06c.64-.11.64-.18.64-1.56Z"/>
		<path class="nch-logo-cls-1" d="M138.45,149.08l-.18-.18v-.45l.16-.17h.06c.47-.08.47-.08.47-1.36v-6.39a8.47,8.47,0,0,0,0-1.1c0-.05-.13-.16-.18-.18a2.67,2.67,0,0,0-.6-.07l-.25,0-.17-.17v-.45l.18-.18H138l1.15,0c1.26,0,2.56,0,3.85,0l1.46,0h.06l.4.28-.14,2h-.51l-.17-.18v-.08a2.22,2.22,0,0,0-.27-.86,9,9,0,0,0-1.82-.17,10.34,10.34,0,0,0-1.33.06c0,.5-.08,1.41-.08,1.85s0,.81,0,1.21v.39c.24,0,.71,0,1.2,0a10.86,10.86,0,0,0,2.26-.2l.11,0,.2.2v1l-.21.22-.13-.06a7,7,0,0,0-1.9-.12c-.65,0-1.21,0-1.47.05l-.06.06v.27c0,.25,0,.5,0,.75,0,.67,0,2.1.08,2.91.39,0,1.05.07,1.66.07a7.39,7.39,0,0,0,1.86-.19,4.38,4.38,0,0,0,.39-1l0-.15h.73l0,.47c0,.4-.1,1-.1,1.56v.08l-.3.3h-.09c-1,0-2.18-.06-3.5-.06s-2.13,0-2.77.06Zm2.86-.46c1.29,0,2.41,0,3.43.06l.06-.06c0-.56.06-1.13.1-1.52v0a4.64,4.64,0,0,1-.41,1l0,.07-.08,0a7.32,7.32,0,0,1-2.06.24,18,18,0,0,1-1.87-.09l-.16,0v-.16c0-.78-.09-2.37-.09-3.1,0-.25,0-.51,0-.77l0-.42.27-.27h.07a15.56,15.56,0,0,1,1.59-.06,10.88,10.88,0,0,1,1.85.09v-.45a13.2,13.2,0,0,1-2.18.17,12.42,12.42,0,0,1-1.43-.06l-.16,0,0-.72c0-.41,0-.81,0-1.23s0-1.58.09-2l0-.14.14,0A8.56,8.56,0,0,1,142,139a8.94,8.94,0,0,1,2,.2l.06,0,0,0a2.14,2.14,0,0,1,.33.76l.08-1.19-.11-.08-1.39,0c-1.3,0-2.61,0-3.87,0l-1,0v0h0a2.77,2.77,0,0,1,.72.09.76.76,0,0,1,.43.48,8.55,8.55,0,0,1,0,1.17v6.39c0,1.31,0,1.6-.7,1.74v0C139.3,148.64,140.13,148.62,141.32,148.62Z"/>
		<path class="nch-logo-cls-1" d="M158.33,140.54l-.06-.06a2.06,2.06,0,0,0-.3-1.12,7.53,7.53,0,0,0-1.74-.15c-.3,0-.61,0-1,0a8.7,8.7,0,0,0-.09,1.27v6.39a8.61,8.61,0,0,0,0,1.14.59.59,0,0,0,.3.33,4.39,4.39,0,0,0,.89.09l.06.06v.29l-.06.06c-.62,0-1.23-.06-1.85-.06s-1.24,0-1.86.06l-.06-.06v-.29l.06-.06a4.37,4.37,0,0,0,.89-.09.6.6,0,0,0,.3-.33,9,9,0,0,0,0-1.14v-6.39a9,9,0,0,0-.09-1.27c-.39,0-.7,0-1,0a7.57,7.57,0,0,0-1.74.15,2.08,2.08,0,0,0-.3,1.12l-.06.06h-.46a6.57,6.57,0,0,0,.09-1.12,5.42,5.42,0,0,0-.09-.8l.18-.18a24.57,24.57,0,0,0,4.09.18,24.46,24.46,0,0,0,4.07-.18l.18.18a5.7,5.7,0,0,0-.09.8,6.78,6.78,0,0,0,.09,1.12Z"/>
		<path class="nch-logo-cls-1" d="M152.59,149.08l-.17-.18v-.45l.17-.17h.25a3.06,3.06,0,0,0,.66-.07s.17-.13.18-.18a8,8,0,0,0,0-1.1v-6.39a8.79,8.79,0,0,0-.07-1.09c-.33,0-.58,0-.82,0a7.44,7.44,0,0,0-1.63.13,2.12,2.12,0,0,0-.21.89v.14l-.17.17H150l0-.23a6.38,6.38,0,0,0,.09-1.09,3.43,3.43,0,0,0-.06-.57l0-.21v-.1l.33-.33.11,0a24.78,24.78,0,0,0,4,.18,24.62,24.62,0,0,0,4-.18l.11,0,.33.33v.1c0,.07,0,.15,0,.22a3.26,3.26,0,0,0-.06.55,6.56,6.56,0,0,0,.09,1.09l0,.23h-.77l-.17-.17v-.15a2.08,2.08,0,0,0-.21-.88,7.49,7.49,0,0,0-1.63-.13c-.24,0-.5,0-.83,0a8.66,8.66,0,0,0-.07,1.09v6.39a8,8,0,0,0,0,1.1c0,.05.13.16.18.18a3.13,3.13,0,0,0,.66.07h.25l.17.17v.45l-.18.18h-.09l-.73,0c-.74,0-1.48,0-2.23,0l-.73,0Zm1.94-.46c.38,0,.75,0,1.13,0l.58,0v0h0a3.11,3.11,0,0,1-.78-.09.76.76,0,0,1-.43-.48,8.56,8.56,0,0,1,0-1.17v-6.39a8.92,8.92,0,0,1,.09-1.3l0-.16h.16c.42,0,.72,0,1,0a7.75,7.75,0,0,1,1.77.15h.06l.05,0a2,2,0,0,1,.35,1.12h.1a6.83,6.83,0,0,1-.06-.92,3.68,3.68,0,0,1,.06-.62l0-.12,0,0a27.23,27.23,0,0,1-4,.16,27.41,27.41,0,0,1-4-.16l0,0,0,.1a3.73,3.73,0,0,1,.06.63,6.63,6.63,0,0,1-.06.92h.1a2,2,0,0,1,.35-1.12l0,0H151a7.9,7.9,0,0,1,1.78-.16c.29,0,.59,0,1,0H154l0,.16a9.12,9.12,0,0,1,.09,1.3v6.39a9.64,9.64,0,0,1,0,1.17.76.76,0,0,1-.44.49,3,3,0,0,1-.77.09l0,0,.58,0C153.77,148.64,154.15,148.62,154.53,148.62Z"/>
		<path class="nch-logo-cls-1" d="M165,146.44l.06.06.09,1a2.29,2.29,0,0,0,2.18,1,2.19,2.19,0,0,0,2.38-2.39c0-2.91-5.53-1.15-5.53-4.75,0-2,1.89-2.89,3.82-2.89a4.81,4.81,0,0,1,2.3.48,10.91,10.91,0,0,0-.24,1.86h-.35l-.06-.06a7.34,7.34,0,0,0-.14-1.07,3,3,0,0,0-2.06-.68,1.83,1.83,0,0,0-2,1.88c0,3.26,5.53,1.27,5.53,4.68,0,2.39-1.91,3.48-4.12,3.48a4.35,4.35,0,0,1-2.36-.59,10,10,0,0,0,.24-2Z"/>
		<path class="nch-logo-cls-1" d="M166.78,149.2a4.22,4.22,0,0,1-2.48-.63l-.11-.08,0-.13a7.07,7.07,0,0,0,.2-1.47l0-.64H165l.17.17.1,1a2.28,2.28,0,0,0,2,.84,2,2,0,0,0,2.18-2.19c0-1.22-1.11-1.52-2.39-1.87-1.47-.39-3.13-.84-3.13-2.89s2-3.09,4-3.09a4.87,4.87,0,0,1,2.4.51l.12.07,0,.19a10.44,10.44,0,0,0-.23,1.77v.2h-.63l-.17-.17v-.07a7,7,0,0,0-.12-1,2.79,2.79,0,0,0-1.88-.6,1.64,1.64,0,0,0-1.85,1.68c0,1.45,1.19,1.74,2.57,2.08s3,.72,3,2.6C171.09,147.76,169.4,149.2,166.78,149.2Zm-2.13-.87a4.11,4.11,0,0,0,2.13.48c1.9,0,3.92-.86,3.92-3.29,0-1.57-1.29-1.88-2.66-2.22s-2.87-.7-2.87-2.46a2,2,0,0,1,2.24-2.07,3.21,3.21,0,0,1,2.15.7l.07,0,0,.1a7.34,7.34,0,0,1,.13,1h0A11.69,11.69,0,0,1,170,139a4.69,4.69,0,0,0-2.08-.39c-1.8,0-3.62.83-3.62,2.69s1.38,2.12,2.84,2.51,2.69.72,2.69,2.25a2.71,2.71,0,0,1-4.95,1.41l-.08-.82,0,.24A8.52,8.52,0,0,1,164.64,148.33Z"/>
		<path class="nch-logo-cls-1" d="M189.15,140.52a9,9,0,0,0,0-1.14.6.6,0,0,0-.3-.33,3.8,3.8,0,0,0-.8-.09l-.06-.06v-.29l.06-.06c.38,0,1.21.06,3,.06,1.18,0,2.36,0,3.18-.06l.26.18-.12,1.89H194l-.06-.06a2.56,2.56,0,0,0-.35-1.18,6.33,6.33,0,0,0-1.71-.2,6,6,0,0,0-1.45.13c0,.59-.09,1.82-.09,2.53s0,1.65,0,1.91a3.64,3.64,0,0,0,1.33.14,10.53,10.53,0,0,0,2.15-.21l.06.06v.82l-.06.06a5.6,5.6,0,0,0-1.82-.14c-.88,0-1.36,0-1.66,0,0,.8,0,1.6,0,2.38a8.61,8.61,0,0,0,0,1.14.59.59,0,0,0,.3.33,7.36,7.36,0,0,0,1.17.09l.06.06v.29l-.06.06c-.2,0-1.21-.06-2.12-.06s-1.58.06-1.77.06l-.06-.06v-.29l.06-.06a3.56,3.56,0,0,0,.8-.09.6.6,0,0,0,.3-.33,9,9,0,0,0,0-1.14Z"/>
		<path class="nch-logo-cls-1" d="M192,149.08h-.08l-.42,0c-.43,0-1.09,0-1.7,0s-1.12,0-1.44,0l-.33,0h-.08l-.18-.18v-.45l.17-.17h.23a2.56,2.56,0,0,0,.6-.07s.17-.13.18-.18a8.32,8.32,0,0,0,0-1.1v-6.39a8.16,8.16,0,0,0,0-1.1c0-.05-.13-.16-.18-.18a2.62,2.62,0,0,0-.57-.07h-.25l-.17-.17v-.45l.18-.18h.27c.44,0,1.26.05,2.78.05.79,0,1.58,0,2.26,0l.91,0h.06l.4.28-.14,2.19H194l-.18-.17v-.08a2.62,2.62,0,0,0-.27-1,6.43,6.43,0,0,0-1.59-.17,6.63,6.63,0,0,0-1.27.09c0,.64-.08,1.74-.08,2.37s0,1.42,0,1.76a4.29,4.29,0,0,0,1.15.08,10.36,10.36,0,0,0,2.09-.2l.11,0,.2.2v1l-.21.22-.13-.06a6.22,6.22,0,0,0-1.73-.12c-.71,0-1.17,0-1.47,0,0,.72,0,1.45,0,2.19a8.06,8.06,0,0,0,0,1.1c0,.05.13.16.18.18a5.32,5.32,0,0,0,.86.07H192l.17.17v.45Zm-2.2-.46c.62,0,1.28,0,1.72,0h.26v0h-.1a4.26,4.26,0,0,1-1-.09.76.76,0,0,1-.43-.48,8.66,8.66,0,0,1,0-1.17c0-.81,0-1.61,0-2.38v-.17l.17,0c.31,0,.8,0,1.69,0a9.47,9.47,0,0,1,1.68.09v-.45a12.27,12.27,0,0,1-2,.17,3.78,3.78,0,0,1-1.4-.15l-.11,0v-.12c0-.28,0-1.33,0-1.93s0-1.92.09-2.54v-.14l.13,0a6.05,6.05,0,0,1,1.51-.14,6.71,6.71,0,0,1,1.77.21l.05,0,0,0a2.18,2.18,0,0,1,.34.85l.08-1.28-.11-.08-.85,0c-.68,0-1.48,0-2.27,0-1.52,0-2.35,0-2.8-.05h0v0h0a2.75,2.75,0,0,1,.69.09.76.76,0,0,1,.43.48,8.9,8.9,0,0,1,0,1.17v6.39a9,9,0,0,1,0,1.17.77.77,0,0,1-.44.49,2.7,2.7,0,0,1-.7.09l0,0h.17C188.61,148.65,189.13,148.62,189.77,148.62Z"/>
		<path class="nch-logo-cls-1" d="M208.09,147.4c.39,1,.47,1,1.27,1.07l.06.06v.29l-.06.06c-.39,0-1.21-.06-1.76-.06s-1.23,0-1.82.06l-.06-.06v-.29l.06-.06c.54,0,1.06-.06,1.06-.39a1.66,1.66,0,0,0-.17-.52l-1-2.59c-.63,0-1.26,0-1.89,0s-1.27,0-1.91,0l-.36.88a15.26,15.26,0,0,0-.8,2.24c.15.29.32.32,1.11.38l.06.06v.29l-.06.06c-.8,0-1.12-.06-1.45-.06-.54,0-1.09,0-1.62.06l-.06-.06v-.29l.06-.06c.79-.06.88-.2,1-.44a13.84,13.84,0,0,0,1-1.82l2.74-6.4c.3-.7.26-.68.5-1.29h.53a5.4,5.4,0,0,0,.27.79Zm-5.95-3c.57,0,1.14,0,1.71,0s1.11,0,1.65,0l-1.63-4Z"/>
		<path class="nch-logo-cls-1" d="M201.91,149.08h-.09c-.79,0-1.11-.06-1.44-.06s-.67,0-1,0l-.62,0h-.09l-.18-.18v-.45l.17-.17h.07c.7-.05.75-.15.86-.34a13.67,13.67,0,0,0,.94-1.8l2.74-6.4c.18-.4.23-.57.3-.75s.1-.28.2-.53l0-.12h.81l0,.14a5.33,5.33,0,0,0,.26.77l3.32,8.08c.36.9.38.9,1.1,1h.07l.17.17v.45l-.18.18-.4,0c-.43,0-1,0-1.43,0s-1.06,0-1.81.06h-.09l-.18-.18v-.45l.17-.17.2,0c.32,0,.76-.06.76-.19a1.25,1.25,0,0,0-.11-.35l0-.09-.94-2.47c-1.23-.05-2.3-.05-3.53,0l-.32.76a16.38,16.38,0,0,0-.78,2.13c.08.13.2.16.91.22h.07l.17.17v.45Zm-3-.43v0l.47,0c.34,0,.68,0,1,0s.62,0,1.32.05v0c-.66-.05-.94-.09-1.14-.47l0-.06v-.06a16.52,16.52,0,0,1,.82-2.29l.41-1h.13c1.33-.06,2.48-.06,3.82,0h.13l1.06,2.79a1.39,1.39,0,0,1,.15.51c0,.49-.57.54-1.12.58v0c.69,0,1.24-.05,1.68-.05s1,0,1.45,0h.17v0c-.78-.07-.92-.22-1.32-1.19l-3.32-8.08a5.4,5.4,0,0,1-.24-.67h-.25l-.15.39c-.07.19-.13.36-.31.78l-2.74,6.4a14.07,14.07,0,0,1-1,1.84C199.77,148.44,199.61,148.59,198.89,148.66Zm5-4.06-1.14,0-.58,0h-.29l2-4.66,1.92,4.66-.83,0Zm-1.41-.43h.29c.73,0,1.48,0,2.23,0h.26l-1.35-3.27Z"/>
		<path class="nch-logo-cls-1" d="M215.65,140c0-.65-.13-1.06-.86-1.06h-.45l-.06-.06v-.29l.06-.06c.26,0,.77.06,1.32.06s.89,0,1.35-.06c.35,1.06,2.6,5.39,3.91,8.08,1-2.15,3.31-6.21,3.91-8.08.47,0,.94.06,1.41.06s.74,0,1.11-.06l.06.06v.29l-.06.06c-1.32,0-1.32.15-1.32,2.69V147c0,1.26,0,1.41,1.32,1.48l.06.06v.29l-.06.06c-.59,0-1.19-.06-1.8-.06s-1.27,0-1.86.06l-.06-.06v-.29l.06-.06c1.16-.14,1.16-.35,1.16-3.09v-5.12h0l-3.36,6.81a15,15,0,0,0-.77,1.83h-.23a13.75,13.75,0,0,0-.76-1.83l-3.36-6.81h0v6.19c0,1.91.35,2,1.23,2l.06.06v.29l-.06.06c-.52,0-1-.06-1.56-.06s-1.07,0-1.62.06l-.06-.06v-.29l.06-.06c1.32,0,1.32-.3,1.32-3.75Z"/>
		<path class="nch-logo-cls-1" d="M220.81,149.11h-.51l-.11-.31a12.32,12.32,0,0,0-.68-1.63l-3-6.11v5.4c0,1.82.28,1.82,1,1.82h.08l.18.18v.45l-.18.18h-.09l-.61,0a18.28,18.28,0,0,0-1.91,0l-.64,0h-.09l-.18-.18v-.45l.18-.18h.08c1.08,0,1.12,0,1.12-3.56V140c0-.67-.15-.86-.66-.86h-.54l-.18-.18v-.45l.18-.18.31,0c.28,0,.67,0,1.08,0s.85,0,1.29-.06h.15l.09.14c.23.7,1.33,2.9,2.4,5,.46.93.93,1.85,1.32,2.66.29-.58.65-1.27,1-2a48.21,48.21,0,0,0,2.7-5.71l0-.15h.16c.46,0,.93.06,1.39.06s.7,0,1.09-.06h.09l.19.18V139l-.18.18h-.08c-1.12,0-1.12,0-1.12,2.5V147c0,1.22,0,1.22,1.13,1.29h.08l.17.17v.45l-.18.18h-.09l-.69,0c-.76,0-1.53,0-2.28,0l-.68,0h-.09l-.17-.18v-.45l.16-.17h.07c1-.11,1-.12,1-2.89v-4.33l-3,6.11a14.94,14.94,0,0,0-.76,1.8Zm4.71-.48c.38,0,.75,0,1.12,0l.54,0v0c-1.33-.09-1.38-.4-1.38-1.67v-5.33c0-2.16,0-2.74.91-2.86a14.41,14.41,0,0,1-1.77,0,52.15,52.15,0,0,1-2.67,5.62c-.45.87-.88,1.7-1.19,2.34l-.18.37-.18-.37c-.43-.89-1-2-1.5-3-1.05-2.11-2.05-4.11-2.37-4.94-.43,0-.81.05-1.21.05h-.52c.62.14.72.69.72,1.22v4.69c0,3.32,0,3.92-1.38,4h0l.49,0a19.07,19.07,0,0,1,2,0l.46,0h0c-1,0-1.29-.38-1.29-2.21v-6.39h.32l.08.11,3.36,6.81a12.58,12.58,0,0,1,.69,1.64c.19-.53.52-1.24.71-1.64l3.42-6.92H225l0,.2v5.12c0,2.69,0,3.1-1.22,3.27v0l.53,0C224.72,148.64,225.12,148.62,225.52,148.62Zm1.67-9.86h0Zm-12.72,0h0Z"/>
		<path class="nch-logo-cls-1" d="M235.27,146.91a8.61,8.61,0,0,0,0,1.14.59.59,0,0,0,.3.33,4.39,4.39,0,0,0,.89.09l.06.06v.29l-.06.06c-.62,0-1.23-.06-1.85-.06s-1.24,0-1.86.06l-.06-.06v-.29l.06-.06a4.37,4.37,0,0,0,.89-.09.6.6,0,0,0,.3-.33,9,9,0,0,0,0-1.14v-6.39a9,9,0,0,0,0-1.14.6.6,0,0,0-.3-.33,4.67,4.67,0,0,0-.89-.09l-.06-.06v-.29l.06-.06c.62,0,1.24.06,1.86.06s1.23,0,1.85-.06l.06.06v.29l-.06.06a4.68,4.68,0,0,0-.89.09.59.59,0,0,0-.3.33,8.63,8.63,0,0,0,0,1.14Z"/>
		<path class="nch-logo-cls-1" d="M232.72,149.08l-.17-.18v-.45l.17-.17H233a3.07,3.07,0,0,0,.66-.07s.17-.13.18-.18a8.4,8.4,0,0,0,0-1.1v-6.39a8.16,8.16,0,0,0,0-1.1c0-.05-.13-.16-.18-.18a3.14,3.14,0,0,0-.64-.07h-.27l-.17-.17v-.45l.18-.18h.09l.77,0c.72,0,1.45,0,2.16,0l.77,0h.08l.18.18V139l-.17.17h-.27a3,3,0,0,0-.65.07s-.16.12-.17.18a8.59,8.59,0,0,0,0,1.1v6.39a8.06,8.06,0,0,0,0,1.1c0,.05.13.16.18.18a3.12,3.12,0,0,0,.66.07h.25l.17.17v.45l-.18.18h-.09l-.73,0c-.74,0-1.49,0-2.24,0l-.73,0Zm1.94-.46c.38,0,.75,0,1.13,0l.58,0v0h0a3.12,3.12,0,0,1-.78-.09.76.76,0,0,1-.43-.48,8.66,8.66,0,0,1,0-1.17v-6.39a8.64,8.64,0,0,1,0-1.17.76.76,0,0,1,.44-.49,3.16,3.16,0,0,1,.75-.09h.07v0l-.62,0c-.73,0-1.46,0-2.2,0l-.62,0v0H233a3.1,3.1,0,0,1,.76.09.77.77,0,0,1,.43.49,8.84,8.84,0,0,1,0,1.17v6.39a9,9,0,0,1,0,1.17.77.77,0,0,1-.44.49,3,3,0,0,1-.77.09l0,0,.58,0C233.9,148.64,234.28,148.62,234.66,148.62Z"/>
		<path class="nch-logo-cls-1" d="M243.25,140.52a9,9,0,0,0,0-1.14.6.6,0,0,0-.3-.33A4.67,4.67,0,0,0,242,139l-.06-.06v-.29l.06-.06c.62,0,1.24.06,1.86.06s1.23,0,1.94-.06l.06.06v.29l-.06.06a4.93,4.93,0,0,0-1,.09.59.59,0,0,0-.3.33,8.63,8.63,0,0,0,0,1.14v4.54c0,.71,0,2.29.09,3a17.87,17.87,0,0,0,1.85.09,6.94,6.94,0,0,0,2-.23,4.48,4.48,0,0,0,.5-1.32h.3l.06.06a12.12,12.12,0,0,0-.18,2l-.18.18c-1.16,0-2.35-.06-3.51-.06s-2.07,0-2.79.06l-.06-.06v-.29l.06-.06c.64-.11.64-.18.64-1.56Z"/>
		<path class="nch-logo-cls-1" d="M242.53,149.08l-.18-.18v-.45l.16-.16h.06c.47-.08.47-.08.47-1.36v-6.39a7.81,7.81,0,0,0,0-1.1c0-.05-.13-.16-.18-.18a3.14,3.14,0,0,0-.64-.07h-.27l-.17-.17v-.45l.18-.18H242l.77,0c.71,0,1.4,0,2.13,0l.89,0h.08l.18.18V139l-.17.17h-.29a3.41,3.41,0,0,0-.72.07s-.16.12-.17.18a8.59,8.59,0,0,0,0,1.1v4.54c0,.68,0,2.08.08,2.87.38,0,1.05.07,1.66.07a7.31,7.31,0,0,0,1.86-.19,4.41,4.41,0,0,0,.44-1.21l0-.15h.54l.19.19,0,.1a12,12,0,0,0-.18,1.95v.08l-.3.3h-.09c-1,0-2.18-.06-3.5-.06s-2.13,0-2.77.06Zm2.86-.46c1.29,0,2.41,0,3.43.06l.06-.06a12.5,12.5,0,0,1,.15-1.7,4.11,4.11,0,0,1-.46,1.15l0,.06-.07,0a7,7,0,0,1-2.06.24,17.48,17.48,0,0,1-1.87-.09l-.16,0v-.16c0-.75-.09-2.32-.09-3.05v-4.54a8.64,8.64,0,0,1,0-1.17.76.76,0,0,1,.44-.49,3.36,3.36,0,0,1,.83-.09l.08,0-.74,0c-.74,0-1.44,0-2.16,0l-.62,0v0h.06a3.1,3.1,0,0,1,.76.09.77.77,0,0,1,.43.49,8.68,8.68,0,0,1,0,1.17v6.39c0,1.31,0,1.6-.7,1.74v0C243.38,148.64,244.21,148.62,245.4,148.62Z"/>
		<path class="nch-logo-cls-1" d="M257.23,144.57a18.93,18.93,0,0,0-2-3.56c-1.09-1.59-1.6-1.69-2.1-1.69h-.29l-.08-.35a8.82,8.82,0,0,0,1.66-.53,4.59,4.59,0,0,1,2.07,2.18l1.6,3.09,2.44-4.12c.27-.45.54-1,.88-1h.83v.29c-.59.09-.85.54-2,2.42a15,15,0,0,0-1.79,3.24v2.35a9,9,0,0,0,0,1.14.6.6,0,0,0,.3.33,4.37,4.37,0,0,0,.89.09l.06.06v.29l-.06.06-.65,0c-.33,0-.74,0-1.19,0s-.88,0-1.2,0l-.67,0-.06-.06v-.29l.06-.06a4.39,4.39,0,0,0,.89-.09.59.59,0,0,0,.3-.33,8.61,8.61,0,0,0,0-1.14Z"/>
		<path class="nch-logo-cls-1" d="M259.79,149.08h-.08l-.36,0-.3,0c-.33,0-.73,0-1.19,0s-.87,0-1.19,0l-.33,0-.34,0h-.08l-.18-.18v-.45l.17-.17h.25a3.05,3.05,0,0,0,.66-.07s.16-.13.18-.18a8,8,0,0,0,0-1.1v-2.35a20.3,20.3,0,0,0-1.93-3.44c-1.11-1.61-1.57-1.61-1.94-1.61h-.45l-.15-.7.19,0a8.6,8.6,0,0,0,1.63-.52l.07,0,.07,0a5,5,0,0,1,2.19,2.28l1.44,2.77,2.33-3.93c.27-.46.56-.94,1-.94h1v.65l-.17,0c-.45.07-.69.42-1.72,2l-.19.29a14.71,14.71,0,0,0-1.76,3.13v2.35a7.75,7.75,0,0,0,0,1.1c0,.05.13.16.18.18a3.14,3.14,0,0,0,.66.07h.25l.17.17v.45Zm-3.66-.42v0h.19l.33,0c.32,0,.75,0,1.21,0s.87,0,1.2,0l.31,0h.2v0h0a2.94,2.94,0,0,1-.78-.09.77.77,0,0,1-.43-.48,8.63,8.63,0,0,1,0-1.17v-2.35a13.08,13.08,0,0,1,1.82-3.35l.19-.29c.85-1.34,1.2-1.9,1.65-2.11h-.45c-.19,0-.45.43-.64.75l-2.69,4.54-1.77-3.4a4.69,4.69,0,0,0-1.9-2.06,8.94,8.94,0,0,1-1.43.47h.13c.57,0,1.14.13,2.27,1.78a18.23,18.23,0,0,1,2,3.67v2.35a8.59,8.59,0,0,1,0,1.17.76.76,0,0,1-.44.49,3.14,3.14,0,0,1-.77.09Z"/></svg>