<svg xmlns="http://www.w3.org/2000/svg" viewBox="0 0 468.91 530.88"><defs><style>.cls-1{fill:#f4f4ed;}</style></defs><title>nuts</title><g id="Layer_2" data-name="Layer 2"><g id="Layer_1-2" data-name="Layer 1"><path class="cls-1" d="M438.68,264.44a11.88,11.88,0,0,1-2.48,7.88,10.73,10.73,0,0,0-2.08,4.57c-.64,2.75-1.25,5.51-1.86,8.26-1.09,1.37-2.18,2.66-3.16,4-1.31,1.82-2.12,4-4,5.43q-2,1.56-4,3.09c-1.36,1-2.71,2-4.09,3-1.85,1.31-3.74,2.55-5.59,3.86-3.79,2.69-3.78,2.69-11.08,3.1a3.05,3.05,0,0,0-1.48.76,3.49,3.49,0,0,0-.92,4.45c.66.91,1.23,1.89,1.93,2.76,1.77,2.2,3.79,4.27,4.71,7a63.47,63.47,0,0,1,2.15,8.15,4.49,4.49,0,0,1-.63,3.18,25.83,25.83,0,0,0-4.08,7.33c-.87,2.67-5.05,8.55-6.57,9.74-4,3.12-8.23,6-11.31,10.14-.67.91-2,1-3,1.46-4.58,2.2-9.1,4.48-11.68,9.3-.78,1.45-2.34,2.46-3.27,3.86a19.18,19.18,0,0,1-4.55,4.94c-3.63,2.69-7.2,5.48-10.77,8.25a5.3,5.3,0,0,0-1.85,2.78,31.53,31.53,0,0,1-3.53,7.65,5.73,5.73,0,0,0-.23,4.88,10.52,10.52,0,0,1,.64,5A25.15,25.15,0,0,0,347,421c.67,2.09,0,4.47.65,6.69,1.29,4.32,2.47,8.67,3.71,13a12.86,12.86,0,0,0,.55,1.59c1.57,3.61,4.11,6.74,5,10.73.35,1.58,1.58,3,2.47,4.42s1.85,2.84,2.79,4.26c2.18,3.3,4.56,6.49,5.32,10.51l4.24,7.34c.85,1.47,2.08,2.85,2.45,4.44.9,3.95,3.72,7.05,4.64,10.89a17.54,17.54,0,0,1-1.79,13.08,44.47,44.47,0,0,1-3.29,4.36c-.8,4.11-1.7,8.54-2.52,13-.45,2.44-2.06,3.89-4,5.12a2,2,0,0,1-2.94-.44c-1.07-1.33-2.32-2.7-2.49-4.35-.3-2.91-2.17-5.21-2.71-7.94-.44-2.24-1.44-4.31-1.86-6.5-.8-4.15-2.55-7.44-6.58-9.2-3.51-2.83-7-5.73-10.54-8.46-2.23-1.7-4.67-3.14-7-4.71a40.76,40.76,0,0,0-11.57-2.4,14.76,14.76,0,0,0-3.35.29,4.32,4.32,0,0,0-1.55.67c-2.41,1.54-5.56.88-7.8,2.56-1.92,3.6-4.89,6.46-5.71,10.49-1.84,2.83-3.57,5.74-5.55,8.47a14.5,14.5,0,0,1-3.69,3.46c-3.77,2.49-7.64,4.85-11.54,7.15a8.8,8.8,0,0,1-4.91,1,31.88,31.88,0,0,1-6.72-.8,8.85,8.85,0,0,1-4.28-2.58,27.38,27.38,0,0,1-2-2.71,8,8,0,0,0-5.42-3.64q-9.24-1.3-18.47-2.7c-2.23-.34-4.55,1.58-6.49.37a26.43,26.43,0,0,0-9.52-3.28c-3.89-.73-7.74-1.64-11.6-2.5a19.88,19.88,0,0,1-3.27-.88,12.2,12.2,0,0,1-2.92-1.68c-3.12-2.47-7.62-2.42-10.28-5.69a22.7,22.7,0,0,1-7.37-6.84c-1.56-2.35-3.41-4.5-5.05-6.8s-4.36-3.6-5.92-6a2.67,2.67,0,0,1,.23-3.12c2.41-2.38,5.09-4.47,7.57-6.78a45.48,45.48,0,0,0,3.36-3.78,16.53,16.53,0,0,1,2.15-2.58c3.59-2.73,7.2-5.38,11.85-6.29a66.47,66.47,0,0,0,8-2.64c3.21-1.07,6.37-2.34,9.64-3.11,2.76-.65,5.41-1.55,8.1-2.37s5.44-1.36,8.73-2.15c6.18.78,12.9,1.67,19.58,2.92,3.33.62,6.7,1.1,10.07,1.49a5.91,5.91,0,0,0,4.59-1.74c1.25-1.12,2.36-2.4,3.57-3.58.8-.78,1.64-1.51,2.47-2.27,4-.71,6.92-3.8,10.69-4.58,1.59.95,2.94,2.21,4.51,2.61,4.75,1.19,7.8,4.33,10.37,8.17a46.1,46.1,0,0,1,2.63,4.35,23.22,23.22,0,0,1,1.13,3.14l-.42,8.31A47.33,47.33,0,0,1,309.4,469c.32,1.69,1.54,3,2.7,4.23a3.26,3.26,0,0,0,1.34,1c4.91,1.31,9.83,2.55,14.77,3.82a25.17,25.17,0,0,0,12.46,4.79c1.11.1,2.42-.08,3-1.07a4.35,4.35,0,0,0,.27-3.22c-1.3-3.72-4-6.78-4.77-10.82-.29-1.59-1.43-3.06-2.33-4.49-1.2-1.92-2.58-3.72-3.81-5.62-1.84-2.83-4-5.46-4.51-9a8.92,8.92,0,0,0-1.48-3,151,151,0,0,0-11.83-16.56,9.92,9.92,0,0,0-2.52-2.24A13,13,0,0,1,309,423.4c-3.7-5-7.32-10.07-11-15.07q-4-5.46-8.18-10.84a59.59,59.59,0,0,0-4.32-5.22c-1.16-1.2-2.9-1.89-3.91-3.17-4.65-5.86-10.81-9.82-16.88-13.94a9.12,9.12,0,0,0-3-1.56c-2.86-.68-4.83-2.82-7.18-4.35a4.57,4.57,0,0,0-3.18-.59c-1.62.37-3.08,1.43-4.7,1.87-3.79,1-7.48,2.46-11.58,2.17-1.61-.11-3.28.72-5,1.13-2.81-1.66-5.84-3.16-8.31-5.49a11.38,11.38,0,0,0-6.08-2.68,17.59,17.59,0,0,1-3.27-.88,8.52,8.52,0,0,1-3.88-3.14,11.37,11.37,0,0,1-2-4.6,16.45,16.45,0,0,0-6.1-9.9c-2.17-1.78-4.5-3.28-6.22-5.63a49.68,49.68,0,0,0-9.24-9.85,23.48,23.48,0,0,1-6-8.11c-.79-5.26-4.16-9.19-7-13.39-2.2-3.29-4.4-6.59-6.76-9.77a24.47,24.47,0,0,0-7.35-6.88c-2.91-1.68-5.37-4.13-8.74-5a27.37,27.37,0,0,0-10.38-5.42c-2.33-1.59-4.57-3.34-7.39-4s-4.58-3.3-7.31-4.14c-2.16-.66-4.51-.91-6.51-1.89a27.78,27.78,0,0,1-9.27-7.17,8.1,8.1,0,0,1-1.86-4.62c-.09-1.12,0-2.26-.05-3.39a4.09,4.09,0,0,0-2.92-3.63c-2.21-.49-4.4-1-6.62-1.46-5.55-1.08-11.11-2.12-15.65-3-4.13-1.62-6.45-4.42-10-5-1.72-.28-3-1.59-4.27-2.67A8.05,8.05,0,0,0,64,240.42a12.45,12.45,0,0,1-5.8-3.32A66.48,66.48,0,0,0,51,230c-1.43-1.12-1.29-3.1-1.13-4.75.22-2.24.74-4.45,1.13-6.67a5,5,0,0,0-2-4.34c-6.76-3.38-10.28-5.73-13.92-9.3a57.8,57.8,0,0,0-4.88-4.69,8,8,0,0,1-2.93-4c-.52-1.61-1.2-3.16-1.79-4.75-.78-2.1-.79-4.46-2.06-6.4s-2.57-3.73-3.74-5.66a43.89,43.89,0,0,1-2.31-4.51c-.61-1.33.93-5.46,2.1-6.11a46.31,46.31,0,0,1,7.84-3,10.38,10.38,0,0,1,3.35-.22c2.22,0,4.45.83,6.66,0a2.3,2.3,0,0,0,1.22-1,2.54,2.54,0,0,0-.32-3,3.19,3.19,0,0,0-1.29-1c-2.73-.72-5.51-1.29-8.23-2a9.86,9.86,0,0,1-4.4-2.42,66.55,66.55,0,0,0-6.09-5.88A34.7,34.7,0,0,1,7.93,137C6.24,133.48,5,129.71,2.82,126.4c-.92-3.24-1.9-6.47-2.73-9.74a3.23,3.23,0,0,1,1-3.11c2-1.95,4.11-3.83,6.24-5.81a4,4,0,0,0,.3-1.54,56.68,56.68,0,0,0-3.06-9.53c-1-2.66-1.32-5.48-2.29-8.13a6.22,6.22,0,0,1,.88-6.34C4.88,80,6.44,77.62,8.26,75.47A11.26,11.26,0,0,0,11,69.42c.41-3.37.74-6.75,1.11-10.16l-1.81-6.88c1-6.91,1.49-14.25,3.6-21,2.86-3.33,6.17-5.55,9.22-8.06a9.9,9.9,0,0,1,7.81-2.55c2.32.32,4.45-.43,6.66-.84a5.6,5.6,0,0,1,4.74,1.17A31.13,31.13,0,0,0,45.21,23l4.82.81c1.24-.32,2.35-.55,3.43-.89a9.57,9.57,0,0,1,6.64.39c2,.85,3.76,2.46,5.76,3.43S70.2,28,72,29.49a9.16,9.16,0,0,0,2.76,1.93,23,23,0,0,0,5,.79,2.06,2.06,0,0,0,1.44-.79c2.11-2.62,4.15-5.29,6.21-8A6.28,6.28,0,0,1,91.6,21a16.89,16.89,0,0,0,3.21-1.06,6,6,0,0,1,6.29,1,31.93,31.93,0,0,0,2.82,1.87l8.29,2,4,3.13c6.79,1.76,11.5,6.88,17.07,10.62A19.77,19.77,0,0,1,137,41.91a38.12,38.12,0,0,0,6.2,5.67c2.23,1.63,3.89,4,5.76,6.08a5.25,5.25,0,0,0,1.59-.22c3.25-1.67,6.55-1.31,9.89-.35a5.78,5.78,0,0,1,2.91,1.63c1.48,1.7,3,3.39,4.38,5.17,1.75,2.22,3.45,4.48,5.08,6.8,1.34,1.9,3.63,2.73,5,4.45,2.12,2.63,3.94,5.5,5.89,8.27,1.62,7.45,7.52,12.52,10.6,19.06l1.92,6.57a5,5,0,0,1-.88,4.75,11.67,11.67,0,0,0-2.77,7.79c0,1.4,1.67,3.09,3.14,3.45a11.16,11.16,0,0,0,6.61-.73,6,6,0,0,1,4.86.44,8.73,8.73,0,0,1,1.39,1c1.35,1,2.69,2.06,4.42,3.38.92,2.17,2.15,4.71,3.07,7.35,1.11,3.18,2,6.44,2.91,9.69,1.22,4.33,2.39,8.68,3.56,13a11.84,11.84,0,0,1,.11,5c-.82,5-1.79,10-2.58,15.05-.43,2.79-.62,5.61-.9,8.42a4.45,4.45,0,0,0,2.57,3.91,28.06,28.06,0,0,0,4.94,1.12c2.43.53,3.7,2,4.54,4.38,1.15,3.21,2.48,6.28,2,9.82a10.08,10.08,0,0,0,.46,3.32c.24,1.1.6,2.18,1,3.64l-1,11.46c.13.55.25,1.1.4,1.65a14.23,14.23,0,0,1,.62,6.67c-1.43,7.22-2.75,14.46-2.86,21.86l1.38,6.29-1,11.67c1,3.14,1.9,5.82,1.55,8.73a4.86,4.86,0,0,0,2,4.38c1.28,1.1,2.68,2.06,4,3.09a9.13,9.13,0,0,0,1.32,1.06c4.06,2,7.27,5.3,11.09,7.68,1.17.73,2,1,2.79-.29a2.86,2.86,0,0,0,.13-1.66,11,11,0,0,0-2-4.57,18.49,18.49,0,0,1-2.84-6.09,63.26,63.26,0,0,0-2-6.46c-2.52-8.12-2.53-8.12-1.26-16.55.17-1.11.44-2.21.66-3.32a5.18,5.18,0,0,1,4.66-4.1c1.65-.11,3.36.26,4.95-.54a2.5,2.5,0,0,0,1.66-2.67c-.91-4.39-2.62-8.59-3.67-12.94-.91-3.78-3.08-7.32-2.43-11.49.16-1-.51-2.15-.81-3.23-1.67-6-3.35-11.92-5.1-18.14l.23-8.18-1.32-5.2c1.17-11.6,3.56-23.22,5.85-34.86,3.13-3.3,6.2-6.58,9.33-9.81a4.32,4.32,0,0,1,3.15-1c3.44-.15,6.71.94,10.09,1.18,1.12.08,3.18-2.71,2.7-3.75-1.4-3.07-2.83-6.13-4.29-9.28,1.12-9,2.06-17.94,4-26.81a184.86,184.86,0,0,0,3.2-18.39,59.77,59.77,0,0,1,1.36-6.32c1.59-2.05,3-3.81,4.34-5.63a6.44,6.44,0,0,1,4.05-2.78,20.37,20.37,0,0,0,3.19-1.13,10.07,10.07,0,0,1,9.63,1.25c2.24,1.45,3.9,1.17,5.73-.78a9.9,9.9,0,0,0,2-2.68c1.54-3.6,1.63-7.79,4.43-10.91.26-.29.12-1.07,0-1.58-.31-1.17-.58-2.39,0-3.2a25.08,25.08,0,0,0,3.65-7.59,11.69,11.69,0,0,1,1.82-2.82,59,59,0,0,1,3.9-5.49c1.49-1.7,2.73-3.59,4.14-5.33A13.92,13.92,0,0,1,330.68,29c1.28-1,8.8-3.4,11.14-3.57a7.84,7.84,0,0,1,4.8,1.38c1.42.91,2.61,2.3,4.13,2.9s3.31.48,5,.68c.87-.69,1.78-1.34,2.59-2.08a13.8,13.8,0,0,0,1-1.38c1.1-1.29,2.22-2.56,3.27-3.76,1.33-3.19,1.64-6.74,4.36-9.14,1.32-3.21,4.15-5.3,6-8.15A10.23,10.23,0,0,1,383,.92c1.75.17,3.33-.5,5-.85a3.25,3.25,0,0,1,3,1c1.75,1.56,4,2.08,6.2,2.48a14.79,14.79,0,0,1,7.47,3.71c1.3,1.18,3,1.52,4.62,2a8.65,8.65,0,0,1,4.1,2.86A64,64,0,0,1,420,21.93a5.65,5.65,0,0,1,.74,3.25,14.87,14.87,0,0,0,.9,6.64,7.19,7.19,0,0,1,.76,3.26c-.44,4.12,1.39,7.73,2.41,11.51a4.3,4.3,0,0,0,3.47,3.26c2.77.52,5.55,1,8.3,1.66,3,.7,4.78,2.92,5.8,5.64.78,2.09,1.1,4.35,1.77,6.49a11.56,11.56,0,0,1,.49,5c-.6,4.48-1.09,9-2,13.42-1.94,10-3.45,20.06-5.12,30.11a4.83,4.83,0,0,0,3.07,5.32,27.36,27.36,0,0,0,10,1.15c1.65-.06,3.24-1.07,4.9-1.27,3.54-.43,6.77.41,9,3.44,1.33,1.81,2.43,3.8,3.6,5.72a4.88,4.88,0,0,1,.7,3.26c-.55,3.92-1.11,7.83-1.73,11.74s-1.3,7.8-1.88,11.25a33.13,33.13,0,0,0,.88,3.78,5.24,5.24,0,0,1-.26,4.85c-1.61,2.34-3.19,4.65-3.88,7.45a6,6,0,0,1-1.71,2.87,15.15,15.15,0,0,0-1.1,1.29c-1.77,2.16-2.84,4.83-5.29,6.51-1.91,1.3-4.2,1.59-6.12,2.75a3.24,3.24,0,0,0-1.57,2.8,3,3,0,0,0,1.62,2.6,6.8,6.8,0,0,0,1.6.55,10,10,0,0,0,1.63.45,8,8,0,0,1,5.46,3.69c2,2.75,3.71,5.68,5.46,8.59a8.25,8.25,0,0,1,1,4.9,38.45,38.45,0,0,1-.49,5.06,16.41,16.41,0,0,0,.69,8.31,8.78,8.78,0,0,1-.88,6.53,9.85,9.85,0,0,1-1,1.36c-2.31,3.17-4.53,6.41-6.82,9.59a25.23,25.23,0,0,1-9,7.48,5.54,5.54,0,0,1-3.27.69c-4.4-.49-7.59,1.56-10.16,4.83a2.6,2.6,0,0,0-.22,3.14c1.24,1.89,2.56,3.72,3.88,5.55A17.94,17.94,0,0,1,438.68,264.44ZM270.16,368.13a2.93,2.93,0,0,0-.31-3c-.65-.85-1.37-1.65-2.05-2.47-.9-1.07-1.83-1.24-2.61-.35a2.66,2.66,0,0,0-.4,1.39,2.72,2.72,0,0,0,1.23,2.76,9.62,9.62,0,0,0,4.59,1.29c.49,2.72,1.82,3.92,3.94,3.5.44-.09.8-.53,1.2-.81-.35-.39-.64-1-1.08-1.13C273.2,368.85,271.67,368.52,270.16,368.13Zm41.29,41.34c0-.56.23-1.22,0-1.67a32.47,32.47,0,0,0-7.06-9.27,2.19,2.19,0,0,0-3,0c-.6.58-.21,1.68.59,2.74,1.68,2.24,3.35,4.5,5.06,6.8l4.92,1.1c-.11,2.86.1,3.17,2.72,4-.07.56-.35,1.19-.18,1.67a11.59,11.59,0,0,0,1.43,3c2.95,4.15,6.07,8.17,8.94,12.37,3.47,5.09,8,9.55,9.35,15.92l8.18,12.88c1.21,1.91,2.56,3.75,3.57,5.75.75,1.48,1,3.22,1.58,4.78,1.24,3.13,3.54,5.73,4.37,9.13.95,3.91,3.86,6.85,5.83,10.26a15,15,0,0,1,2,4.63,10.25,10.25,0,0,0,1.24,3.13c1.13,2,2.37,3.85,3.64,5.71.77,1.13,1.75,1.6,2.54,1.18a2.43,2.43,0,0,0,1.2-2.9c-.77-2.69-1.63-5.36-2.59-8-1.36-3.7-4.27-6.7-4.88-10.75q-1.66-3-3.32-5.91a47.09,47.09,0,0,1-3.29-5.92c-1-2.62-1.6-5.42-3.33-7.72-2.1-2.79-2.46-6.28-3.93-9.31a67.33,67.33,0,0,1-4.17-9.23c-1.17-3.74-4-6.77-5-10.71a9.92,9.92,0,0,0-3.89-5.45c-2.86-2-4.85-4.69-6.89-7.39a31.12,31.12,0,0,0-3.34-3.81,10.83,10.83,0,0,0-2.84-1.79,14.65,14.65,0,0,0-6.6-1.26C314.4,410.7,314.24,410.48,311.45,409.48ZM226.7,298.83a3.28,3.28,0,0,0-2.54-3.75c-3.47-.74-6.08-2.83-8.84-4.82l-8.11-2.4a26,26,0,0,0-8.86-4.76,2.07,2.07,0,0,1-1.2-1.11c-.34-.87.27-1.68,1.23-2.58,1.75-1.63,4-1.84,6.13-2.43.47-.13.83-.67,1.24-1a5.67,5.67,0,0,0-1.31-1.07c-3.7-1.49-7.62-1.87-12.37-2.15-2.76,2.47-6.87,1.35-10.73,1.87a2.42,2.42,0,0,0-1.48.78c-1.7,2.23-3.31,4.54-5.24,7.2l-1,7.59c.49,1.43.9,2.49,1.23,3.57,3,9.92,3,9.92,7.83,20.39a14.18,14.18,0,0,1,.35,1.65,27,27,0,0,0,5.06,8.73,7.81,7.81,0,0,0,7.43,3c1.55-.19,2-1,1.44-2.2-1.26-2.51-2.54-5-3.82-7.51-.26-3.57-3.24-5.88-4.24-9.1a1.71,1.71,0,0,1,.09-1.39,2.34,2.34,0,0,1,3.1-.32,4.4,4.4,0,0,1,1.32,1c2.77,3.56,5.49,7.17,8.25,10.74.69.89,1.45,1.73,2.22,2.56a5.21,5.21,0,0,0,1.28,1.08c3.08,1.66,4.78,4.76,7.32,7a10.33,10.33,0,0,0,1.32,1.06,9.74,9.74,0,0,0,1.53.68,24.68,24.68,0,0,0,8.29,1.48,6.88,6.88,0,0,0,3.29-.57,22.3,22.3,0,0,0,8.11-5.95c-.26-2.93-2.41-5-3.49-7.52.26-.46.49-.92.77-1.37,1.46-2.34,1.57-2.59-.51-3.72-3.59-2-5.28-5.84-8.65-8.12l-8.29-2.52c-1-1-2.14-2.22-3.21-3.5a2,2,0,0,1-.49-1.56,2.47,2.47,0,0,1,2.66-1.19c4.48.57,8.94,1.24,13.41,1.88a2.77,2.77,0,0,0,.91,2.83,3.44,3.44,0,0,0,2.93.81,4.75,4.75,0,0,0,1.36-.83,3.49,3.49,0,0,0-2.53-1.8C228.8,299.26,227.75,299,226.7,298.83ZM52.23,86.93c.06-.56.36-1.25.14-1.67a121.17,121.17,0,0,0-8.16-12.78c-2.26-3.22-4.91-6.24-5.57-10.33-2.63-4.94-5-8.4-11.58-16.66-1.86-1.25-3.72-2.53-5.6-3.77-1.52-1-2.63-.1-3,2.45-.26,1.67-.6,3.32.11,5a14.2,14.2,0,0,1,1,8.27A11.61,11.61,0,0,0,20,64.09c1.36,3.33.66,6.66,0,10A5.18,5.18,0,0,1,18.47,77c-2.09,1.88-4.23,3.72-6.11,5.37a17.07,17.07,0,0,0-1.69,6.84,7.4,7.4,0,0,0,.62,3.29,41.12,41.12,0,0,0,6.55,9.85A32.3,32.3,0,0,1,23.18,111a4.86,4.86,0,0,1-1.15,4.6c-1.78,1.44-3.67,2.6-6.07,2.56-1.13,0-2.26-.11-3.39-.08-2.7.07-4.37,2.39-3.31,4.52s2.33,3.87,3.29,5.91S14,132.76,15,134.73c2.12,4,4.53,7.78,8.66,10.17,1.41.82,2.36,2.41,3.59,3.57s2.51,2.22,3.7,3.26c3.47.74,6.8,1.37,10.08,2.19a5.8,5.8,0,0,1,2.89,1.63,42.64,42.64,0,0,1,7.41,11.26,1.86,1.86,0,0,1-.17,1.48,12.88,12.88,0,0,1-8.16,5.6,10.18,10.18,0,0,1-3.35.12c-2.25-.24-4.47-.72-6.71-.92a12.56,12.56,0,0,0-3.29.32,2.22,2.22,0,0,0-1.89,2.48,5.5,5.5,0,0,0,.76,3.17c2.1,3.39,3.72,6.84,3.59,11.07-.09,3,1.94,5.3,4.18,7.05,4,3.11,8.19,6,12.45,9,4.59,1.81,9.73,2.1,14.92,3.43A37,37,0,0,1,67,213.17a6.89,6.89,0,0,1-.78,9.18c-1.29,1.1-2.66,2.09-4,3.17-1.69,1.41-1.9,2.79-.72,4.19,1.46,1.73,2.92,3.45,5.25,4.06A15.43,15.43,0,0,1,72.62,237a7.18,7.18,0,0,0,2.91,1.64c3.46.68,6,3.05,9.49,4.87,3.35.6,7.24,1.29,11.13,2,5,.91,10,1.79,15,2.79,2.39.48,3.83,2.31,4.89,4.32a6.91,6.91,0,0,1,.7,3.25c0,2.25-.38,4.49-.52,6.74a3.83,3.83,0,0,0,2.85,3.7c3.28.87,6.56,1.69,9.59,2.47,2.86,1.15,4.71,3.54,7.58,4.18s5,2.59,7.26,4.22c4,.7,7,3.41,10.37,5.44,3.42.71,6,3,8.82,4.77,1.22.74,3.82-.31,4.11-1.69.59-2.76,1.15-5.52,1.64-7.94-.64-2.56-1.94-4.49-2.22-6.77a5.68,5.68,0,0,1,.51-3.29c.76-1.55,1.24-1.91,3.92-2.63,2.52-.68,3.16-1.74,1.87-3.14a39.49,39.49,0,0,0-3.5-3.65,141.71,141.71,0,0,0-12.49-8.79c-2.69-.67-5.41-1.47-8.18-2-3.49-.66-5.64-3.72-8.91-4.73a20.22,20.22,0,0,1-3.14-1.28,3.32,3.32,0,0,1-1.16-1.16,3.1,3.1,0,0,1-.14-3.14,2.37,2.37,0,0,1,1.32-1c2.81-1,5.54.33,8.32.34,1.34,0,2.19-.66,2.21-1.58a3.27,3.27,0,0,0-.57-1.57,6.4,6.4,0,0,0-1.07-1.31,71.09,71.09,0,0,0-9.36-7.19c-3.28-2.3-5-6.2-9-8.37L106,212.08l-4.5-2.91c-5.46-1-11-2.06-16.57-3.17a40.94,40.94,0,0,1-4.87-1.4,4.09,4.09,0,0,1-1.37-1,6.42,6.42,0,0,1-2.32-4.34c0-.67,3.12-1.31,4.66-1l21.84,4.51c2.64,1.65,5.43,3.44,9,3.85,4.49.52,8.92,1.47,13.39,2.15a2.33,2.33,0,0,0,1.53-.63,1.16,1.16,0,0,0-.12-1.11,33,33,0,0,1-5.69-6.15c-1.68-2.26-3.61-4.34-5.43-6.49-4.74-2.39-7.29-7-10.64-10.73a21.81,21.81,0,0,0-2.61-2.16l-7.92-2.36L89.82,176l-17.76-3.83-7.27-4.77c-1.24-.81-1.19-2.92.21-4.41a2.54,2.54,0,0,1,3.13-.45c6.7,3.49,6.69,3.5,10.83,4.31l14.52,2.87c1.36.87,2.32,1.46,3.25,2.08.47.31.9.69,1.38,1a9.85,9.85,0,0,0,4.79,1.46,4.2,4.2,0,0,0,1.6-.26c1.17-.41,1.21-1.25.39-2.57-2.82-4.51-2.82-4.5-12.15-13.82-2.76-4.38-7.53-6.79-10.63-10.82-1.75-2.28-4.15-3.76-6.28-5.59-3-2.6-6.51-4.47-9.91-7-2-.47-4.14-1-6.35-1.51-4.47-1-8.9-1.32-13.35.32-1.73.64-4.3-1-5.52-3a3.78,3.78,0,0,1-.52-1.58c-.08-1,.68-1.74,2.09-1.71,2.26,0,4.53.54,6.76.39a57.11,57.11,0,0,0,7.23-1.44c4.39.62,9.42,1.36,14.46,2,.46.06,1-.41,1.47-.74a3.49,3.49,0,0,0,.7-4.44c-3.29-5.25-6.17-10.83-11.63-14.32-1.83-2.15-3.45-4.53-5.55-6.37s-4.73-3-6.57-5.24c-3.26-3.9-7.87-6.41-10.9-10.58a6.18,6.18,0,0,0-2.79-1.78c-1.58-.6-3.27-.88-4.89-1.4a22.69,22.69,0,0,1-3.06-1.27c-1.23-.6-1.33-1.55-1-2.9.31-1.13.76-2.07,2.1-2.21,4-.41,7.87.19,11.08,3,2.56,2.21,5.62,3.72,8.16,6,1.22,1.1,3.12,1.17,4.84,1.2a2.22,2.22,0,0,0,.85,2.74c.14.09,1-.56,1-.7A2.25,2.25,0,0,0,52.23,86.93Zm35.09,36.92a11.21,11.21,0,0,0-.71-8.23,6,6,0,0,1-.47-3.32,14.44,14.44,0,0,0-.89-6.64,7.31,7.31,0,0,1-.62-3.28c.46-3.5-.92-6.67-1.62-10.54,1-7.3,2-15.15,3.79-22.88a8.74,8.74,0,0,1,4-5.22c1.21-.82,2.18-.65,2.67.3.25.49.65,1.07.57,1.55-.73,4.46-1.51,8.92-2.37,13.36-.67,3.46.18,6.72,1,10l-.89,11.46c.59,2.56,1.43,4.74,1.51,6.94a38.21,38.21,0,0,0,1.3,8.29c1.55,6,3.93,11.73,5.41,17.75a7.39,7.39,0,0,0,1.37,3.06c3.74,4.27,6,9.61,9.9,13.73.32.34,1,.81,1.24.69a2.41,2.41,0,0,0,1.33-2.87c-1.27-7.35-1.28-7.35-.82-11.66.18-1.69.37-3.37.56-5.13-.39-1.59-.89-3.21-1.16-4.87a5.69,5.69,0,0,1,1.12-4.75c.71-.87,1.26-1.88,2.05-3.08.52-3.07,1-6.43,1.67-9.75.92-4.43,1.84-8.9,5.15-12.35.61-1.58,1.13-3.2,1.85-4.73a10.34,10.34,0,0,1,4.63-4.74,3.54,3.54,0,0,1,4.38,1.2c.54,1,.87,2.3.14,3.17-2.94,3.47-5.09,7.41-7.57,11.7-.9,4.57-1.67,9.62-2.91,14.54a122,122,0,0,0-2.38,15.06c-.43,3.51.41,6.71,1.3,10l-.43,8.38c.5,1.64,1,3.25,1.48,4.88,2.21,8.07,2.73,9.42,6.6,17.22,1.25,2.52,1.77,5.38,3.42,7.72,2,2.81,2.65,6.21,4.11,9.25a12.05,12.05,0,0,0,.94,1.41c.78,1.16,1.64,1.67,2.43,1.23a2.33,2.33,0,0,0,1-1.27,20.77,20.77,0,0,0-.39-13.36c.16-1.63.21-3.34.52-5,.61-3.33,1.36-6.64,2-9.73,2-3,4-5.78,4.44-9.3a20.23,20.23,0,0,1,1.54-6.41,59.48,59.48,0,0,1,4.93-7.06c.8-1.1,3.14-1.45,4.55-.51a2.64,2.64,0,0,1,.94,3.05,13.65,13.65,0,0,1-.83,3.25c-1.09,2-2.43,3.77-3.54,5.44l-4.15,17.91c-.92,1.37-1.58,2.29-2.19,3.24a5.24,5.24,0,0,0-.58,4.78c.37,1.06.62,2.17,1,3.38-.17,2.13-.38,4.37-.53,6.61a5.47,5.47,0,0,0,1.81,4.52,9.71,9.71,0,0,1,3.1,4.06l-.21,8.27c.47,2.26,1.6,4.32,1.5,6.63a13.43,13.43,0,0,0,2.09,8c1.22,1.91,2.22,4,3.52,5.8,1.67,2.37,1.74,5.37,3.27,7.76a30.79,30.79,0,0,0,2.09,2.65,3.19,3.19,0,0,0,3,1.22,2.68,2.68,0,0,0,2.35-1.95c1.06-3.8,2-7.65,2.86-11.18l3.3-4.64c1-3.56,1.93-7.39,3.09-11.16a3.24,3.24,0,0,1,2.53-1.86c1.47-.39,3.52,1.36,3.35,2.75-.78,6.18-2.13,12.23-3.39,17.87l-3.16,4.67-.84,5,2.7,9.39c2.48,3.52,4.73,6.78,7,10a7.12,7.12,0,0,0,2.31,2.42c3.76,1.75,5.38,5.78,9,8.12L211.75,269a47.51,47.51,0,0,0,5.64,3.4,11.18,11.18,0,0,0,4.92.87,2.89,2.89,0,0,0,2.3-2.18c.51-2.19.71-4.46,1.13-6.68a14.74,14.74,0,0,0-.82-8.3,11.93,11.93,0,0,1-.42-5c.09-2.24.77-4.49.07-6.72a19.18,19.18,0,0,1-.55-8.36c.72-5.61,1.33-11.23,2-16.72-.71-4-1.53-7.84-1.4-11.83a2.75,2.75,0,0,0-2-2.39c-1.63-.43-3.35-.52-5-.8-3-.5-5-2.44-6.38-5a8.37,8.37,0,0,1-.89-3.2,10.51,10.51,0,0,1,.39-3.35c1.3-5,1.47-10.07,2.31-15.08q1.39-8.36,2.61-16.75a9.74,9.74,0,0,0-.57-5,14.94,14.94,0,0,1-.79-6.67,6.86,6.86,0,0,0-.62-3.29c-1.54-3.61-4.07-6.79-4.6-10.86-.13-1-1.08-2-1.72-2.88-1.91-2.72-4.84-3.43-7.23-1.73-1.84,1.31-3.6,2.75-5.46,4-4.24,2.89-4.87,2.48-8-1.89a14.48,14.48,0,0,1-.89-1.44,10,10,0,0,1-1.37-6.48c1-6.14,1.86-12.3,2.91-18.43a10.8,10.8,0,0,0-1.43-8.07c-3.32-5.21-7.76-9.78-9.32-16a2.65,2.65,0,0,0-1-1.38c-4.22-3.05-6.83-7.46-9.85-11.54-1.68-2.27-3.46-4.47-5.21-6.68-1.28-1.62-2.94-1.7-4-.22q-2.88,4.16-5.73,8.33c-.67,1-3.74,1-4.68.13a11.87,11.87,0,0,1-1.26-1.12c-2.76-3.6-5.31-7.3-6.09-11.94a8.93,8.93,0,0,0-1.34-3.1,38.08,38.08,0,0,0-8.8-10.2c-6-4.65-6.08-4.71-17.15-10.57C110,33.09,108.67,32,107,30.93l-11-2.25c-3.27.92-5.56,2.53-7,5.12a11.88,11.88,0,0,1-3.17,3.88,8.07,8.07,0,0,1-6.26,2c-1.68-.24-3.34-.58-5-.81-3.5-.47-6.34-2.24-9.25-4.58-10.65-3.05-21.87-4.46-33.08-5.95-2.44-.32-4.34.86-6.18,2.22-1.57,1.16-1.43,2.5.47,3.84,2.76,1.94,5.54,3.86,8.68,6,3.36,4,6.86,8.45,10,13.13,2.22,3.27,4.3,6.65,6.19,10.12,1.06,2,1.48,4.24,2.41,6.28s2.53,3.87,3.15,6a18,18,0,0,0,6.48,9.64,4.13,4.13,0,0,1,1.14,1.22c.53,1,1,2,1.4,3.05,2.47,5.69,6.87,10.4,8.42,16.57a5,5,0,0,0,.81,1.49c3.47,5.13,6.73,10.42,10.92,15,.33.36,1,.37,1.59.55a2.87,2.87,0,0,0,.82,2.94c.07.07,1.07-.57,1-.74A2.35,2.35,0,0,0,87.33,123.85Zm269.09.44a2.08,2.08,0,0,0-2.72.94c-.1.18.61,1.06.68,1a2.83,2.83,0,0,0,1.66-2.48c1.27.2,2.45-.08,2.92-1.12,1.41-3.15,4.39-5.15,5.82-8.26,2.7-2.88,4.82-6.23,7.29-9.3,2.11-2.63,3.95-5.47,5.95-8.19a39,39,0,0,1,13-10.58,1.41,1.41,0,0,1,1.3.23,2.33,2.33,0,0,1,.59,1.48,3,3,0,0,1-.49,1.6c-2.21,3.27-5.91,5.09-7.93,8.68-1.92,3.4-4.51,6.4-5.93,10.13a7,7,0,0,1-2.25,2.5c-2.65,2.17-4.53,5-6.61,7.63a24.92,24.92,0,0,0-3.88,7.44c-2.66,2.94-4.15,6.68-6.65,9.72a6.58,6.58,0,0,0-1.6,2.93c-1.66,8.89-4.1,17.64-4.65,26.71a2,2,0,0,0,.77,1.47c.63.43,1.62-.1,2-1.41.67-2.16,1.21-4.3,2.79-6.07s2.68-3.63,4.22-5.27c1.93-2.06,4.26-3.77,6.05-5.93,1.44-1.73,2.61-3.66,4.47-5,2.28-1.67,4.48-3.46,6.79-5.08,5.55-3.9,11.15-7.74,16.74-11.6,1.11-.77,2.19-1,2.84-.32a2.4,2.4,0,0,1,.33,3.11c-3.49,4.43-7.2,8.64-12.09,11.68a91.57,91.57,0,0,0-12.16,9.22,18.13,18.13,0,0,0-3.54,3.59c-3.3,5.25-7.91,9.5-11,14.9-2,3.4-4.51,6.46-6.9,9.8l-2.88,11.19-2.86,4.58c-1.32,6.51-2.77,13.14-4,19.8-1.84,10-3.55,20.05-5.27,30.09a35.16,35.16,0,0,0-.45,5.06,2.18,2.18,0,0,0,.83,1.44c.6.5,1.57,0,2.06-1.3,1-2.64,1.07-5.61,2.51-8,2.06-3.43,6.21-5,7.92-8.77,3-2.78,4-6.68,6-10.05,1.4-2.43,3.33-4.54,4-7.37a6.34,6.34,0,0,1,1.64-2.92c2.32-2.49,3.44-5.8,5.8-8.32,1.52-1.62,2.54-3.67,4.44-5,3.68-2.63,7.23-5.45,10.93-8a80.23,80.23,0,0,1,7.24-4.38,3.16,3.16,0,0,1,3.15.18c.38.23.53.83.79,1.27l-4.23,6c-4.07,3.13-8.55,6.58-13,10a24.51,24.51,0,0,0-3.94,3.21c-2.53,3-5.36,5.85-6.6,9.69a18.75,18.75,0,0,1-3.14,5.92c-2.07,2.65-3.9,5.49-5.82,8.25-1.25,5.14-5.08,8.69-7.92,12.85-.63.92-1.23,1.88-1.84,2.82l-2.21,8.07-3.09,4.62c-1.36,7.46-2.85,15.23-4.17,23-.66,3.89-1,7.84-1.43,11.76a2.2,2.2,0,0,0,.48,1.58c.21.22,1,.11,1.41-.1a46.29,46.29,0,0,0,12.07-9.16c1.65-3.89,5.09-6,8.35-8.19a26.43,26.43,0,0,0,5.9-6,11.89,11.89,0,0,1,5.58-3.73c4.78-1.67,9.6-3.22,14.4-4.81,1.24-.41,3.92,1.33,3.74,2.49a4.73,4.73,0,0,1-1.5,2.9,4.47,4.47,0,0,1-1.42.87c-3.71,1.31-7.63,2.22-11.12,4s-6.6,4.34-9.85,6.61c-1.85,1.29-3.64,2.67-4.92,3.61-2.16,2.76-4.21,4.81-5.55,7.25-1.71,3.1-4.52,5-6.84,7.44a8.23,8.23,0,0,0-1.93,2.73,27.45,27.45,0,0,1-4.1,7.34c-2,2.7-3.66,5.64-5.49,8.5a56.75,56.75,0,0,0-2.06,13.35c1,3.8,1.28,7.8,2.88,11.44a12.24,12.24,0,0,1,.61,6.63,23.41,23.41,0,0,0-.23,3.38,2.27,2.27,0,0,0,.63,1.52c.56.49,1.46,0,1.92-1.39.9-2.66.9-5.69,2.57-8,2.59-3.64,4.55-7.81,8.54-10.35a13.5,13.5,0,0,0,3.49-3.64,20.33,20.33,0,0,1,9.38-7c.24-.09.89.43,1.08.81a2.73,2.73,0,0,1,.18,1.52,2.84,2.84,0,0,1-.55,1.55c-4.73,4.83-7.63,11.21-13.07,15.45a9.42,9.42,0,0,0-3.5,5.63c-.35,1.66-1,3.28-1.17,5-.44,3.52-2.38,6.29-4.42,9.37-.92,5.29-1.9,10.85-2.85,16.42a4.4,4.4,0,0,0,0,1.67,3,3,0,0,0,3.77,2.31c4.24-1.7,7.71-4.66,11.33-7.37,2.31-1.73,3.54-4.37,5.45-6.44,1.52-1.64,2.65-3.64,4.14-5.32,1.89-2.12,4.36-3.58,6.66-5.22,4.6-3.29,9.13-6.69,13.76-9.93a26.19,26.19,0,0,0,6.89-7.37c.62-.94,1.34-1.82,2.2-3a76,76,0,0,0,2.16-7.86c.61-2.88.43-5.59-1.5-8-1.42-1.76-2.79-3.56-4.22-5.31a9,9,0,0,1-1.63-8c.47-2.21,1.07-4.39,1.67-6.56s2.58-3.43,5.2-3.18c1.12.1,2.23.34,3.34.5a9.52,9.52,0,0,0,6.48-1.3,85.38,85.38,0,0,0,11-7.87,17.83,17.83,0,0,0,4.32-5.13,53.08,53.08,0,0,1,3.88-5.46c.62-2.82,1.27-5.57,1.82-8.34a14.9,14.9,0,0,1,3.16-5.93c-.77-2.83-2.25-5.07-5.2-6.05a22.06,22.06,0,0,1-3.2-1.13,10.41,10.41,0,0,1-4.57-4.8,4.68,4.68,0,0,1,.72-4.7,28.82,28.82,0,0,1,2.48-2.28c3.24-2.28,6.57-4.42,9.78-6.73a25.82,25.82,0,0,1,7.66-3.35c5.54-1.74,9.73-5.59,13.37-9.74,2.26-6.11,2.63-12.35,3.49-18.39-.86-2.23-1.67-4.34-2.47-6.45a11.38,11.38,0,0,0-.57-1.58,6.37,6.37,0,0,0-4-2.85c-3.4-1-6.71-.23-10,.88a7.47,7.47,0,0,1-4.24-4.9c-.59-2.17-.89-4.41-1.34-6.74.45-.81,1-1.77,1.52-2.71a25.41,25.41,0,0,1,9.42-9.53c1-.57,2-1.14,2.92-1.73,2.44-1.49,4.64-3.22,5.83-5.94a4.61,4.61,0,0,1,.95-1.39c2.54-2.52,3.53-5.75,4.1-9.12,1.31-7.81,2.53-15.63,3.77-23.45a5.09,5.09,0,0,0,0-1.69,11.74,11.74,0,0,0-.84-3.23,7.2,7.2,0,0,0-3.47-3.5,17.09,17.09,0,0,1-8.29.9c-4.46-.75-8.93-1.42-13.36-2.31a5.62,5.62,0,0,1-2.76-1.81,8.67,8.67,0,0,1-2.6-6.05,73.7,73.7,0,0,1,1.46-11.77c2.23-11.66,4.63-23.3,5.88-35.25-.6-2.09-1.37-4.23-1.81-6.42a5.14,5.14,0,0,0-4.28-4.48c-2.75-.61-5.63-.58-8.3-1.65A4,4,0,0,1,420.71,54a164.61,164.61,0,0,1-4.8-16.15c.3-3.47-.91-6.67-1.77-9.94-1.49-5.66-3.93-10.55-9.57-13.2a20.9,20.9,0,0,1-2.7-2A10.75,10.75,0,0,0,399,10.91c-4.89-1.43-9.8-2.78-14.95-2.88-1.75,0-3.63.26-4.58,1.62-2,2.83-4.7,4.88-7,7.34a9.43,9.43,0,0,0-1.75,2.83,16.33,16.33,0,0,0-.83,3.29A13.76,13.76,0,0,1,366,30.48a47.37,47.37,0,0,0-3.11,3.82l-7.85,2.64c-3.19,0-5.91-.53-8.16-2.5-1.83-1.6-3.82-2.24-6.16-1.19a16.24,16.24,0,0,1-3.15,1.23c-2.37.5-3.75,2.06-5.28,3.81a121.07,121.07,0,0,0-7.91,10.76l-2.7,11.25L318.45,65l-2.31,8a17.86,17.86,0,0,1-9,7.34,5.58,5.58,0,0,1-3.32.22,10.38,10.38,0,0,1-4.65-1.9c-1-.81-1.95-1.38-2.91-1.06a10.15,10.15,0,0,0-3,1.56A12.72,12.72,0,0,0,291,81.58c-1.36,1.8-2.63,3.66-4,5.51-4.31,20.44-5.35,26.47-7.16,41.73,1.56,6,3.93,11.73,5.33,17.77a11.67,11.67,0,0,1,.44,1.64,5.21,5.21,0,0,1-1.6,4.52c-3.48,3.25-7.78,3.76-12.12,0a5,5,0,0,0-6.15-1,10.36,10.36,0,0,0-5,6.49c-.68,2.74-1.26,5.51-1.89,8.35-.52.9-1,1.91-1.65,2.84a13.58,13.58,0,0,0-2,4.6,21.83,21.83,0,0,0,.88,12l-2.14,18.11c4.28,14,7.75,28.23,12.62,42.06-.29,2.29-.58,4.53-.86,6.77-.23,1.84-1.49,2.95-2.83,4a11.88,11.88,0,0,1-4.65,1.94c-3.52.87-4.87,2.55-4.89,5.7a5.3,5.3,0,0,0,0,1.68c2.49,6.87,3.85,14.11,7.6,20.57,2.25,3.86,3,8.48,6,12,1.82,2.15,3.32,4.57,5,6.83,1,1.36,2.16,2.62,3.14,4,1.32,1.84,2.49,3.78,3.81,5.62,2.71,3.77,3.07,8.46,5,12.53a4,4,0,0,1,0,1.68,10.61,10.61,0,0,1-.11,1.69c-.65,3.21,1,5.56,3.27,7.29,2.69,2.06,5.5,3.89,7.52,6.7a21.36,21.36,0,0,0,3.66,3.47c3.42,3,7.48,5.05,10.73,8.21a14.74,14.74,0,0,1,5.18,4.26c1.79,2.18,3.64,4.3,5.53,6.4a1.57,1.57,0,0,0,1.3.49,2.1,2.1,0,0,0,1.21-1.13c1.23-3.81,1.3-7.76,1.34-11.74a31.05,31.05,0,0,1-1.52-8.26c-.16-5.12-1.36-10.12-4.47-14.31-7.41-10-14.84-20-21.87-30.26-1.31-1.92-3.38-3-5-4.52a12.5,12.5,0,0,1-2.95-4.09c-2-5.24-3.58-10.65-5.26-16a7.92,7.92,0,0,1,0-1.69c-.13-1.78,1.23-4.61,2.09-4.26a3.34,3.34,0,0,1,1.69,2.47c.46,1.63,1.34,3.17,1.55,4.82.53,4.1,2.66,7.39,4.89,10.66a48.64,48.64,0,0,0,3,4.07,166.21,166.21,0,0,1,12.13,16.34c2.87,4.36,6.76,7.51,10.89,10.44a2.36,2.36,0,0,0,3-.44,3.52,3.52,0,0,0,1.12-3c-.24-1.67-.71-3.3-1.14-5.22l1-11.37c-.58-2.94-1.83-5.54-1.66-8.44a11.41,11.41,0,0,0-1.85-6.41c-1.42-2.44-2.92-4.85-3.16-7.77-1.66-3-1.84-6.51-3.26-9.58s-3.16-5.92-4.12-9.24-3.25-5.92-5.27-8.65c-4.34-5.88-9.11-11.5-11.17-18.77a18.19,18.19,0,0,0-2.53-4.39c-2.12-3.34-4.31-6.64-6.42-10-1-1.52-.84-3.23-.62-4.92a4.45,4.45,0,0,1,.41-1.64,3,3,0,0,1,2.61-1.59,3,3,0,0,1,2.83,1.51c1.22,2.52,2.22,5.15,3.43,7.68a32.58,32.58,0,0,1,2.75,6.16c.69,2.78,2.55,5,4.06,7.39s3.1,4.73,4.6,7.13a8.62,8.62,0,0,1,1.5,3c.46,3.17,3,4.54,5,6.48a16,16,0,0,1,2.88,4.14c.75,1.49,1,3.24,1.71,4.74,1,2,2.32,3.88,3.34,5.9a21.84,21.84,0,0,1,.9,3.22c.45,1.41,1.2,1.92,2,1.38.45-.3,1-.76,1.09-1.22a266.36,266.36,0,0,0,3.94-28.56l-1.05-5L326,218c-.86-2.8-1.85-5.46-1.5-8.37a9.75,9.75,0,0,0-.93-4.92,15.22,15.22,0,0,1-.53-1.61c-.64-2.22,0-4.5-.31-6.72s-1.44-4.28-1.23-6.63a7.45,7.45,0,0,0-.18-3.36c-2.39-5.74-3.17-12-5.36-17.74-1.39-3.68-2.52-7.47-4.9-10.73a42.1,42.1,0,0,1-3.42-5.84,3.61,3.61,0,0,1,.11-3.2c.23-.47.8-.78,1.22-1.16a13.79,13.79,0,0,1,2.51,2.22c3.55,5.11,7,10.29,10.47,15.45,1.65,2.43,1.92,5.15,2.16,8a14,14,0,0,0,6.87,10.9,5.4,5.4,0,0,0,1.64-2.92c1.94-10.57,3.37-21.23,5.91-31.68a35.64,35.64,0,0,0,.43-5.06,15.55,15.55,0,0,0-.64-6.69,10.75,10.75,0,0,1-.57-5c.54-4-.27-7.84-1.3-11.65l.44-8.14L335.48,108l.47-8.53c-.5-1.56-1.07-3.15-1.53-4.77a10.82,10.82,0,0,1-.17-5,2.81,2.81,0,0,1,1.89-2.53c.86-.18,1.84.81,2.48,1.82a13.24,13.24,0,0,1,1.55,3c.84,2.68,1.54,5.42,2.41,8.58l-.6,8.64a13.4,13.4,0,0,1,1.38,9.26,19.18,19.18,0,0,0-.19,3.38c0,1.39.56,2.24,1.5,2.25a3.31,3.31,0,0,0,1.58-.52,7.32,7.32,0,0,0,3.34-3.7,52.38,52.38,0,0,0,2.91-13.23c.33-3.55,2-6.4,4.18-9.15l2.44-8.14c4.3-5,6.2-10.61,3.44-17.25a26.7,26.7,0,0,0,2.62-4.17c1.3-3.23,4.38-5.18,5.71-8.34,4.22-5.77,4.34-5.91,5-10.44.56-3.92,1-7.86,1.52-11.78a11.69,11.69,0,0,1,.92-3.25,3.35,3.35,0,0,1,2.47-1.89c1.35-.25,3.7,1.74,3.54,2.92-.83,6.16-1.84,12.29-3,18.34a25,25,0,0,0-3,4.23c-1.34,3.1-2.34,6.33-4.72,8.9a6.87,6.87,0,0,0-1.45,3,71.69,71.69,0,0,0-1.63,8.31c-.42,3.55-2.28,6.32-4.22,9.09L364.07,95a23.92,23.92,0,0,0-4.78,10.81C358.41,112,357.38,118.14,356.42,124.28ZM212.71,489.58c3.21,2.09,6.1,3.71,9.53,4.43,12.19,2.56,24.38,5,36.84,5.85a2.08,2.08,0,0,0,1.51-.7c.46-.56,0-1.69-1.37-2-7.75-1.63-15.51-3.22-23.34-4.39-2.77-.42-5.6-.73-6.8-1.31-3.24-2-5.22-3-7.08-4.31-1.18-.81-1.36-1.81-.66-2.39a2.34,2.34,0,0,1,1.51-.68c11.72,1.92,23.43,3.9,35.15,5.85,1.67.28,3.36.36,5,.58a3.77,3.77,0,0,0,3.84-2.53c.44-2.21.83-4.44,1.14-6.67a3.64,3.64,0,0,0-2.5-3.87c-1.09-.27-2.16-.69-3.26-.86-2.79-.43-5.6-.74-8.4-1.13-2.39-.33-3.75-1.79-4.14-4.44-.31-2.09-1.11-3.05-3-3.48a27.2,27.2,0,0,0-3.33-.52,4.84,4.84,0,0,0-1.66.17c-1.09.28-2.19.6-3.25,1a8.15,8.15,0,0,1-6.59-.16c-1.48-.76-1.63-2.76-1.94-4.43-.27-1.4-2.7-2.85-3.91-2.57-1.64.39-3.27.86-4.95,1.31l-8.38-.26a28.53,28.53,0,0,0-3.22,1.17c-5,2.53-10,5.14-15.84,5.56a6.19,6.19,0,0,0-2.89,1.64,25.69,25.69,0,0,0-2.47,2.59,36.72,36.72,0,0,0,9.51,13.2ZM322.48,396.2c.39-.34.94-.6,1.14-1a8.82,8.82,0,0,0-.71-9.52c-2.61-3.68-5.17-7.41-7.85-11a28.13,28.13,0,0,0-4.37-5.15,102.93,102.93,0,0,1-8.47-8.21c-1.52-1.59-3.62-2.62-5.41-4a49.55,49.55,0,0,1-5.25-4.19c-1.59-1.58-2.84-3.5-4.3-5.22a41.78,41.78,0,0,0-4.54-5,2.5,2.5,0,0,0-3.1.29c-2,2-3.75,4.18-5.57,6.32-.82,1-.51,3.83.5,4.63a33.21,33.21,0,0,1,3.9,3.19,48.38,48.38,0,0,0,8.81,7.82c3.26,2.18,6.16,4.89,9.39,7.13a20.49,20.49,0,0,1,3.94,3.13,43.88,43.88,0,0,0,7.36,6.9c3.23,2.32,5.14,6,7.74,8.92a15.64,15.64,0,0,0,2.65,2.06C319.72,394.25,321.1,395.22,322.48,396.2Zm-71.9,54.31c-2.66-.31-5.43-.67-8.2-.91a2.22,2.22,0,0,0-1.46.72c-.54.53-.15,1.68,1.2,2,3.81.85,7.69,1.33,11.54,2a13.88,13.88,0,0,0,8.13-1.45c1.63.1,3.3.25,5,.25a2.27,2.27,0,0,0,1.44-.7c.58-.6.18-1.66-1.2-2-3.79-.85-7.6-1.72-11.58-1.54Zm-26.69-90.38a2.71,2.71,0,0,0,1.33,2.82,3.25,3.25,0,0,0,3.21.07,29.92,29.92,0,0,0,4.12-2.92,4,4,0,0,0,1.17-3c0-1.11-2.62-2.65-4-2.3a9.63,9.63,0,0,0-5.43,3.79A3.52,3.52,0,0,0,223.88,360.13Zm-8.76-77.79a6.39,6.39,0,0,0,1.82.27,5.58,5.58,0,0,0,1.48-.75,2.65,2.65,0,0,0-2.57-1.79,2.56,2.56,0,0,0-1.5.39C213.61,281.08,214,281.82,215.12,282.34ZM274,501.58a5.53,5.53,0,0,0,1.29-1.08,2.5,2.5,0,0,0,.41-1.62c-.25-1.44-1-1.93-2-1.3a2.52,2.52,0,0,0,.26,4Zm10.88-122.45-1-.85-.3,1.08Zm3.95,90c.21,1.52.8,1.69,1.61.42.12-.19-.35-.76-.55-1.15Zm9.83,12.38-1-.87-.32,1.16ZM246.25,357.68l-.87.95,1.15.31Zm7-35.59c-.21-.39-.48-1.15-.63-1.12-1.42.22-1.6.92-.47,1.81C252.29,322.87,252.9,322.33,253.28,322.09Z"/></g></g></svg>