<svg xmlns="http://www.w3.org/2000/svg" viewBox="0 0 366.66 585.31"><defs><style>.cls-1{fill:#f4f4ed;}</style></defs><title>pig</title><g id="Layer_2" data-name="Layer 2"><g id="Layer_1-2" data-name="Layer 1"><path class="cls-1" d="M363.58,288.93c-1.27-.12-2.51-.29-3.39-1.46-.08-.17-.28-.4-.29-.62a82.68,82.68,0,0,0-2.43-17.18,18.4,18.4,0,0,0-2.79-6.18,5.36,5.36,0,0,0-3-2.13,7.1,7.1,0,0,0-6,.33c-1.26,1.54-1.61,3.57-2.16,5.5a13.14,13.14,0,0,1-3.26,5.91c-.71.71-1.31,1.53-2.19,2.58l-3.71,2.06-3.51,1.95c-.51.59-.7.77-.84,1-1.9,2.66-2.78,6-5.34,8.19a18.52,18.52,0,0,0-2.68,8.61c-.08,5.3-.07,10.6-.1,15.57.77,1.74,1.45,3.1,2,4.52s.2,3-1.41,4.49a20.87,20.87,0,0,0-2.39.75,35.61,35.61,0,0,0-4.77,2.26,9.08,9.08,0,0,0-4.46,6.73c-.94,7-1.48,14.06.48,21a2.86,2.86,0,0,1,0,.76,7.78,7.78,0,0,1-3.3,4.83,21.7,21.7,0,0,0-7.47,3.79,7.6,7.6,0,0,0-3.32,6.17c.55,3.24,1,7,1.86,10.66a12.58,12.58,0,0,0-1.33-.1l-16.52-.3A32.47,32.47,0,0,0,274.3,376l-1.28-4.9a36.09,36.09,0,0,0-.18-6c-.91-5.24-.31-10.62-1.63-15.82a10.32,10.32,0,0,1-.09-3.77,33.9,33.9,0,0,0-.94-12,23.85,23.85,0,0,1-.56-6,71,71,0,0,0-1.4-15.82,31.48,31.48,0,0,1-.15-12,133.14,133.14,0,0,0,1.66-19.82c2-6.85,4.09-13.86,5.16-21.15a26.08,26.08,0,0,1,2-7.29c1.12-2.37,1.15-4.9,1.88-7.3a63,63,0,0,0,1.77-7.37,25.14,25.14,0,0,0,.33-5.28c-.19-5-.67-7.76-7.57-9.67-1-.26-2-.27-2.62-1.33a7.29,7.29,0,0,1,.07-4.44,86.27,86.27,0,0,1,2.44-9.51c1.8-5.26,3.81-10.44,5.87-15.61a37.12,37.12,0,0,0,2.58-13.33,40.16,40.16,0,0,1,.55-8.23,17.47,17.47,0,0,0,.2-6.78c-.43-2.3.21-4.56-.3-6.74a8,8,0,0,0-2.42-3.87c-2.49-1.42-5.08-2.14-7.94-1a3,3,0,0,1-3.45-.78c-2.07-5.14-1.41-10.42-.87-15.11-.58-3.83-1.09-7.07-1.57-10.32a16.46,16.46,0,0,0-4.8-9.49l-6.94-2.27c-3.44-6.17-5.79-12.48-5.95-19-3.74-8.06-3.74-8.06-6.83-11.89-1.78-1-3.35-1.76-4.85-2.67a9.81,9.81,0,0,0-4.79-1.56c-1.68,1.39-4.51.32-7,1.93-2.85,5.94-4.88,12.46-8,18.61.93,4.52-.76,9,.2,13.77l2.63,5.11a15.64,15.64,0,0,0-2.52,4.4,30.35,30.35,0,0,1-1.52,3.4l-5.42,3a17.21,17.21,0,0,1-3.5,6.45c-.14,1.7-.19,3.21-.4,4.71-.75,5.47.68,10.6,2.93,15.42a65.13,65.13,0,0,1,3.75,11.24c-.55,2.47-.95,4.71-2.17,6.63L205.43,176l-1.2,5.1c.15,1.46.42,3,.43,4.46,0,1.74-1.12,3.39-.58,5.14a2.89,2.89,0,0,0,.32.76c2,2.3,4,4.57,4.15,7.86,1.86,4.13,3.31,8.52,7.2,11.39a10.88,10.88,0,0,1,2,2.26c1.37,1.8,2.7,3.65,4,5.47.4,2.67,2.76,4.17,3.86,6.42.33.68.74,1.32,1.09,2,1.4,2.74,1.36,5.41-.79,7.73-1.39,1.5-2.79,2.92-3.42,5.11a23.83,23.83,0,0,0,.47,8.11c2.21,2.2,3.21,6,6.14,8.62a9.61,9.61,0,0,1,2.15,3.09,37.8,37.8,0,0,0,7.64,10.31,26.43,26.43,0,0,1,4.41,6.12c1.56,2.87,2.11,6.26,4.59,8.65a3.43,3.43,0,0,1,.58,1.38c2,6,5,11.57,7.19,17.52,2.35,6.46,4.15,12.94,3.92,19.88a4,4,0,0,0,.53,1.38l2.52,2.09a44.57,44.57,0,0,0,1.54,9.47,27.6,27.6,0,0,1,.53,11.28c-.05.44-.51.82-.77,1.23a3.27,3.27,0,0,1-2.69-1.16c-3.69-4.15-6.68-8.88-10.63-12.81-2.12-4.16-5.49-7.21-9-10.13a34.13,34.13,0,0,1-3.85-3.66,139.39,139.39,0,0,0-10.9-10.53,61.43,61.43,0,0,0-10.16-7.87,30.38,30.38,0,0,1-5.73-4.94,110.85,110.85,0,0,1-8.78-9.43,92.66,92.66,0,0,0-11.4-11.93,13.2,13.2,0,0,0-4.43-7.93c-1.33-1.17-2.52-2.49-3.83-3.67a18.86,18.86,0,0,1-3.6-4.84,21.34,21.34,0,0,1-2.57-9.44,54.7,54.7,0,0,0-2.52-11.83c-.42-1.45-.93-2.88-1.27-3.94,0-2.45.14-4.47.05-6.49a58.63,58.63,0,0,1,1.23-15.83,15.16,15.16,0,0,0,.14-6.87,12.84,12.84,0,0,0-1.72-1.32,1.89,1.89,0,0,0-2.58.8,10.1,10.1,0,0,0-.87,2.08c-1.18,6.19-2.68,12.35-3,18.67-.11,2.51-.67,5,0,7.55a9.25,9.25,0,0,1-.23,4.5,14,14,0,0,0,.63,8.2,3.6,3.6,0,0,1,.19,1.48,1.82,1.82,0,0,1-1.21,1.7,4.53,4.53,0,0,1-3.75-2.2c-3.66-5.15-7.13-10.42-10.47-15.79a28.53,28.53,0,0,1-3.7-9,27.24,27.24,0,0,1-5.21-7.51l-1.71-11.42c-.92-1.65-1.95-3.39-2.86-5.19a11.73,11.73,0,0,1-1.39-3.5,44.53,44.53,0,0,0-2.16-7.25c-1-3.12-2.16-6.24-2.24-9.57-.16-6.86.26-13.64,3-20,1.22-1.38,2.36-2.73,3.57-4,2.43-2.57,5-5,7.32-7.69,1.79-2.11,3.37-4.33,5.7-6,1.16-.82,1.88-2.33,2.65-3.62a25.64,25.64,0,0,0,1.37-3c.79-.63,1.15-1,1.57-1.26,2.23-1.45,3.81-3.21,3.69-6.15a4.58,4.58,0,0,1,1.18-2.7,37,37,0,0,1,3.21-3.16l2.24-5.94a43.72,43.72,0,0,1,.73-6.51,31.89,31.89,0,0,0,1.34-8.94c0-3,.33-6,.54-9.4a36.74,36.74,0,0,0,2.07-4.53,39.36,39.36,0,0,0,1-5.07c.84-1.41,2-2.64,2.16-3.78a3.59,3.59,0,0,0-2.23-3.9,4,4,0,0,0-3.63.39c-3.59,1.86-7.15,3.77-10.89,5.75-3.31,5.38-8.62,8.93-13.34,13.16a32.62,32.62,0,0,1-4.47,8.74,8,8,0,0,0-1.44,2.64,18.91,18.91,0,0,1-3.38,6.73,8.16,8.16,0,0,0-1.44,2.63c-1,3.89-3.18,7.42-3.54,11.55a26.09,26.09,0,0,1-1.5,5.08,13.72,13.72,0,0,0-.82,2.9A48.72,48.72,0,0,1,126.31,142c0,2.66.64,5.17-.16,7.69a9.37,9.37,0,0,0,0,3c.2,6.32.38,12.63.64,18.94a31.89,31.89,0,0,0,.66,6c.7,2.94.82,6.09,2.37,8.74,2.08,3.57,2.86,7.52,3.82,11.43a25.37,25.37,0,0,0,.76,2.93,82.46,82.46,0,0,1,4.05,15.37,16.86,16.86,0,0,0,2.46,6.31c1,1.49,2,3,2.87,4.47a11.52,11.52,0,0,1,1.77,5,10.15,10.15,0,0,1-.34,2.27c-1.31-.5-2.46-.94-3.62-1.36s-2.37-.84-3.58-1.26c-.94-.9-1.92-1.72-2.74-2.66-4-4.59-9.24-7.83-13-12.61a6.62,6.62,0,0,0-1.71-1.49,23.79,23.79,0,0,1-8-8.38l-4.95-4.19a11.53,11.53,0,0,0-2.34-1.91,18.61,18.61,0,0,1-5.8-4.75c-1.19-1.29-2.69-2.29-4-3.51a101.79,101.79,0,0,1-11.66-12.91c-2.3-3.1-3.45-6.74-5.32-10A12.41,12.41,0,0,1,77,161.15c.83-2.32,1.78-5.2,2.91-8A14.85,14.85,0,0,0,81.14,148a17.36,17.36,0,0,1,1.55-6.59,30.61,30.61,0,0,0,1.12-4.39,11.09,11.09,0,0,1,.94-2.85c2.51-4.18,3.66-8.85,5.07-13.44A11.21,11.21,0,0,0,89,112a9.55,9.55,0,0,0-4.44-2.74c-1.19-.4-2.38-.83-3.54-1.31a3.52,3.52,0,0,1-1.57-3.21c1.26-6,4.87-10.56,9.66-14,4.53-3.29,8.44-7.21,12.48-11a18.58,18.58,0,0,0,4.87-8.46,6.84,6.84,0,0,0-1.61-7c-.85-.89-2.14-1.4-2.4-2.89a6,6,0,0,1,1.4-4.14A38.14,38.14,0,0,1,108,52.63a10.71,10.71,0,0,1,5.3-2.82c5-.93,9.36-3.63,14.05-5.43a6.53,6.53,0,0,0,1.91-1.21c1.7-1.5,3.35-3.07,4.93-4.52,1.16-2.46,2.18-4.76,1.26-7.5L134,29.51c-.17-.19-.44-.34-.5-.56a2.65,2.65,0,0,1-.16-1.42,1.57,1.57,0,0,1,1-.94c4-.4,8.07,0,12.23-1a31,31,0,0,0,7.74-4.35,13.58,13.58,0,0,0,3.47-4,5.15,5.15,0,0,0-.46-5.71c-1.87-2.05-3.79-4-5.82-6.19L142.91.79C138.67.53,134.39.25,130.1,0a13.25,13.25,0,0,0-3,.16c-2.49.45-5,.91-7.43,1.53S114.83,3.13,112,4c-3.65-.72-7.68.13-11.72-.25A12.87,12.87,0,0,0,93.7,5.08c-2.52,1.18-5.05,2.34-7.53,3.61a12.57,12.57,0,0,0-3.1,2.15c-3.59,3.56-7.81,6.43-11.18,10.23a6.48,6.48,0,0,1-1.36.88l-4.14,0c-1.71.53-3.16,1-4.61,1.43a17.12,17.12,0,0,0-5.84,3.4C50.47,31.14,46.81,36.91,44,43.16A166.15,166.15,0,0,0,35.17,68.1c.72,2.18,1.42,4.36.7,6.66a13.39,13.39,0,0,1-1,2l-4.09,1.53c-2.73,2.92-3.67,6.29-4.05,9.88a37.66,37.66,0,0,0-.13,9.08c.48,3.47.06,7.13,1.95,10.33a50,50,0,0,0,4.91,14.25,15.86,15.86,0,0,1,1.56,5.05,33.13,33.13,0,0,0,2.6,9.48,18.53,18.53,0,0,1,.79,3.08c-.56,1.85-1.07,3.8-1.75,5.69a6.91,6.91,0,0,0,1.28,7.1l6,7.41c3.55,2.53,6.22,4.44,8.91,6.33a9.87,9.87,0,0,0,2.59,1.56c3,.92,5.21,3,7.43,5.07,2.93,2.77,5.9,5.52,9.74,7.1a14,14,0,0,1,4.8,3.65A66.17,66.17,0,0,0,89,193.08a70.43,70.43,0,0,1,8.71,7.22c2.75,2.61,5.32,5.38,8.49,7.53a12.58,12.58,0,0,1,2.6,2.73c3,3.77,5.94,7.51,10.07,10.19a32.37,32.37,0,0,1,4.43,4.13A18.89,18.89,0,0,0,125.4,227c3.77,2.6,7,5.86,10.39,8.85a12.26,12.26,0,0,0,2.32,1.94c3.49,1.73,6,4.56,8.65,7.28a31.05,31.05,0,0,0,3.35,3c2,1.54,4.09,3,6.13,4.44s4,3,6.33,4.73c.72,2.69,3.15,4.85,3.66,8-1.64.35-2.52-.7-3.4-1.45a29.46,29.46,0,0,0-12-6.19c-1.71-.44-3.4-1-5.07-1.6-3.33-1.2-6.64-2.44-9.95-3.69a16.39,16.39,0,0,1-2.77-1.22,25.29,25.29,0,0,0-6.35-2.44c-2.19-.63-4.32-1.47-6.53-2-2.44-.57-4.93-.89-7.25-1.29a11.54,11.54,0,0,1-4-6.1c.64-3.4-.26-7.08-.8-10.68a30,30,0,0,0-8.18-8.22l-5.28-.12c-2.27-1-4.67-1.9-6.85-3.16-3.55-2.05-7.47-3.07-11.27-4.43a8.24,8.24,0,0,0-5.9.09,16.09,16.09,0,0,0-6,7c-.47,2.66,1.18,4.32,1.29,6.35.13,2.58,1.29,4.88,2,7.29a10.35,10.35,0,0,0,3.26,5c1.74,1.47,3.48,2.93,5.24,4.36a17.22,17.22,0,0,1,4.88,5.72,9,9,0,0,0,1.35,1.66,14.92,14.92,0,0,0,9,1.25,21.75,21.75,0,0,1,6-.29,13,13,0,0,0,10-2.44c.5-.38,1.43-.19,2-.24l2.48,1.88c2.56.51,5.05.88,7.48,1.51,2.69.7,5.33,1.6,8,2.46a14.32,14.32,0,0,1,3.52,1.36c2.81,1.86,6.07,2.47,9.47,3.65a20.81,20.81,0,0,0,9.06,4.7,17.2,17.2,0,0,1,4.85,2.08c2.31,1.53,4.3,3.53,6.61,5s5.25,1.83,7.49,3.6c.59.47,1.27.83,1.89,1.27a62.35,62.35,0,0,0,9,5.54,14.64,14.64,0,0,1,4.28,3.08c3.46,3.74,7.57,6.69,11.45,9.93a135.09,135.09,0,0,1,14,12.79,5.61,5.61,0,0,0,1,1.12c4.28,2.62,6.64,6.84,9.24,10.88a13.22,13.22,0,0,0,1.28,1.41c1.64.95,3.65,2,5.53,3.25a2.44,2.44,0,0,1,1.06,2.8,5.18,5.18,0,0,1-2-.24,113.48,113.48,0,0,0-16.43-7.8,28.81,28.81,0,0,0-6.54-1.87,56,56,0,0,0-20.37.32c-2.22.49-4.45,1-6.7,1.32a9,9,0,0,1-3.75-.12,98.73,98.73,0,0,1-12.17-4.18c-4.65-2.12-9.58-3.13-14.39-4.62a9.31,9.31,0,0,0-3-.17,8.57,8.57,0,0,0-6.73,2.94,4.44,4.44,0,0,1-2.38,1.78c-3.16.66-5.95-.83-8.86-1.55a7.28,7.28,0,0,1-4.65-3.64,50,50,0,0,0-12.36-14.22,47.09,47.09,0,0,1-5-4.64,19.23,19.23,0,0,0-5.93-4.64c-2.28-1.05-4-3.12-6.77-3.46a13.81,13.81,0,0,0-5.75,1.22c-1.3,1.26-2.51,2.55-3.83,3.71a2.74,2.74,0,0,1-4-.44c-1.06-1.72-2.12-3.44-3.06-5.23a17.38,17.38,0,0,0-3-4.37A33.78,33.78,0,0,1,64,269c-2.3-1.65-4.57-3.26-6.82-4.88a8.76,8.76,0,0,0-8-1.38c-2.28,1.4-4.63,2.86-7,4.28-.18.11-.47,0-1,.06-6.41-4.64-11.66-10.78-16.79-16.37l-6.75-4.19c-2.81-.64-5.49-1.43-8.23-1.83A7.49,7.49,0,0,0,2,247.5a34.24,34.24,0,0,0-1.85,2.91,19.52,19.52,0,0,0,.67,7.84c1.78,6.05,4.07,11.93,5.67,18.05a24.46,24.46,0,0,1,.87,8.23c-.12,1.5-.49,3-.87,5.14,1.71,1.69,1.47,4.7,2.74,7,.87.8,1.68,1.43,2.35,2.18,3.05,3.35,6.88,6,9.35,9.9a8.5,8.5,0,0,0,2.88,2.41c1.94,1.17,4,2.17,6.39,3.46,3.69,4.83,9.41,8.45,12.59,13.31,1.24,3.43-1.86,4.65-1.88,7.47L42,341.63c3.72,4.09,9.19,5.24,12.69,7.9,9.06,3,17.7,3.42,26.21,4.47,1.5.18,3,.31,4.51.43l-2,2.17a47.21,47.21,0,0,0-4,4.63c-.87,1.22-1.25,2.79-2,4.1-1.82,3.07-4.56,5.52-5.94,8.91a2.62,2.62,0,0,1-2.56,1.38l-10.73.21c-1.63,0-3.23-.55-3.84-2-2-4.7-4.56-9.14-6.74-13.76a22.15,22.15,0,0,0-3.5-5,36,36,0,0,0-6.69-6.3,6.89,6.89,0,0,0-1.37-.56c-1-.42-3.55,1-3.66,2.07-.47,4.61-.12,9.22-.09,13.82a197.32,197.32,0,0,1-.63,21.45l-1.9,4.4c-.13,1.4-.31,2.93-.39,4.45a11,11,0,0,1-2.87,6.93c-4.9,5.55-5.36,5.92-11.94,9.36-1.36.71-2.65,1.5-4.1,2.08a15.65,15.65,0,0,0-8.65,8.42c-.1,1.43-.28,3-.28,4.5s.18,3.06.29,4.59c.13,1.79.53,2.57,2.4,3.61s3.66,1.89,5,3.52c1.7,2.13,4.26,2.67,6.5,3.85a16,16,0,0,0,7.31,2,9.64,9.64,0,0,1,6.88,2.88c1.46,1.44,3,2.79,4.52,4.17,2.71,2.46,6.47,3,9.44,5,.76.52,2,.4,3,.49,1.53.14,3.07.22,4.54.32,4.06,2.24,8.59,3.61,11.7,7.26l4.08,2.08a29.43,29.43,0,0,0,5.54,2.6c2.58.69,4.13,2.91,6.1,4.51a10.8,10.8,0,0,0,2.65,1.49A36,36,0,0,1,95,483.7a62,62,0,0,0,5.58,5.28,26.32,26.32,0,0,0,6.4,4.18,4.15,4.15,0,0,1,2.28,3.71,358.3,358.3,0,0,1-.76,39.75c-1.24,2.43-2.69,4.59-2.83,7.25-.11,2.13-1.44,3.81-2,5.75s-.57,4.06-1.24,6a38.84,38.84,0,0,1-3.2,6.93c-2.06,3.49-3.65,7.35-7.06,9.91a3.74,3.74,0,0,0-.82,1.28,3.06,3.06,0,0,0-.05,2.91,3.1,3.1,0,0,0,2.29,1.76,105,105,0,0,0,16.85.67,9.26,9.26,0,0,0,2.9-.86,2.3,2.3,0,0,0,1.19-.94,23.18,23.18,0,0,1,4.31-6.29,30.6,30.6,0,0,0,4-4.62c1.37-2.12,2.29-4.54,3.54-6.75a4.49,4.49,0,0,0,.18-4.32c-.21-.47-.49-.9-.73-1.35-1.56-2.91-1.83-5.86.16-8.64,1.82-2.54,2.35-5.66,4-8.26.33-2.53.56-5.08,1-7.59.25-1.37,1-1.82,1.52-1.29a2.48,2.48,0,0,1,.71,1.32c.8,7.67,0,15.37.19,23a18.21,18.21,0,0,1-.61,6.2c-2,4-4.05,8.09-6.17,12.16a4.43,4.43,0,0,1-2.4,1.85c-2.18.91-2.84,2.77-2.92,4.92a6.61,6.61,0,0,0,3.9,6.08,1.82,1.82,0,0,0,1.35.12A13.75,13.75,0,0,1,134,582c3.33.14,5.89-1.38,8.09-3.7a13.4,13.4,0,0,1,1.08-1.1,6.49,6.49,0,0,1,4.15-1.47c3.54-.14,3.54-.26,5.46-4.15,2-4.16,2.69-8.8,5-12.85a7.19,7.19,0,0,0,.66-3c.14-2,.15-4.09.17-6.14a8,8,0,0,1,1.09-4.39,12,12,0,0,0,2-5.72,6.43,6.43,0,0,1,.88-2.92,14.56,14.56,0,0,0,1.94-7.32c.09-4.1.28-8.19.42-12.05a22.8,22.8,0,0,0,3-10.45,5,5,0,0,1,.18-1.52,11.65,11.65,0,0,1,1.11-2.81,33.68,33.68,0,0,1,6.18-6.81,9.83,9.83,0,0,1,5.5-2.51,54.39,54.39,0,0,1,12.25.16c1,.41,1.94.73,2.83,1.22a5.13,5.13,0,0,0,4.4.2l2.82-1,4.64,2.11c10.87,0,22.14,0,33.4-.46a9,9,0,0,0,2.87-.94c1.41-.58,2.65-1.56,4.26-1.64,2.64-.12,4.9-1.3,7.16-2.55,1.1-.61,3.67.43,3.91,1.46.34,1.49.5,3,1,4.48,2.36,7.55,2.58,7.54,2.57,11.81,0,3.24,1.3,5.94,2.86,9,.1,3.24.21,6.82.34,10.4a14.17,14.17,0,0,0,1.69,5.85,2.92,2.92,0,0,1-.27,2.86c-1.51,2.81-.84,6.08-1.8,9a37.8,37.8,0,0,1-3.72,8.34c-1.72,2.73-1.58,5.9-2.79,8.69-.61,1.4-1.69,2.71-1.9,4.15a28.9,28.9,0,0,1-2.73,8.7,2.9,2.9,0,0,0,.42,2.91,8.24,8.24,0,0,0,3.38,3c.91-.42,1.82-.89,2.76-1.25,2.34-.89,3.62-.4,4.57,2.29a4.41,4.41,0,0,0,4.44,3.35c3.1.08,6.13-.14,8.85-1.91a6.46,6.46,0,0,1,2.8-1.1,13.23,13.23,0,0,0,8.14-3.88,16,16,0,0,1,3.74-2.62,6.4,6.4,0,0,0,3.15-3.14c.87-1.85,1.86-3.64,2.79-5.46l.83-7.73c4.06-7,6.75-14.79,10.88-21.85,1.32-2.26,1-5,2.23-7.3a12.82,12.82,0,0,0,1.59-5.88c.17-6.15.38-12.29.47-18.44.09-5.64-.27-11.28.34-16.92,1-2.33,2.39-4.51,2.6-7.15a9.94,9.94,0,0,1,2.45-5.51c.65-.79,1.31-1.58,1.9-2.42a9.2,9.2,0,0,0,1.71-4.21,8.12,8.12,0,0,1,1.55-4.25c.68-.84,1.31-1.72,1.91-2.61,1.31-.89,1.7-1.51,1.53-2.37.82-1.32,1.62-2.66,2.45-4a15.72,15.72,0,0,0,2.39-7.15,6.45,6.45,0,0,1,2.17-3.95c.91-.87,1.76-1.2,2.34-.72a2.07,2.07,0,0,1,.69,1.34c0,.77.07,1.53.1,2.3-.75.2-1.48.57-2.18.83a10.18,10.18,0,0,0,1.06,7.44,2.85,2.85,0,0,0,1.5,1.38c0,1.14.08,2.28.11,3.42.07,2.56,0,5.13-.1,7.68a9.92,9.92,0,0,1-1.22,4.39c-1.49,2.68-2.88,5.42-4.22,8.17-.15.31.16,1,.43,1.35a27.87,27.87,0,0,0,6.71,6.18c2.26-.09,3.92-.9,4.29-3.38a8.86,8.86,0,0,1,.63-3c2.1-3.72,2.53-7.72,2.33-11.88-.15-3.07-.2-6.15-.29-9.17l-2.25-6c0-.43,0-.87-.06-1.3.25-.51.47-1,.68-1.57a3,3,0,0,0-.91-3.08c-.24-6.07-.3-12.24-.28-18.41a14.32,14.32,0,0,0-1.82-7.35,7.4,7.4,0,0,1-.66-1.38c-3.33-10.4-3.32-10.41-5.47-14.15a38.58,38.58,0,0,0-4.28-6.33q-2-2.33-4.14-4.57,2.53-2.15,5.1-4.25c2.74-2.24,5.34-4.61,8.24-6.69a23.18,23.18,0,0,0,6-6.75,4.11,4.11,0,0,0,.57-2.91,11.25,11.25,0,0,0-.61-2.18,9.5,9.5,0,0,1-.12-6,14.09,14.09,0,0,1,4.21-7c1.32-1.25,3.09-1.69,4.48-3.11,1.18-2,1.23-4.67,2.87-6.74a73.25,73.25,0,0,0,4-6.22c.16-1.17.28-2.17.42-3.17a6.84,6.84,0,0,0-.21-4.09c-2.53-2.67-4.48-6.19-6.39-9.26-.55-6,2.8-10,4.58-13.09,1.17-3.76,1.95-6.17,2.66-8.59a12.42,12.42,0,0,0,.84-3.68c-.11-3.8.36-7.57.36-11.35A3.32,3.32,0,0,0,363.58,288.93ZM131.82,140.65a11,11,0,0,0,.86-3.64,8.21,8.21,0,0,1,1.26-4.26,8.24,8.24,0,0,0,1.29-5.77,13.52,13.52,0,0,1,.32-3.73c.25-1.74.58-3.47,1-5.76,2-2.86,4.49-6.06,5.42-10.07A60,60,0,0,0,146,102a43,43,0,0,0,2.4-5.52,10.23,10.23,0,0,1,3.46-2.88,24.06,24.06,0,0,0,7.5-7.35,16.35,16.35,0,0,1,2.39-2.92,5.72,5.72,0,0,1,2-.94c.56-.21,1.64.69,1.52,1.27-.25,1.23-.57,2.44-1,4.43.17,2.25.36,5.26.66,8.27a11.23,11.23,0,0,1-.34,5.23,19.62,19.62,0,0,0-1.05,8.19,15.56,15.56,0,0,1-.19,2.22c-1.39,4.1-5.32,6.94-5,11.12l-4.54,5.06a7.2,7.2,0,0,0-.69,1.21,15.24,15.24,0,0,1-4,6.29,35.75,35.75,0,0,0-2.93,3.42c-.49.58-.86,1.4-1.48,1.69-3.74,1.78-5.65,5.77-9.3,7.62a17.54,17.54,0,0,1-2.1.8,1.73,1.73,0,0,1-1.73-1.13C131.07,145.59,130.81,143.12,131.82,140.65ZM73,150.09c-.45,1.53-.51,1.51-2.61,3.52-2-1.21-3.2-3.17-4.25-5.16-1.18-2.23-2.23-4.55-3.18-6.89a26.37,26.37,0,0,1-1.55-5.05,115.84,115.84,0,0,1-2.09-11.94c-.24-3-1.66-5.85-1.15-9a18.3,18.3,0,0,1,0-8.26,24.66,24.66,0,0,0,.53-4.51,25.59,25.59,0,0,1,1.42-8.18A19.82,19.82,0,0,0,61.1,91a15.24,15.24,0,0,1,1.61-5,18.56,18.56,0,0,0,2-5.69,29.69,29.69,0,0,1,1.91-5.22l-.13-4.36c1.25-2.66,3.47-4.87,4.32-7.88a7.68,7.68,0,0,1,2.1-3.11c4-3.91,7.1-8.52,10.54-12.87,1.4-1.77,3-3.37,5.45-6A27.24,27.24,0,0,1,94.93,32c1.24-1.24,2.75-2.21,4-3.41A2.77,2.77,0,0,0,100.09,26a2.22,2.22,0,0,0-2.79-.29c-2.25,1.14-4.43,2.42-6.37,3.5-3.27,4.26-6.37,8.24-9.38,12.29a36.43,36.43,0,0,0-2.22,3.83c-.69.55-1.24,1.08-1.88,1.48a12.9,12.9,0,0,0-4.5,5,39.19,39.19,0,0,1-6.14,8.6,19.7,19.7,0,0,0-5.33,10.72c-.44,3.07-1.89,5.75-2.69,8.67s-1.39,5.89-2.88,8.61a12.62,12.62,0,0,0-1,3.61c-.44,2.23-.8,4.48-1.14,6.73-.56,3.74,0,7.6-1.26,11.26,0,3.79-.24,7.6.16,11.35.53,5,1.69,10,2.37,15,.55,4.05,2.52,7.66,3.34,11.63a6.38,6.38,0,0,0,1,2c2.72,4.25,5,8.76,8.08,12.79a8.61,8.61,0,0,1,1.58,5,4,4,0,0,1-.43,1.32,4.13,4.13,0,0,1-1.46-.16,5.74,5.74,0,0,1-1.79-1.34,16.58,16.58,0,0,0-8.19-5.23,6.31,6.31,0,0,1-1.11-.54c-2.93-2.43-5.64-4.7-8.37-7a16.21,16.21,0,0,1-4-4.5,25.59,25.59,0,0,1-1.13-2.62c.53-3.19,3.19-5.52,2.83-8.85a21.24,21.24,0,0,0-1.37-3.5c-2.4-4-3.64-8.34-4.79-12.74a19.87,19.87,0,0,0-2.41-6.32c-2.31-3.44-2.79-7.56-4.12-11.36a3.31,3.31,0,0,1-.15-1.5c.36-2.56-.43-5-.58-7.53s-.16-5-.1-7.57a6.14,6.14,0,0,1,1.12-3.56c.83-1.11,2.13-1.25,3.32-1.64A24.59,24.59,0,0,0,39,82.06a4.34,4.34,0,0,0,2.82-4.14c-.21-4.59,1.48-9,.93-13.13,1.86-3.88,3.73-7.17,4.86-10.83a24.94,24.94,0,0,1,3.47-6.71,26.08,26.08,0,0,0,4-8.94,6.55,6.55,0,0,1,.71-1.37c1.56-1.66,3.63-2.66,5.47-4A55.64,55.64,0,0,0,66,28.7c1.19-.69,2.68,0,4.16.08a5.38,5.38,0,0,0,4.67-2.06c.95-1.18,1.66-2.55,2.63-3.7A50.94,50.94,0,0,1,87,14.42c2.58-.67,4-3.09,6.82-4.51l6.66-1.12,6.13,1.39c6.86-.64,13.38-2.64,20.27-4.77a50.15,50.15,0,0,0,12.34.84L144.72,9a13.18,13.18,0,0,1,5,4.52,3,3,0,0,1-.63,4.06,12.47,12.47,0,0,1-6.35,2.25c-2.27.12-4.54.18-6.83.27-2.76,1.32-5.5,2.6-8.23,3.94A4.85,4.85,0,0,0,125,26.59a5.23,5.23,0,0,0,.31,4.06l3.07,3.06a5.44,5.44,0,0,1,.1,2A15.86,15.86,0,0,1,125.22,41c-2.82.73-5.74,1.5-8.67,2.24A31.72,31.72,0,0,0,99.15,54.17c-3,7.51-3,7.51-3.16,11.11.76,1.84,3,1.74,4.31,3.4a3,3,0,0,1-.17,3.28A25.53,25.53,0,0,1,97.94,75c-1.77,2.14-3.6,4.23-5.64,6.62-4.07,2-7.05,5.95-11,8.7a9.43,9.43,0,0,0-2,2.27C76.77,96.12,75,100.06,73,103.87a7.82,7.82,0,0,0-.61,2.19,5.36,5.36,0,0,0,2,5.39,20.81,20.81,0,0,0,3.19,2c1.55.85,3.17,1.56,4.73,2.41a3.68,3.68,0,0,1,1.85,2.4c.17,2.26-.86,4.35-1.64,6.46a49.69,49.69,0,0,1-3,6.93,15.35,15.35,0,0,0-2.15,8.6A33.51,33.51,0,0,0,73,150.09Zm15.25,79.6c-.9,3.16-3.52,5.47-3.7,8.73-1.09-.07-1.76.08-2-.17q-4-4-7.79-8.2a7.73,7.73,0,0,1-2.08-4.76A11.12,11.12,0,0,1,73,223c.75-.19,1.52-.64,2.15-.49,2.69.63,5.38,1.31,8,2.2a10.9,10.9,0,0,1,5.07,3.9A4.75,4.75,0,0,1,88.25,229.7Zm7.21,12.85A2.19,2.19,0,0,1,92,242.4a19.11,19.11,0,0,1-.08-2.84,1.49,1.49,0,0,1,1.5-1.34A3.5,3.5,0,0,1,95.46,242.54ZM11.12,424.81a1.53,1.53,0,0,1-2.2-1,1.26,1.26,0,0,1,.27-1,2.23,2.23,0,0,1,1-.64,6.15,6.15,0,0,1,1.35-.09c.29.34.78.65.84,1C12.57,423.87,12,424.49,11.12,424.81ZM264.66,271.34a40.05,40.05,0,0,1-2.7-11A31.39,31.39,0,0,0,259,250.3c-.83-6.3-.36-12.79-3.74-18.61a31.75,31.75,0,0,0-.84-10.46c-.91-3.21-.62-6.52-.38-9.91-.46-1.62-1-3.3-1.38-5a17.73,17.73,0,0,1-.6-4.48c.21-4.62-.82-9.05-2-13.44a33.53,33.53,0,0,1-1.25-7.44,40.63,40.63,0,0,0-2-11.92c-1.22-3.6-1.62-7.4-2.37-11.11-.45-2.23-.85-4.48-2.44-6.28a1.72,1.72,0,0,0-2.49.42,4.23,4.23,0,0,0-.35.76c-.4,2.3,1.18,4.25,1.43,6.52A64.89,64.89,0,0,0,242,166a25,25,0,0,1,.82,3.67,59.84,59.84,0,0,0,2.69,13.59c-1,3.88-.28,7.88.86,11.77a61,61,0,0,1,1.72,9.67,118,118,0,0,1,1.21,16.61,20,20,0,0,0,.7,4.47A99.23,99.23,0,0,1,251.86,237a60.74,60.74,0,0,0,2.59,12.59c2,6.29,2.75,12.84,3.36,19.35.58,6.27.46,12.6.58,18.91a3.82,3.82,0,0,1-.65,2.88c-.4-.29-.92-.48-1.15-.85a46.31,46.31,0,0,1-3-5.27A104.22,104.22,0,0,0,246.67,272c-2-3.23-3.78-6.59-6.76-9.09a3.84,3.84,0,0,1-.94-1.18c-1.95-3.88-5-7-7.46-10.49a20.4,20.4,0,0,1-3.14-6,19.66,19.66,0,0,1-.44-2.68c1-3.29,3.47-5.3,4.91-7.71,1.23-2.94.55-5.69,0-8.39a6.43,6.43,0,0,0-1.36-2.67c-1.77-2.13-3.68-4.14-5.52-6.21a26.44,26.44,0,0,1-1.94-2.3c-1-1.44-.95-3.38-2.34-4.7a15.7,15.7,0,0,1-2.81-3.55c-2.63-4.61-5.16-9.28-7.67-14-1.07-2-2-4.08-3-6.14a6.36,6.36,0,0,1,2.66-7.88,28.94,28.94,0,0,0,4-2.21,15.1,15.1,0,0,0,2.25-2.49c.47-2.66-1.06-4.85-.08-7.16.25-.59-.14-1.47-.27-2.21-.39-2.23-.8-4.46-1.38-7.65-2.45-5.27-6.15-11.18-5.62-18.77l2.95-6.69a24.62,24.62,0,0,0,7.57-4.85,8.44,8.44,0,0,0,.09-8.68c-.22-.41-.42-.84-.63-1.26l1.89-3.34c.17-2.33-1-3.81-1.46-6.11l.47-6c3.18-6,5.9-12.06,10.8-16.79,1.19-.68,2.33-.16,3.41.52.64.4,1.19.94,1.82,1.37a9.61,9.61,0,0,1,4.29,7.65c0,.5.1,1,.14,1.51a38.37,38.37,0,0,0,4.82,15.81c2.29,4.19,5.39,7.3,10.42,7.9a4.9,4.9,0,0,1,1.36.63,7.71,7.71,0,0,1,2.15,3.94,42.17,42.17,0,0,1,1.57,10.47c0,3.54.3,7.08.22,10.61a15.22,15.22,0,0,0,3.52,9.78,4.22,4.22,0,0,0,3.92,1.85c1.25-.12,2.49-.45,3.75-.52a4.27,4.27,0,0,1,4.06,2.18c0,2.47,0,5.23,0,8,.06,2.53.21,5.05.34,7.88-.54,2.93-1.39,6.08-1.74,9.37a23.28,23.28,0,0,1-4,11.34,11.38,11.38,0,0,0-.89,1.68c-1.34,5.24-2.56,10.14-3.86,15a24.08,24.08,0,0,0-.14,11.27,4.35,4.35,0,0,0,3.47,3.61c1,.21,2,.23,3,.51a4,4,0,0,1,2.77,2.3c.51,1.56,0,3.06-.2,4.54-.36,2.75-.94,5.48-1.42,8.22a7.35,7.35,0,0,1-.45,2.22c-2.86,5.18-3,11.22-5.33,16.57a19.81,19.81,0,0,0-.85,4.44c-.27,1.49-.42,3-.83,4.45-.18.65-.86,1.16-1.29,1.69C265.11,271.51,264.72,271.49,264.66,271.34Zm-96.82,59.38a14.62,14.62,0,0,1,5.84-3.52c2.14-.51,3.71.48,5.1-.57,1.58-2.64,4.18-3.65,7-4,3.25-.37,6.55-.47,9.83-.55a28.82,28.82,0,0,1,16,3.82c5.41,3.26,11.51,5.23,16.66,9a8.1,8.1,0,0,0,2,1c3.39,1.22,6.22,3.33,9.11,5.52a37.87,37.87,0,0,0,5.67,7,11.93,11.93,0,0,1,2.3,3c4.54,8,9.34,15.77,13.26,24-4.36,0-8.7,0-12.74,0l-6.34-2.4c-3.79-.15-7.71-.11-11.52,0-1.14-3.76-1.8-7.55-3.17-11-1.74-2.68-4.61-2.17-6.82-3-8.09-4.95-10.69-6-17.17-6.71-.81.45-1.91,1-3,1.67a5.76,5.76,0,0,0-3.13,5.64c.14,2.52.4,5,.6,7.4.6,1.07,1,2,1.59,2.83.84,1.26,1.78,2.45,2.65,3.69a12.94,12.94,0,0,1,2.07,3.14,12,12,0,0,0,.74,1.76q-7.7.19-15.39.32c-8.71.13-17.42.3-26.13.31a27.88,27.88,0,0,0-10.55,2.32c-8,.13-16.23.28-24.42.36a45.56,45.56,0,0,1-6.12-.38,4.21,4.21,0,0,1-3.42-2.68c-.83-1.87-1.76-3.69-2.53-5.28l-.94-10.85-.19-.32c.55-.06,1.09-.14,1.64-.18a15.5,15.5,0,0,0,7.11-2.42,36,36,0,0,1,9-4.05,42.93,42.93,0,0,0,6.23-2.75c2-1,4.07-2,6.06-3.14q4-2.2,7.89-4.52a10.12,10.12,0,0,0,3.81-3.63,18.76,18.76,0,0,1,5.14-5.49C163.7,334.45,165.81,332.62,167.83,330.72Zm43.55,33.73c-1.07,1-2.16,2-3.15,2.85-.64-.12-1.26,0-1.51-.3a6.26,6.26,0,0,1-1.59-4c0-.43.31-.88.51-1.37,2-1,3.74-.21,5.44.88A1.48,1.48,0,0,1,211.38,364.44ZM68.66,347.67a35.93,35.93,0,0,1-5.92-1.25c-3.4-1-6.77-2.08-10.15-3.12a13.3,13.3,0,0,1-5.29-2.86,5.55,5.55,0,0,1-1.24-1.85,1.67,1.67,0,0,1,.07-1.41,9.94,9.94,0,0,1,2.12-2.07c1.94-1.35,2.26-3.2,2-5.34A8.31,8.31,0,0,0,48.05,325q-4.2-4.36-8.59-8.54a25.7,25.7,0,0,0-3.08-2.2c-2.89-2-5.8-4.05-8.67-6.12a45.21,45.21,0,0,1-9-8.09c-2.06-2.53-4.49-4.77-6.73-7.16-1.82-1.93-1.83-4-.55-6.25.74-1.3,1.36-2.68,1.91-3.79A56.82,56.82,0,0,0,8,264.54c-1-2-2.17-4-3.05-6.1a19.1,19.1,0,0,1-1.14-4.37,4.48,4.48,0,0,1,.4-2.18,3.82,3.82,0,0,1,3.51-2.44,15,15,0,0,1,2.25.25,35.39,35.39,0,0,1,8.36,2.77,97.66,97.66,0,0,1,9.45,9.14,43.88,43.88,0,0,0,9,8.37c1.81,1.68,2,4.19,4.5,4.52a6.82,6.82,0,0,0,4.53-2.43A30.69,30.69,0,0,1,49,268.84a4.74,4.74,0,0,1,5-.62,10.5,10.5,0,0,1,3.24,1.91c2.87,2.84,6,5.55,7.75,9.25a39.07,39.07,0,0,0,6,8.71c1.16,1.33,2.21,2.75,3.11,3.89,2.46,1.57,4.72,2.52,7,2.11,2.23-1.29,2.93-3.32,4.26-4.82a4.45,4.45,0,0,1,4.84-1.16,12.76,12.76,0,0,1,5,3.28,67.77,67.77,0,0,0,6.85,5.94c2.14,1.75,3.7,4.12,5.94,5.83a21.34,21.34,0,0,1,3.08,3.32,29.45,29.45,0,0,0,1.82,2.42,25.11,25.11,0,0,1,5.34,7.3,6.5,6.5,0,0,0,3.88,2.11c2.47.51,4.95,1,7.44,1.45,4.2.71,8.06.11,11.17-3.15a9,9,0,0,1,1.33-.95,6.6,6.6,0,0,1,2.1-.3,62.22,62.22,0,0,1,13.09,3.7,2.64,2.64,0,0,1,1.72,2.3,3.19,3.19,0,0,1-2,2.08c-3.81,1.28-7.54,2.61-11.7,2.73s-8.48,1.16-12.72,1.78a17,17,0,0,1-3.74.47,19.29,19.29,0,0,0-9.44,1.8c-4.15-.55-7.89-2.8-11.7-1.38a33.52,33.52,0,0,0-12.56-4.43c-4-.62-7.76-2.24-11.82-4l-5.62-.48c-.9-.57-1.79-1.06-2.6-1.65a25.65,25.65,0,0,0-10.2-4.82,13.28,13.28,0,0,1-4.84-2.1,22.27,22.27,0,0,0-3.25-1.93c-4.71-2.12-8.35-5.59-11.83-9.27-2.6-2.75-5.16-5.54-7.87-8.19a22.9,22.9,0,0,0-3.7-2.55.93.93,0,0,0-1.36.25,4.32,4.32,0,0,0-.14,1.57c1.77,2,3.57,4.08,5.49,6.07a63.14,63.14,0,0,1,4.26,5.3c2.45,3.17,5.09,6.24,8.51,8.2l3.31.15,1.51,2.71,6.67,4.13a41.28,41.28,0,0,1,10.11,3.93,46.79,46.79,0,0,0,12.85,4.42A23.66,23.66,0,0,1,91,328.25c1.79,1,3.84,1.15,5.84,1.49,4,.7,7.92,1.63,11.37,3.78,2,.21,4.07.3,6,.64s3.91,1,6.15,1.52a46.76,46.76,0,0,1,11.64-2.33,56.92,56.92,0,0,0,10.45-1.74,27.21,27.21,0,0,1,9.42-.54c2-.7,3.66-1.36,5.35-1.83a2.08,2.08,0,0,1,2.52,1,3.84,3.84,0,0,1-2,2.19,9.88,9.88,0,0,0-4,3.41c-1.79,3.21-5,4.9-7.46,7.45a4.63,4.63,0,0,1-1.21.91q-7.05,3.67-14.13,7.3c-3.83.66-7.05,2.7-10.35,4.57-.44.25-.92.42-1.38.63-2.86.59-5,1-6.64,1.35a11.16,11.16,0,0,1-.53-2.7,7.39,7.39,0,0,0-1.8-4.16,72.07,72.07,0,0,0-5.07-5.76,25.12,25.12,0,0,0-3.66-2.58c-2.48,1.09-5,1.84-7.09,3.2a26.11,26.11,0,0,0-3.86,3.17C83.26,349.54,76,348.45,68.66,347.67ZM38.63,367a9.06,9.06,0,0,1,1-2.68A8.32,8.32,0,0,1,44,368.22c1.13,2.2,2.13,4.47,3.24,6.82,0,.37.06.87.12,1.36.5,4.08-1.78,6.49-5,8.3a8.1,8.1,0,0,1-2.78-.33,2.74,2.74,0,0,1-1.34-2.49C38.29,376.91,38.4,371.94,38.63,367Zm78.11,174.36c-.24-.33-.76-.78-.67-1,.53-1.28,1.1-1.22,1.55.2Zm9.44-31.07-.9-.68,1-.48Zm206.49-97.08c.22.39.44.77.67,1.15a3.19,3.19,0,0,1,.3.67,10.57,10.57,0,0,1,.35,2.22v.07a29.92,29.92,0,0,1,.12,3.46s0,0,0,.07c0,1.09-.09,2.18-.17,3.27l0,.25c-.09,1.11-.19,2.21-.28,3.32,0,.58-.09,1.15-.12,1.73s-.06,1.15-.07,1.73a8.14,8.14,0,0,1-1,2.87l-.47,1a16.89,16.89,0,0,0-.83,2.13,8.46,8.46,0,0,0-.26,1.13,14.49,14.49,0,0,1-1.11,3.9c-.07.16-.14.32-.22.48L328.34,445c-.82,1.59-1.62,3.19-2.35,4.82-.37.81-.71,1.64-1,2.46-.16.41-.34.82-.53,1.22-.57,1.21-1.25,2.38-1.84,3.58a17.81,17.81,0,0,0-1,2.46,10.1,10.1,0,0,0-.49,2.67c-1.6,3.19-3.23,6.37-4.83,9.56s-3.16,6.4-4.64,9.66a8.5,8.5,0,0,1-.77,1.33,13.13,13.13,0,0,1-1,1.21c-2.76,3.11-4.2,7-6.27,10.52-.09.15-.15.3-.23.45a5.3,5.3,0,0,0-.35.94,5.47,5.47,0,0,0-.13.73,5.83,5.83,0,0,0,0,.75,6.22,6.22,0,0,0,.06.76,6.88,6.88,0,0,0,.4,1.51,7.64,7.64,0,0,0,.33.74c.12.23.25.45.38.67.38.67.79,1.32,1.19,2a15,15,0,0,1-.94,2.74q-.2.35-.36.7a11.42,11.42,0,0,0-.75,2.17q-.09.37-.16.74c-.07.38-.12.77-.17,1.16s0,.74-.05,1.12,0,.68,0,1v0a4.62,4.62,0,0,0,3.74,4.74,2.39,2.39,0,0,1,.75.36,1.42,1.42,0,0,1,.33.35,1.21,1.21,0,0,1,.21.46,1.62,1.62,0,0,1-.15,1c-.61,1.34-1.2,2.69-1.8,4-.85,1.94-1.73,3.86-2.7,5.74-.23.44-.44.89-.68,1.32s-.32.61-.46.91a6.07,6.07,0,0,0-.24,5.22,7.92,7.92,0,0,0,.46.91,1.83,1.83,0,0,1,.23,1.07,3.76,3.76,0,0,1-.69,1.81c-.23.32-.47.64-.72,1a8.7,8.7,0,0,1-1.3,1.34c-1.59,1.27-3.28,2.4-5,3.6-.31.69-.66,1.37-1,2-.54,1-1.11,2-1.66,3a27.82,27.82,0,0,0-1.48,3.11,3,3,0,0,1-.59,1l-.07.09a2.11,2.11,0,0,1-.42.33,1.86,1.86,0,0,1-2.35-.46c-.36-.37-.69-.77-1-1.17-.65-.76-1.29-1.54-1.94-2.32l.39-7.89.13-2.63c.55-1.24,1-2.17,1.38-3.12a10.41,10.41,0,0,0,1-2.87c.28-3.58.51-7.16.62-10.75q.08-2.69.07-5.38t-.15-5.39c0-.36,0-.71-.09-1.06,0-.06,0-.13,0-.19,0-.3-.08-.59-.14-.88l0-.13c-.06-.32-.13-.63-.21-.94v-.05q-.13-.5-.3-1a14.9,14.9,0,0,0-1.4-3,6.49,6.49,0,0,1-1-2.85c-.19-3.17-2.42-5.66-2.74-8.73s-.44-6.14-.8-9.19a9.09,9.09,0,0,0-1.11-2.84,9.2,9.2,0,0,1-.11-8.8c2.32-4.55,4.53-9.15,6.86-13.69a11.39,11.39,0,0,0,1-4.43,2.52,2.52,0,0,0-1.09-2.68c-.69-.36-1.68.18-2.45,1a9,9,0,0,0-1.85,2.42,18.33,18.33,0,0,1-3.86,6.55c-1.87,1.84-2.93,4.14-4.12,6.4a14.93,14.93,0,0,1-2.29,3.22h0a15.87,15.87,0,0,1-1.32,1.27c-.42.36-.86.69-1.32,1l-.17.13c-1.17.8-2,.76-2.44-.46a2.91,2.91,0,0,1-.15-1.44,4.65,4.65,0,0,1,.18-.75,6,6,0,0,1,.28-.7c.43-.91,1.05-1.74,1.53-2.63a7.49,7.49,0,0,0,.33-.68,5.23,5.23,0,0,0,.24-.72,7.08,7.08,0,0,1,.38-1.11,8.25,8.25,0,0,1,.54-1,12.2,12.2,0,0,1,1.39-1.81c.12-.13.23-.28.34-.42s.34-.4.49-.6h0c2.24-2.92,3.45-6.41,5.33-9.53.66-1.09-.52-3.14-1.89-3.44a2.19,2.19,0,0,0-2.66,1.09l-.19.34c-2.53,4.54-4.68,9.27-7.09,13.87l0,.07q-.52,1-1.06,2l-.21.39q-.64,1.16-1.32,2.31a9.41,9.41,0,0,1-.4,1c-.12.29-.27.57-.41.84h0c-1.37,2.57-3.58,4.53-5.47,6.71a41.6,41.6,0,0,1-3.79,4l-.06.06c-.25.22-.52.44-.79.64l-.14.12c-.25.19-.52.37-.78.55l-.2.14c-.34.21-.68.41-1,.6-.81.42-1.54.41-2-.17a2,2,0,0,1-.32-.81h0c-.1-.54-.18-1.06-.24-1.57,0-.15,0-.3,0-.45,0-.36-.06-.71-.08-1,0-.15,0-.3,0-.45,0-.35,0-.68,0-1,0-.11,0-.22,0-.32a11,11,0,0,1,1.1-4.11c3.38-6.86,6.79-13.71,10.32-20.5a8.89,8.89,0,0,0,1-4.41,4.33,4.33,0,0,0-.08-.77,2.89,2.89,0,0,0-.63-1.34,2.68,2.68,0,0,0-.59-.51c-.11-.07-.34,0-.59.14a3.93,3.93,0,0,0-.7.48l-.58.51a7.94,7.94,0,0,0-1.54,1.68h0c-.22.36-.43.74-.62,1.12-.5,1-.92,2-1.42,3q-2.09,4.09-4.22,8.16c-.38.72-.7,1.47-1,2.22h0l-.33.76-.2.46q-.23.52-.48,1l-.15.29q-.2.39-.43.76l-.18.3a10.35,10.35,0,0,1-.69,1h0a8.15,8.15,0,0,1-.27.9c-.7,2-2,3.72-3,5.62q-.2.39-.38.79c-.13.3-.26.61-.36.93s-.21.6-.33.89a30,30,0,0,1-1.41,2.85,28,28,0,0,0-1.53,3.15,7,7,0,0,1-7.47,4.62,9.25,9.25,0,0,1-2.68-.74,2.81,2.81,0,0,1-.37-.2,2.33,2.33,0,0,1-.32-.24,1.87,1.87,0,0,1-.63-1.3,2.55,2.55,0,0,1,.09-.82c.2-.74.43-1.46.7-2.18a36,36,0,0,1,1.88-4.15c.35-.67.72-1.34,1.09-2s.57-1,.85-1.56h0q1.57-2.83,3-5.71h0q1.39-2.71,2.72-5.45l.08-.17q1.34-2.76,2.61-5.56l.31-.67a6.05,6.05,0,0,0,.76-2.9,2.65,2.65,0,0,0-.77-1.89,2,2,0,0,0-.32-.23l0,0a2.12,2.12,0,0,0-.4-.18h0a3.1,3.1,0,0,0-.76-.14h0a2,2,0,0,0-2,.92c-.51.84-1,1.71-1.4,2.58-.24.48-.48,1-.73,1.42s-.48.88-.74,1.31l0,0a8.41,8.41,0,0,0-.88,2.12c-.21.73-.35,1.47-.53,2.22a9.17,9.17,0,0,1-1,2.86c-.27.42-.56.82-.86,1.22l-.11.14c-.66.88-1.35,1.73-2,2.61h0c-.23.32-.47.64-.68,1-.93,1.45-1.52,3.14-2.43,4.57h0a8.61,8.61,0,0,1-.53.76,58.78,58.78,0,0,0-4.67,6.52q-.69,1.15-1.3,2.35a2.83,2.83,0,0,1-.24.36A11.25,11.25,0,0,1,216.5,488a4,4,0,0,1-1,.63,3.73,3.73,0,0,1-2.14.25,4.89,4.89,0,0,1-1.09-.32,2.11,2.11,0,0,1-.36-.19,1.92,1.92,0,0,1-.29-.24,2,2,0,0,1-.34-.46,3.75,3.75,0,0,1-.39-1.67c0-.39,0-.77,0-1.15a7.69,7.69,0,0,1,.17-1.68,4.49,4.49,0,0,1,.69-1.58c.41-.6.84-1.19,1.26-1.78l.52-.73c.44-.63.67-1.26,1.12-1.9s1.18-1.3,1.18-2h0c1-1.44.62-3,.49-4.47-.11-1.28-.95-2.1-1.79-1.63a2.8,2.8,0,0,1-1.18.54h0c-.2,1-.37.55-.55.72,0,0,0,.16-.05.17a4.27,4.27,0,0,0-.49.65c-.21.32-.41.67-.61,1-1.37,2.29-2.37,4.8-4.13,6.9-.41.48-.79,1-1.16,1.51s-.72,1-1.07,1.58c-.69,1.07-1.36,2.16-2.07,3.21a2.59,2.59,0,0,1-2.06.74h0a2.22,2.22,0,0,1-1.93-.76c-.47-.88-.81-1.83-1.24-2.74a2.89,2.89,0,0,0-2.31-1.7,2.79,2.79,0,0,0-1.4.2,2.83,2.83,0,0,0-1.18.94c-.23.31-.43.63-.63,1a10,10,0,0,1-1.67,2.3,4.37,4.37,0,0,1-.46.37,2.28,2.28,0,0,1-1.62.13,5,5,0,0,1-1.25-.42l-.27-.15a1.41,1.41,0,0,1-.77-.91c0-.38-.08-.77-.11-1.15-.07-.77-.13-1.53-.22-2.3,0-.38-.1-.76-.16-1.14a1.34,1.34,0,0,0-.2-.47,2.39,2.39,0,0,0-.71-.73,1,1,0,0,0-.58-.11,2.5,2.5,0,0,0-.65.12,4.22,4.22,0,0,0-.4.17,3.11,3.11,0,0,0-.91.58q-6.49,6.34-12.94,12.72l-.22.22h0c-.55.54-1.09,1.09-1.61,1.65a16.85,16.85,0,0,0-2.09,2.7,10,10,0,0,0-1.28,3.23c-.39.66-.76,1.33-1.14,2l-1.13,2c-.76,1.33-1.55,2.64-2.43,3.88-1.77,2.5-3.94,4.72-5.92,7.07a3.94,3.94,0,0,0-.89,4,6,6,0,0,0,.31.76,8.24,8.24,0,0,0,.45.8c.14.22.29.44.43.65a5,5,0,0,1,1,2,7.72,7.72,0,0,1,.11.81,1.22,1.22,0,0,1-.12.71c-.33.52-.63,1-.94,1.57-.73,1.23-1.44,2.47-2.11,3.73-1,1.8-1.88,3.62-2.79,5.44a3.84,3.84,0,0,0-.39,1.66,5,5,0,0,0,0,.57,6.53,6.53,0,0,0,.22,1.14,9.14,9.14,0,0,0,.39,1.1,21.39,21.39,0,0,0,1.62,2.9c.19.31.38.62.57.93a16.49,16.49,0,0,1-1.76,2.63,21.67,21.67,0,0,0-3.51,4.48,17,17,0,0,0-.87,1.73q-.15.35-.34.69a8.17,8.17,0,0,1-2.54,2.8,8.91,8.91,0,0,1-1.37.78h0a5.82,5.82,0,0,1-.46-.57A3.78,3.78,0,0,1,140,554q0-1-.06-1.92c0-1.28-.06-2.57-.05-3.85q0-1,0-1.92c.12-3.33.18-6.66.21-10s0-6.67,0-10q0-2.5,0-5t0-5.07c0-3.31.09-6.62.22-9.92a13.55,13.55,0,0,0-.06-1.91,12.52,12.52,0,0,0-.94-3.66,13.27,13.27,0,0,0-.9-1.74c-.33-.54-.65-1.1-1-1.66-.41-.75-.79-1.51-1.17-2.27-.48-1-1-1.9-1.47-2.83l-.11-.23a9.81,9.81,0,0,1-.51-1.18,17.53,17.53,0,0,1-.6-2.21c-.16-.75-.3-1.5-.47-2.25a2.83,2.83,0,0,0-1.76-2.3,3.91,3.91,0,0,0-2.91.45c-.86.44-1.81.72-2.72,1.07a5.82,5.82,0,0,1-.92-1.23,13.14,13.14,0,0,1-.66-1.37l-.3-.71a13.76,13.76,0,0,0-.66-1.38,6.89,6.89,0,0,0-.41-.65,12.45,12.45,0,0,1-1.12-2c-.33-.7-.63-1.41-1-2.09a1.91,1.91,0,0,0-.29-.42,2.51,2.51,0,0,0-.87-.61,3.24,3.24,0,0,0-1.69-.23,2.83,2.83,0,0,0-1.1.38,2.13,2.13,0,0,0-.93,1.13,2.41,2.41,0,0,0-.1.36,2.75,2.75,0,0,0,0,.38,3.51,3.51,0,0,0,.06.82,6.21,6.21,0,0,0,.18.72,5.19,5.19,0,0,0,.28.69c.11.23.23.46.36.68l.38.67a10.81,10.81,0,0,1,.68,1.37,3.28,3.28,0,0,1,.2.77,2.93,2.93,0,0,1,0,.75,2.78,2.78,0,0,1-.32.95,2.85,2.85,0,0,1-.24.41,1,1,0,0,1-.74.45,1.13,1.13,0,0,1-.29,0,1.57,1.57,0,0,1-.31-.09,2.6,2.6,0,0,1-.47-.26,4.3,4.3,0,0,1-.56-.45,10.23,10.23,0,0,1-1.94-2.37,6.91,6.91,0,0,1-.34-.67,6.13,6.13,0,0,1-.51-2.24,11.64,11.64,0,0,0-1.29-4.59c-.27-.57-.56-1.14-.85-1.71l-.42-.85c-.29-2.56-.52-5.11-.91-7.63a2.33,2.33,0,0,0-.07-.28,2.43,2.43,0,0,0-.16-.43,2.78,2.78,0,0,0-.41-.6,3.55,3.55,0,0,0-.39-.37,4.77,4.77,0,0,0-.8-.53,1.9,1.9,0,0,0-1.05-.18c-1.15.1-2.46,1-2.54,1.88q0,.49-.06,1a12.25,12.25,0,0,0,.72,4.64q.17.45.37.89t.46.88a8.12,8.12,0,0,1,1,2.68,8.27,8.27,0,0,1-.58,4.65,2.7,2.7,0,0,1-.17.34,2.38,2.38,0,0,1-.78.83,1.82,1.82,0,0,1-1.27.07,5,5,0,0,1-1.66-.73,3.62,3.62,0,0,1-.34-.26l-.2-.2a1.26,1.26,0,0,1-.34-.6c-.13-.75-.26-1.51-.4-2.26a28,28,0,0,0-.8-3.33,14,14,0,0,0-1.42-3.16,6.31,6.31,0,0,1-.73-2.88v-.06c-.07-1.29-.1-2.58-.12-3.87s0-2.54,0-3.81A2.88,2.88,0,0,1,99,456a5.43,5.43,0,0,1,.66-.19l.78-.19.37-.12a3.37,3.37,0,0,0,.68-.32,2.09,2.09,0,0,0,.77-.82c1-2,2-3.91,4-5.05a7,7,0,0,1,.93-.44,4.05,4.05,0,0,0,1.19-.61,4.68,4.68,0,0,0,1.46-3.17v-1.14c0-1.18-.27-2.37-.36-3.54a19.58,19.58,0,0,0-.94-4.4c-.12-.37-.6-.88-.9-.89a1.93,1.93,0,0,0-.4,0,2.35,2.35,0,0,0-.4.12,1.85,1.85,0,0,0-.65.42l-1.55,1.69c-1.54,1.7-3,3.39-4.46,5-.34,1.75-.56,3.28-1,4.77a2.35,2.35,0,0,1-.54,1,2.81,2.81,0,0,1-.86.62,4.8,4.8,0,0,1-.56.22l-.12,0a2.09,2.09,0,0,1-1.65,0,1.64,1.64,0,0,1-.6-.58,2.79,2.79,0,0,1-.17-.32c0-.07-.06-.12-.09-.2-.24-.62-.49-1.23-.76-1.84-.14-.31-.27-.63-.43-.93a2.46,2.46,0,0,0-.21-.33,1.61,1.61,0,0,0-.9-.66,1.65,1.65,0,0,0-1.18.84c-1.08,2.29-2.3,4.62-3.3,7.23v10.3c0,.13.17.24.23.37a5.13,5.13,0,0,1,.81,1.84c.11.26.24.52.35.78.46,1.08.11,1.82-1.14,2a1.91,1.91,0,0,1-.38,0,2.73,2.73,0,0,1-1.13-.26,2.49,2.49,0,0,1-1.08-1c-1.2-2.25-2.33-4.54-3.65-7.13-.23-2.73-.49-5.79-.75-8.86-.09-1.07-.4-2.33-1.23-2.53a1.3,1.3,0,0,0-.35,0,4.14,4.14,0,0,0-2.25,1.42c-2.07,2-1.73,4.69-2.36,7.11a2,2,0,0,1-.91,1.19h0a1.71,1.71,0,0,1-1.21-.39A11,11,0,0,1,69,452.31a2.64,2.64,0,0,0-.53-.79,2.39,2.39,0,0,0-.43-.36,1.4,1.4,0,0,0-.29-.14,1.89,1.89,0,0,0-.34-.08,1.15,1.15,0,0,0-.55,0l-.07,0a17.94,17.94,0,0,1-3.21,1.3q-.55.16-1.1.27a12,12,0,0,1-2.25.24,11.49,11.49,0,0,1-2.33-.22c-.25,0-.52-.06-.78-.09a1.92,1.92,0,0,1-.72-.19q-.59-.33-1.2-.61a29.66,29.66,0,0,0-3.74-1.43l-1.28-.38c-.86-.24-1.72-.47-2.58-.69l-1.3-.33a16.17,16.17,0,0,0-2.49-1.4l-1.73-.8a16.92,16.92,0,0,1-2.5-1.39,1.22,1.22,0,0,1-.32-.34,2,2,0,0,1-.22-.48,3.43,3.43,0,0,1-.15-1.18,3.25,3.25,0,0,1,.24-1.16,1.55,1.55,0,0,1,.59-.72l.06-.05.71-.34,1.11-.53.94-.44a1.65,1.65,0,0,0,.4-.29l.06-.07a2.84,2.84,0,0,0,.44-.63,4.07,4.07,0,0,0,.45-1.4,3.44,3.44,0,0,0,0-.58,2,2,0,0,0-.28-1,2.12,2.12,0,0,0-.23-.3,2.59,2.59,0,0,0-.62-.48,2,2,0,0,0-.34-.15,25,25,0,0,0-6.63-.84c-.89,0-1.79-.1-2.68-.22-.44-.06-.89-.14-1.33-.23L30,433.12c-1.18-.47-2.37-.95-3.54-1.47-.58-.26-1.16-.53-1.73-.82a3.66,3.66,0,0,1-1.24-1.3c-.22-.32-.43-.65-.66-.94,0-.9-.06-1.79-.09-2.69-.1-2.69-.21-5.38-.18-8.07q0-.28,0-.56a7.06,7.06,0,0,1,.34-1.67,5.76,5.76,0,0,1,1.16-2l1.84-2.05c2.37-2.64,4.42-4.89,6.32-6.93,3.8-4.07,7-7.28,10.89-11,1.47-1.39,3-2.85,4.77-4.45l7-3.4,12-5.85a1.66,1.66,0,0,1,.95-.15,3.62,3.62,0,0,1,1.37.55l.37.23.37.21q.32.18.67.33a9.41,9.41,0,0,0,1.77.58,7,7,0,0,0,3,0A7.24,7.24,0,0,0,77.3,381a8.21,8.21,0,0,0,2.09-1.62q.22-.24.42-.48a8.14,8.14,0,0,0,.85-1.3,7.16,7.16,0,0,0,.36-.77c.06-.16.11-.33.16-.49a9.32,9.32,0,0,0,.25-1.09c.07-.43.13-.87.18-1.3a12.65,12.65,0,0,1,.46-2.35,6,6,0,0,1,.29-.72c.44-.92.86-1.85,1.29-2.78s.86-1.85,1.32-2.77a7.11,7.11,0,0,1,.6-1,8.3,8.3,0,0,1,.74-.88A12,12,0,0,1,88.05,362a2.64,2.64,0,0,1,1-.42.28.28,0,0,1,.21,0,2.2,2.2,0,0,1,.87,1.62,2.77,2.77,0,0,1-.21,1.17c-.48,1.22-1,2.44-1.67,3.94l-.32.75c-.22,5.66-.8,11.79-.64,17.95l0,.94a26.73,26.73,0,0,0,.78,6.69,2.33,2.33,0,0,0,.14.37,2.41,2.41,0,0,0,1,1,4.17,4.17,0,0,0,1,.41,3.41,3.41,0,0,0,.83.12,2.15,2.15,0,0,0,.72-.11,1.87,1.87,0,0,0,.61-.35,2.48,2.48,0,0,0,.5-.61c.13-.21.28-.42.4-.64a1.57,1.57,0,0,0,.21-.61s0,0,0-.06c.1-3.58,0-7.17.23-10.75,0-.25,0-.51,0-.76a18.11,18.11,0,0,1,.59-4.55c.08-.25.16-.49.26-.73a2.32,2.32,0,0,1,.34-.58,2.11,2.11,0,0,1,.31-.3l.14-.12a2.34,2.34,0,0,1,.51-.26l0,0a3.12,3.12,0,0,1,.66-.16h0c0-.14-.09-.29-.11-.43a1.22,1.22,0,0,0,.29,0h0a10.92,10.92,0,0,0-.08-1.24s0-.1,0-.14c0-.37-.06-.74-.1-1.11,0-.09,0-.17,0-.26,0-.34-.05-.67-.08-1,0-.13,0-.25,0-.38,0-.3,0-.6,0-.9s0-.33,0-.49,0-.53,0-.79,0-.41,0-.62,0-.45,0-.68,0-.52,0-.78,0-.35,0-.52q0-.66.13-1.31a11.12,11.12,0,0,1,.23-1.22c0-.06-.21-.12-.2-.18a4.42,4.42,0,0,0,.11-1.11v-.11h.24a18.69,18.69,0,0,1,2.91-4,7.52,7.52,0,0,1,1.32-.92c.68-.4,1.8,0,2.66,0h0c.13,0,.26.2.37.26v0a1.75,1.75,0,0,1,.89,1c.5,1.79.94,3.62,1.54,5.38,0,.14.09.29.14.43.13.36.27.71.43,1.05s.33.69.5,1c.35.68.72,1.35,1.05,2q.11,1.14.19,2.29.16,2.29.2,4.57t0,4.57c-.06,2.28-.19,4.57-.36,6.85a6,6,0,0,1-.1.76,4.37,4.37,0,0,1-1,2h0a2.52,2.52,0,0,1-1.58-1.29,6.55,6.55,0,0,1-.4-.93c-.12-.32-.23-.66-.35-1s-.2-.46-.31-.69c-.34-.68-.75-1.33-1.06-2a6.22,6.22,0,0,1-.5-1.65,4.67,4.67,0,0,1,0-.55,4,4,0,0,1,.56-2.17c.08-.13.12-.25.18-.38a4.49,4.49,0,0,0,.34-.91c0-.09.05-.18.06-.26a4.38,4.38,0,0,0-1.54-3.78,2.54,2.54,0,0,0-1.61-.9,1.78,1.78,0,0,0-1,.24h0l-.46.29h0c-1,.66-1.88,1.5-3.14,1.59,0,.13.13.26.14.39a.67.67,0,0,0-.28.05h0c0,6.87.23,13.76.1,20.64,0,.11-.05.23-.05.34a3.24,3.24,0,0,0,.66,1.85A3.72,3.72,0,0,0,99,400.09a2,2,0,0,0,.48.15c1.4.24,2.81.41,4.22.6l.27,0a5,5,0,0,1,1.43,1.76,5.51,5.51,0,0,1,.29.71c0,.13.09.26.14.39a4.63,4.63,0,0,0,.58,1.08,2.47,2.47,0,0,0,.25.28,1.18,1.18,0,0,0,.87.39,3,3,0,0,0,1.62-.8c.31-.26.61-.54.88-.8a6.85,6.85,0,0,0,1.83-2.42,30.35,30.35,0,0,1,1.23-2.81c.44-.92.89-1.83,1.26-2.77.74-1.87,1-3.91,1.58-5.85a1.66,1.66,0,0,1,.15-.35,2,2,0,0,1,.53-.61.9.9,0,0,1,.31-.15c.23-.06.48-.08.72-.12a9.68,9.68,0,0,1,2.17-.13,1.27,1.27,0,0,1,1,.67,2.59,2.59,0,0,1,.32.7,3.57,3.57,0,0,1,.11.6,3.92,3.92,0,0,1,0,.64,3.8,3.8,0,0,1-.09.64,3.4,3.4,0,0,1-.21.62,9.89,9.89,0,0,1-.82,1.33,3.6,3.6,0,0,0-.63,1.35c-.27,1.62,1,2.64,2.08,3.64a3,3,0,0,0,.71.5,1.44,1.44,0,0,0,.67.15,1.23,1.23,0,0,0,.32-.05,2.08,2.08,0,0,0,.94-.69c.16-.19.34-.38.51-.57l.53-.55a11.59,11.59,0,0,0,1-1.15,14.21,14.21,0,0,0,1-1.62,11.2,11.2,0,0,0,.51-1,4.88,4.88,0,0,1,1.47-2.05,5.23,5.23,0,0,1,3.85-.86c.32,0,.65.08,1,.13a1.68,1.68,0,0,1,1.57,1.64,1.29,1.29,0,0,1-.06.32c-.06.18-.13.35-.2.52-.37.86-.88,1.65-1.17,2.55a4.62,4.62,0,0,0-.23,1.14,3.84,3.84,0,0,0,.19,1.77c.32.71,1,1,2.34,1.06A2.52,2.52,0,0,0,139,399l.08-.13c.72-1.34,1.45-2.68,2.17-4s1.42-2.7,2.11-4.06a5.39,5.39,0,0,1,.44-.73,4.36,4.36,0,0,1,.5-.58,3.93,3.93,0,0,1,1.18-.79,6.48,6.48,0,0,1,2.93-.41,4.2,4.2,0,0,1,2.75,1.12c-.79,2.1-2.59,3.44-3.92,5.14a9.38,9.38,0,0,0-.65.91,2.32,2.32,0,0,0-.12.25,3.12,3.12,0,0,0-.24.76,4.06,4.06,0,0,0,.48,2.79,1.59,1.59,0,0,0,.33.35,3.06,3.06,0,0,0,1.1.51,3.91,3.91,0,0,0,1,.13h0a3.07,3.07,0,0,0,2-.7c.37-.34.75-.69,1.11-1s.72-.72,1.06-1.1a9,9,0,0,0,.91-1.27,28.34,28.34,0,0,0,1.37-2.66c.07-.15.16-.29.24-.44a16.75,16.75,0,0,1,1.65-2.4l.72-.89a3.66,3.66,0,0,1,1.18-1,4.3,4.3,0,0,1,.86-.32,5,5,0,0,1,.57-.13l.33,0,.45-.05a2.51,2.51,0,0,1,.38,0,1.42,1.42,0,0,1,.36.07,2.45,2.45,0,0,1,.89.52,1.27,1.27,0,0,1,.29.39,1.39,1.39,0,0,1-.18,1.29,17.27,17.27,0,0,0-1.18,2.3,7.17,7.17,0,0,0-.6,3,6,6,0,0,0,.4,1.93,2.7,2.7,0,0,0,.31.57l.14.19a2.7,2.7,0,0,0,.23.23,3.28,3.28,0,0,0,.52.4h0a4.56,4.56,0,0,0,1,.45,2.53,2.53,0,0,0,2,0h0a1.56,1.56,0,0,0,.35-.28l.05-.06a1.69,1.69,0,0,0,.27-.43,23,23,0,0,1,5.25-7.41,30.41,30.41,0,0,1,2.32-2l.15-.1a4.16,4.16,0,0,1,1.33-.65,3.68,3.68,0,0,1,1.08-.13,3.5,3.5,0,0,1,1.63.46,2.25,2.25,0,0,1,.33.23,1.83,1.83,0,0,1,.46.56,1.72,1.72,0,0,1,.13.33,2,2,0,0,1,.05.73,2.75,2.75,0,0,1-.22.81c-.2.45-.42.91-.66,1.35a9.67,9.67,0,0,1-.82,1.25c-.26.34-.53.66-.81,1l-.18.2a59,59,0,0,0-4.77,5.5h0a13.26,13.26,0,0,0-1,1.62,6.11,6.11,0,0,0-.62,3.48h0c0,.14,0,.28.08.42s0,.17.06.25.07.24.11.36.09.24.14.36.07.18.12.27a5.68,5.68,0,0,0,.36.64l.23.32a2.35,2.35,0,0,0,.56.55.58.58,0,0,0,.29.1,9.93,9.93,0,0,0,2.9-.39,1.92,1.92,0,0,0,1.07-1l.21-.51.09-.21h0a17,17,0,0,1,2.65-4.61l.05-.06.59-.69.22-.27.39-.47.25-.32.34-.43.27-.35.3-.4.27-.4.26-.38.27-.44.22-.37c.1-.17.18-.35.27-.52l.17-.32q.2-.43.38-.89a2.15,2.15,0,0,1,.41-.63c.17-.2.36-.39.52-.59s.49-.59.75-.87.48-.5.74-.73c0,0,0,.16,0,.15,1.61-1.47,3.5-2.78,5.93-1.78h0a3.09,3.09,0,0,0,.25-.53c.12,0-.43-.08.57-.07v0c0-.23-.24-.46-.21-.66,0,0-.11-.05-.11-.07a1.78,1.78,0,0,1,.13-.53s0,0,0-.07a1.66,1.66,0,0,1,.34-.42l0,0a2.19,2.19,0,0,1,.54-.32c.06,0,.21.06.36.19a3.1,3.1,0,0,1,.3.28h0c.14.14.23.28.21.33h0a2.35,2.35,0,0,1-.33.54l0,.05a1.9,1.9,0,0,1-.43.36l-.06,0a2,2,0,0,1-.53.21H193a2.64,2.64,0,0,1-.64.06h0a3.34,3.34,0,0,0,.05.36c-.14,0-.27,0-.41,0,0,.14,0,.29,0,.43v.06a2.29,2.29,0,0,1,0,.28s0,.07,0,.1a.84.84,0,0,1-.13.29c-.82,1.1-1.68,2.17-2.55,3.23-.42.51-.83,1-1.26,1.51a8.11,8.11,0,0,0-1.23,1.94,10,10,0,0,0-.67,2.15c-.06.28-.1.56-.14.85s-.06.45-.08.68-.05.7-.06,1.05,0,.51,0,.77c0,.08,0,.15,0,.23,0,.32.05.63.1.94v0q.07.49.19,1h0c0,.19.08.38.14.57a2.6,2.6,0,0,0,2.27,1.65,3.2,3.2,0,0,0,1,0h0a2.14,2.14,0,0,0,.91-.34l0,0a2.33,2.33,0,0,0,.32-.28l.08-.08a3,3,0,0,0,.31-.4,7.64,7.64,0,0,0,.94-2.67c.12-.55.23-1.11.4-1.65a11.27,11.27,0,0,1,.87-2.11,6.47,6.47,0,0,1,.4-.63,37,37,0,0,1,3-3.48c.87-.94,1.74-1.88,2.62-2.81s1.77-1.85,2.71-2.72a10.48,10.48,0,0,0,2.16-3.15c.42-.85.81-1.73,1.28-2.55.16-.27.32-.54.5-.81h0c.2-.29.4-.55.61-.8l.27-.32.24-.25a6.5,6.5,0,0,1,6.38-1.95c0-.1,0-.2,0-.29l.32,0a2,2,0,0,1,1.17-2.13c.15-.07.94.65.88.79a2,2,0,0,1-2.06,1.34c0,.11,0,.22,0,.34l-.38-.07a2.54,2.54,0,0,1-.15,1.22l-1.33,2.27h0c-.83,1.41-1.66,2.81-2.46,4.24-1,1.74-2.61,3.1-3.9,4.67s-2.51,3.19-3.53,4.5c-.09.35-.18.7-.26,1-.16.69-.28,1.36-.42,2s-.27,1.29-.45,1.9a9.79,9.79,0,0,1-1.15,2.65c-.27.43-.52.86-.76,1.31l-.17.33q-.33.64-.64,1.28c-.82,1.74-1.55,3.54-2.54,5.21a4.9,4.9,0,0,0-.6,1.77c0,.21-.05.43-.07.65v0c0,.2,0,.41,0,.61,0,0,0,.05,0,.08,0,.19,0,.38,0,.56,0,0-.23.07-.22.11,0,.21-.15.43-.15.64h0c1,.27.35.52.45.75a3,3,0,0,0,.48.62,2,2,0,0,0,1.13.69,1,1,0,0,0,.2,0,2.16,2.16,0,0,0,1.2-.6l.55-.53a6.71,6.71,0,0,0,1.4-1.77c1.68-3.47,3.45-6.9,5.21-10.34h0l.16-.32.79-1.54.25-.5.51-1.07c.24-.51.47-1,.72-1.51a21.71,21.71,0,0,1,1.67-3,11.67,11.67,0,0,1,1.48-1.76l.78-1.08.36-.5.49-.68.3-.41.6-.82.11-.15,1.37-1.87.12-.16.48-.65.15-.2.44-.6.11-.14,1-1.33.11-.15.35-.45.12-.16.33-.43.1-.12.81-1,.1-.12.29-.35.11-.13.28-.33.1-.12.38-.43h0c1.33-1.49,2.75-2.91,5-5.18a7,7,0,0,1,5.53-2,4.45,4.45,0,0,1,4.38,3,3.3,3.3,0,0,0,2.3-.57h0l.18-.13.14-.1a3.05,3.05,0,0,1,1.69-.83,1.32,1.32,0,0,1,.39,0,1.18,1.18,0,0,1,.47.22,2.33,2.33,0,0,1,.68.92,2.17,2.17,0,0,1,.17.74,1.93,1.93,0,0,1-.46,1.09,50.84,50.84,0,0,0-3.11,5.42h0a4.73,4.73,0,0,1-.76,1.87c-.05.11,0,.21-.09.32-.32.62-.61,1.24-1,1.84a1.78,1.78,0,0,0-.18,1,4.61,4.61,0,0,0,.53,1.81,2.45,2.45,0,0,0,1.08,1.17,3.86,3.86,0,0,0,4.17-.92c.15-.21.32-.4.49-.6a5.71,5.71,0,0,0,.47-.61c.32-.49.63-1,.93-1.48s.45-.75.65-1.14c.84-1.64,1.62-3.32,2.44-5h0c.24-.49.49-1,.74-1.46s.62-1.17,1-1.75a7.08,7.08,0,0,1,.64-.92c.24-.29.5-.58.77-.85.54-.55,1.12-1.08,1.65-1.63a3.11,3.11,0,0,1,1-.7,2.83,2.83,0,0,1,.53-.17,4.92,4.92,0,0,1,2.74.38,5.93,5.93,0,0,1,2.34,1.6,5.1,5.1,0,0,1,.94,1.45,1.36,1.36,0,0,1,0,.94,11.67,11.67,0,0,1-.86,1.71c-.58,1.13-1.11,2.3-1.61,3.46s-1,2.32-1.48,3.45a2.64,2.64,0,0,0,1,1.2,2.18,2.18,0,0,0,.67.28,3,3,0,0,0,.79.07,6.53,6.53,0,0,0,.73-.06,3,3,0,0,0,.7-.18,3.82,3.82,0,0,0,1.27-.84c.42-.43.83-.87,1.23-1.31l.29-.32a33.56,33.56,0,0,0,2.28-2.83l.22-.31c.35-.5.69-1,1-1.55a22,22,0,0,0,1.22-2.37c.94-2.15,3-2.42,5.18-2.2a4,4,0,0,1,2.69,1.3c-.46,1.43-1,2.84-1.38,4.28s.43,2.87,2.21,3.33a2.57,2.57,0,0,0,2.82-.72q2.09-2.23,4.28-4.37h0a2.86,2.86,0,0,1,1.2-.69,4,4,0,0,1,1.48-.13,4.78,4.78,0,0,1,1.33.33,4.72,4.72,0,0,1,.58.28,4.56,4.56,0,0,1,.44.27,4.34,4.34,0,0,1,.51.42c.73.72,1.35,1.56,2.1,2.24a14.63,14.63,0,0,0,1.2,1c.42.31.86.62,1.31,1,.76-.65,1.52-1.32,2.29-2s1.54-1.31,2.35-1.92a5.12,5.12,0,0,1,.62-.4l.15-.08a4.87,4.87,0,0,1,.58-.25l.08,0a3.87,3.87,0,0,1,2.9.09,23,23,0,0,0,5.53,2h0l.86.13c.29,0,.59.06.89.07a4.68,4.68,0,0,1,2.84,1c.4.32.83.61,1.24.91l.62.46c.2.16.39.32.58.5l.13.13h0q2.75,2.64,5.43,5.36l1.27,1.28h0q2.43,2.49,4.79,5.05c.77.84,1.55,1.67,2.31,2.52C329.85,407.62,331.14,410.47,332.66,413.18Zm27.61-106.84a17.41,17.41,0,0,1-1.56,5.84c-1.44,3.23-2.85,6.47-4.47,9.61a12.3,12.3,0,0,0-1.6,7.26c.21,1.74.22,3.51.29,4.88a4.38,4.38,0,0,0,2.41,2.31c3,1.57,4.38,4.06,4.25,7.77-.92,1.46-2.11,3.09-3,4.87s-1.55,3.72-2.2,5.34c-1.74,2.26-4.34,3.06-5.86,5.2s-3.25,3.86-5.1,6c-.11,1-.59,2.32-.32,3.46a37.76,37.76,0,0,1,.67,9.66,36.94,36.94,0,0,1-8.94,8.2,36.52,36.52,0,0,0-2.94,2.34,13.94,13.94,0,0,1-2.32,1.91,28.45,28.45,0,0,0-4,2.5c-1.23-1.23-2.47-2.44-3.72-3.64L323,388.6c1.79-4.17,3.79-8.26,5-12.68a14.83,14.83,0,0,1,1.58-3.43,11.55,11.55,0,0,0,1.56-3.42,26.09,26.09,0,0,1,3.49-8.37,43,43,0,0,0,4.86-12.7,48.16,48.16,0,0,1,3.74-10.56c.08-6.22.92-12.24.62-18.31-.13-2.61,1.15-4.89,2.05-7.56a15.16,15.16,0,0,1-.47-3.45,27,27,0,0,1,1-4.4,15.47,15.47,0,0,0,.6-2.19c.17-1.87-.28-3.51-2.12-4.44-.21.14-.54.22-.6.4-1.34,4.06-3,8-3.32,12.38a11.37,11.37,0,0,1-.35,2.25c-1.5,5.15-1.62,10.47-1.9,15.76a38.16,38.16,0,0,1-1.62,9.69c-.69,2.17-1.25,4.38-1.75,6.6a65.91,65.91,0,0,1-5.56,15.63,99.4,99.4,0,0,0-5.26,11.74c-.82,2.12-1.65,4.23-2.56,6.32s-1.89,4.12-3.32,7.19l-.84,1-1.37-1.28a29.65,29.65,0,0,0-3.68-2.54l-4.7-.62a13.28,13.28,0,0,1-4.17-1c-.5-2.76-1-5.67-1.57-8.58a6,6,0,0,1,1.66-5.57c.34-.36.73-.69,1.1-1,1.41-.87,2.95-.48,4.44-.45a4.45,4.45,0,0,0,4.25-2.64,26.09,26.09,0,0,0,3.08-9.08l-1.58-8c.09-2.48.19-5.26.29-8a22.36,22.36,0,0,1,.18-3c.53-3,2.09-5.12,5.14-5.92,1.22-.32,2.51-.4,3.7-.8a6,6,0,0,0,4.38-4.76c.21-1.25.4-2.5.52-3.75a9.64,9.64,0,0,0-1.18-5.85c-.37-.66-.62-1.38-1.12-2.53-.07-3.34-.16-7.13-.22-10.92a15.53,15.53,0,0,1,2-8c1.11-2,2.2-4,3.38-6.13,1.67-.93,3.4-2,5.19-2.87,4.76-2.45,7.59-6.51,9.55-11.32a21.82,21.82,0,0,1,1.2-2.75c.21-.36.81-.49,1.35-.79a6.26,6.26,0,0,1,1.64,1.36,11.72,11.72,0,0,1,1.5,3.45c.53,2.47.87,5,1.2,7.49a10.76,10.76,0,0,1-.7,5.18,8.25,8.25,0,0,0,1.84,9.09c1.46,1.5,4.08.28,5.59,2.23A81.05,81.05,0,0,1,360.27,306.34Z"/></g></g></svg>